<?xml version="1.0" encoding="utf-8"?>
<!-- Generator: Adobe Illustrator 26.0.2, SVG Export Plug-In . SVG Version: 6.00 Build 0)  -->
<svg version="1.1" id="Layer_1" xmlns="http://www.w3.org/2000/svg" xmlns:xlink="http://www.w3.org/1999/xlink" x="0px" y="0px"
	 viewBox="0 0 1000 650" style="enable-background:new 0 0 1000 650;" xml:space="preserve">
<style type="text/css">
	.st0{fill:#B71D90;}
	.st1{opacity:0.57;fill:none;stroke:#D754E2;stroke-width:1.5;stroke-miterlimit:10;enable-background:new    ;}
	.st2{opacity:0.57;}
	.st3{fill:none;stroke:#D754E2;stroke-width:1.5;stroke-miterlimit:10;}
	.st4{fill:#E08327;}
	.st5{fill:#FFFEFD;}
	.st6{fill:#FFFFFF;}
	.st7{fill:#840678;}
	.st8{enable-background:new    ;}
	.st9{fill:#6D0568;}
</style>
<g id="Layer_2_00000061437480698660896020000003232185119742346896_">
	<g id="Layer_1_00000042718730928854520800000006648691731977144484_">
		<rect class="st0" width="1000" height="650"/>
	</g>
	<rect y="141.8" class="st1" width="20" height="20"/>
	<rect x="20" y="141.8" class="st1" width="20" height="20"/>
	<rect x="40" y="141.8" class="st1" width="20" height="20"/>
	<rect x="60" y="141.8" class="st1" width="20" height="20"/>
	<rect x="80" y="141.8" class="st1" width="20" height="20"/>
	<rect x="100" y="141.8" class="st1" width="20" height="20"/>
	<rect x="119.9" y="141.8" class="st1" width="20" height="20"/>
	<rect x="140" y="141.8" class="st1" width="20" height="20"/>
	<rect x="160" y="141.8" class="st1" width="20" height="20"/>
	<rect x="180" y="141.8" class="st1" width="20" height="20"/>
	<rect y="161.8" class="st1" width="20" height="20"/>
	<rect x="20" y="161.8" class="st1" width="20" height="20"/>
	<rect x="40" y="161.8" class="st1" width="20" height="20"/>
	<rect x="60" y="161.8" class="st1" width="20" height="20"/>
	<rect x="80" y="161.8" class="st1" width="20" height="20"/>
	<rect x="100" y="161.8" class="st1" width="20" height="20"/>
	<rect x="119.9" y="161.8" class="st1" width="20" height="20"/>
	<rect x="140" y="161.8" class="st1" width="20" height="20"/>
	<rect x="160" y="161.8" class="st1" width="20" height="20"/>
	<rect x="180" y="161.8" class="st1" width="20" height="20"/>
	<rect y="181.8" class="st1" width="20" height="20"/>
	<rect x="20" y="181.8" class="st1" width="20" height="20"/>
	<rect x="40" y="181.8" class="st1" width="20" height="20"/>
	<rect x="60" y="181.8" class="st1" width="20" height="20"/>
	<rect x="80" y="181.8" class="st1" width="20" height="20"/>
	<rect x="100" y="181.8" class="st1" width="20" height="20"/>
	<rect x="119.9" y="181.8" class="st1" width="20" height="20"/>
	<rect x="140" y="181.8" class="st1" width="20" height="20"/>
	<rect x="160" y="181.8" class="st1" width="20" height="20"/>
	<rect x="180" y="181.8" class="st1" width="20" height="20"/>
	<rect y="201.8" class="st1" width="20" height="20"/>
	<rect x="20" y="201.8" class="st1" width="20" height="20"/>
	<rect x="40" y="201.8" class="st1" width="20" height="20"/>
	<rect x="60" y="201.8" class="st1" width="20" height="20"/>
	<rect x="80" y="201.8" class="st1" width="20" height="20"/>
	<rect x="100" y="201.8" class="st1" width="20" height="20"/>
	<rect x="119.9" y="201.8" class="st1" width="20" height="20"/>
	<rect x="140" y="201.8" class="st1" width="20" height="20"/>
	<rect x="160" y="201.8" class="st1" width="20" height="20"/>
	<rect x="180" y="201.8" class="st1" width="20" height="20"/>
	<rect y="221.8" class="st1" width="20" height="20"/>
	<rect x="20" y="221.8" class="st1" width="20" height="20"/>
	<rect x="40" y="221.8" class="st1" width="20" height="20"/>
	<rect x="60" y="221.8" class="st1" width="20" height="20"/>
	<rect x="80" y="221.8" class="st1" width="20" height="20"/>
	<rect x="100" y="221.8" class="st1" width="20" height="20"/>
	<rect x="119.9" y="221.8" class="st1" width="20" height="20"/>
	<rect x="140" y="221.8" class="st1" width="20" height="20"/>
	<rect x="160" y="221.8" class="st1" width="20" height="20"/>
	<rect x="180" y="221.8" class="st1" width="20" height="20"/>
	<rect y="241.8" class="st1" width="20" height="20"/>
	<rect x="20" y="241.8" class="st1" width="20" height="20"/>
	<rect x="40" y="241.8" class="st1" width="20" height="20"/>
	<rect x="60" y="241.8" class="st1" width="20" height="20"/>
	<rect x="80" y="241.8" class="st1" width="20" height="20"/>
	<rect x="100" y="241.8" class="st1" width="20" height="20"/>
	<rect x="119.9" y="241.8" class="st1" width="20" height="20"/>
	<rect x="140" y="241.8" class="st1" width="20" height="20"/>
	<rect x="160" y="241.8" class="st1" width="20" height="20"/>
	<rect x="180" y="241.8" class="st1" width="20" height="20"/>
	<rect y="261.8" class="st1" width="20" height="20"/>
	<rect x="20" y="261.8" class="st1" width="20" height="20"/>
	<rect x="40" y="261.8" class="st1" width="20" height="20"/>
	<rect x="60" y="261.8" class="st1" width="20" height="20"/>
	<rect x="80" y="261.8" class="st1" width="20" height="20"/>
	<rect x="100" y="261.8" class="st1" width="20" height="20"/>
	<rect x="119.9" y="261.8" class="st1" width="20" height="20"/>
	<rect x="140" y="261.8" class="st1" width="20" height="20"/>
	<rect x="160" y="261.8" class="st1" width="20" height="20"/>
	<rect x="180" y="261.8" class="st1" width="20" height="20"/>
	<rect y="281.8" class="st1" width="20" height="20"/>
	<rect x="20" y="281.8" class="st1" width="20" height="20"/>
	<rect x="40" y="281.8" class="st1" width="20" height="20"/>
	<rect x="60" y="281.8" class="st1" width="20" height="20"/>
	<rect x="80" y="281.8" class="st1" width="20" height="20"/>
	<rect x="100" y="281.8" class="st1" width="20" height="20"/>
	<rect x="119.9" y="281.8" class="st1" width="20" height="20"/>
	<rect x="140" y="281.8" class="st1" width="20" height="20"/>
	<rect x="160" y="281.8" class="st1" width="20" height="20"/>
	<rect x="180" y="281.8" class="st1" width="20" height="20"/>
	<rect y="301.8" class="st1" width="20" height="20"/>
	<rect x="20" y="301.8" class="st1" width="20" height="20"/>
	<rect x="40" y="301.8" class="st1" width="20" height="20"/>
	<rect x="60" y="301.8" class="st1" width="20" height="20"/>
	<rect x="80" y="301.8" class="st1" width="20" height="20"/>
	<rect x="100" y="301.8" class="st1" width="20" height="20"/>
	<rect x="119.9" y="301.8" class="st1" width="20" height="20"/>
	<rect x="140" y="301.8" class="st1" width="20" height="20"/>
	<rect x="160" y="301.8" class="st1" width="20" height="20"/>
	<rect x="180" y="301.8" class="st1" width="20" height="20"/>
	<rect y="321.8" class="st1" width="20" height="20"/>
	<rect x="20" y="321.8" class="st1" width="20" height="20"/>
	<rect x="40" y="321.8" class="st1" width="20" height="20"/>
	<rect x="60" y="321.8" class="st1" width="20" height="20"/>
	<rect x="80" y="321.8" class="st1" width="20" height="20"/>
	<rect x="100" y="321.8" class="st1" width="20" height="20"/>
	<rect x="119.9" y="321.8" class="st1" width="20" height="20"/>
	<rect x="140" y="321.8" class="st1" width="20" height="20"/>
	<rect x="160" y="321.8" class="st1" width="20" height="20"/>
	<rect x="180" y="321.8" class="st1" width="20" height="20"/>
	<g class="st2">
		<rect x="200" y="141.8" class="st3" width="20" height="20"/>
		<rect x="220" y="141.8" class="st3" width="20" height="20"/>
		<rect x="239.9" y="141.8" class="st3" width="20" height="20"/>
		<rect x="260" y="141.8" class="st3" width="20" height="20"/>
		<rect x="280" y="141.8" class="st3" width="20" height="20"/>
		<rect x="300" y="141.8" class="st3" width="20" height="20"/>
		<rect x="319.9" y="141.8" class="st3" width="20" height="20"/>
		<rect x="339.9" y="141.8" class="st3" width="20" height="20"/>
		<rect x="360" y="141.8" class="st3" width="20" height="20"/>
		<rect x="380" y="141.8" class="st3" width="20" height="20"/>
		<rect x="200" y="161.8" class="st3" width="20" height="20"/>
		<rect x="220" y="161.8" class="st3" width="20" height="20"/>
		<rect x="239.9" y="161.8" class="st3" width="20" height="20"/>
		<rect x="260" y="161.8" class="st3" width="20" height="20"/>
		<rect x="280" y="161.8" class="st3" width="20" height="20"/>
		<rect x="300" y="161.8" class="st3" width="20" height="20"/>
		<rect x="319.9" y="161.8" class="st3" width="20" height="20"/>
		<rect x="339.9" y="161.8" class="st3" width="20" height="20"/>
		<rect x="360" y="161.8" class="st3" width="20" height="20"/>
		<rect x="380" y="161.8" class="st3" width="20" height="20"/>
		<rect x="200" y="181.8" class="st3" width="20" height="20"/>
		<rect x="220" y="181.8" class="st3" width="20" height="20"/>
		<rect x="239.9" y="181.8" class="st3" width="20" height="20"/>
		<rect x="260" y="181.8" class="st3" width="20" height="20"/>
		<rect x="280" y="181.8" class="st3" width="20" height="20"/>
		<rect x="300" y="181.8" class="st3" width="20" height="20"/>
		<rect x="319.9" y="181.8" class="st3" width="20" height="20"/>
		<rect x="339.9" y="181.8" class="st3" width="20" height="20"/>
		<rect x="360" y="181.8" class="st3" width="20" height="20"/>
		<rect x="380" y="181.8" class="st3" width="20" height="20"/>
		<rect x="200" y="201.8" class="st3" width="20" height="20"/>
		<rect x="220" y="201.8" class="st3" width="20" height="20"/>
		<rect x="239.9" y="201.8" class="st3" width="20" height="20"/>
		<rect x="260" y="201.8" class="st3" width="20" height="20"/>
		<rect x="280" y="201.8" class="st3" width="20" height="20"/>
		<rect x="300" y="201.8" class="st3" width="20" height="20"/>
		<rect x="319.9" y="201.8" class="st3" width="20" height="20"/>
		<rect x="339.9" y="201.8" class="st3" width="20" height="20"/>
		<rect x="360" y="201.8" class="st3" width="20" height="20"/>
		<rect x="380" y="201.8" class="st3" width="20" height="20"/>
		<rect x="200" y="221.8" class="st3" width="20" height="20"/>
		<rect x="220" y="221.8" class="st3" width="20" height="20"/>
		<rect x="239.9" y="221.8" class="st3" width="20" height="20"/>
		<rect x="260" y="221.8" class="st3" width="20" height="20"/>
		<rect x="280" y="221.8" class="st3" width="20" height="20"/>
		<rect x="300" y="221.8" class="st3" width="20" height="20"/>
		<rect x="319.9" y="221.8" class="st3" width="20" height="20"/>
		<rect x="339.9" y="221.8" class="st3" width="20" height="20"/>
		<rect x="360" y="221.8" class="st3" width="20" height="20"/>
		<rect x="380" y="221.8" class="st3" width="20" height="20"/>
		<rect x="200" y="241.8" class="st3" width="20" height="20"/>
		<rect x="220" y="241.8" class="st3" width="20" height="20"/>
		<rect x="239.9" y="241.8" class="st3" width="20" height="20"/>
		<rect x="260" y="241.8" class="st3" width="20" height="20"/>
		<rect x="280" y="241.8" class="st3" width="20" height="20"/>
		<rect x="300" y="241.8" class="st3" width="20" height="20"/>
		<rect x="319.9" y="241.8" class="st3" width="20" height="20"/>
		<rect x="339.9" y="241.8" class="st3" width="20" height="20"/>
		<rect x="360" y="241.8" class="st3" width="20" height="20"/>
		<rect x="380" y="241.8" class="st3" width="20" height="20"/>
		<rect x="200" y="261.8" class="st3" width="20" height="20"/>
		<rect x="220" y="261.8" class="st3" width="20" height="20"/>
		<rect x="239.9" y="261.8" class="st3" width="20" height="20"/>
		<rect x="260" y="261.8" class="st3" width="20" height="20"/>
		<rect x="280" y="261.8" class="st3" width="20" height="20"/>
		<rect x="300" y="261.8" class="st3" width="20" height="20"/>
		<rect x="319.9" y="261.8" class="st3" width="20" height="20"/>
		<rect x="339.9" y="261.8" class="st3" width="20" height="20"/>
		<rect x="360" y="261.8" class="st3" width="20" height="20"/>
		<rect x="380" y="261.8" class="st3" width="20" height="20"/>
		<rect x="200" y="281.8" class="st3" width="20" height="20"/>
		<rect x="220" y="281.8" class="st3" width="20" height="20"/>
		<rect x="239.9" y="281.8" class="st3" width="20" height="20"/>
		<rect x="260" y="281.8" class="st3" width="20" height="20"/>
		<rect x="280" y="281.8" class="st3" width="20" height="20"/>
		<rect x="300" y="281.8" class="st3" width="20" height="20"/>
		<rect x="319.9" y="281.8" class="st3" width="20" height="20"/>
		<rect x="339.9" y="281.8" class="st3" width="20" height="20"/>
		<rect x="360" y="281.8" class="st3" width="20" height="20"/>
		<rect x="380" y="281.8" class="st3" width="20" height="20"/>
		<rect x="200" y="301.8" class="st3" width="20" height="20"/>
		<rect x="220" y="301.8" class="st3" width="20" height="20"/>
		<rect x="239.9" y="301.8" class="st3" width="20" height="20"/>
		<rect x="260" y="301.8" class="st3" width="20" height="20"/>
		<rect x="280" y="301.8" class="st3" width="20" height="20"/>
		<rect x="300" y="301.8" class="st3" width="20" height="20"/>
		<rect x="319.9" y="301.8" class="st3" width="20" height="20"/>
		<rect x="339.9" y="301.8" class="st3" width="20" height="20"/>
		<rect x="360" y="301.8" class="st3" width="20" height="20"/>
		<rect x="380" y="301.8" class="st3" width="20" height="20"/>
		<rect x="200" y="321.8" class="st3" width="20" height="20"/>
		<rect x="220" y="321.8" class="st3" width="20" height="20"/>
		<rect x="239.9" y="321.8" class="st3" width="20" height="20"/>
		<rect x="260" y="321.8" class="st3" width="20" height="20"/>
		<rect x="280" y="321.8" class="st3" width="20" height="20"/>
		<rect x="300" y="321.8" class="st3" width="20" height="20"/>
		<rect x="319.9" y="321.8" class="st3" width="20" height="20"/>
		<rect x="339.9" y="321.8" class="st3" width="20" height="20"/>
		<rect x="360" y="321.8" class="st3" width="20" height="20"/>
		<rect x="380" y="321.8" class="st3" width="20" height="20"/>
	</g>
	<g class="st2">
		<rect x="400" y="141.8" class="st3" width="20" height="20"/>
		<rect x="420" y="141.8" class="st3" width="20" height="20"/>
		<rect x="439.9" y="141.8" class="st3" width="20" height="20"/>
		<rect x="459.9" y="141.8" class="st3" width="20" height="20"/>
		<rect x="480" y="141.8" class="st3" width="20" height="20"/>
		<rect x="500" y="141.8" class="st3" width="20" height="20"/>
		<rect x="519.9" y="141.8" class="st3" width="20" height="20"/>
		<rect x="539.9" y="141.8" class="st3" width="20" height="20"/>
		<rect x="559.9" y="141.8" class="st3" width="20" height="20"/>
		<rect x="579.9" y="141.8" class="st3" width="20" height="20"/>
		<rect x="400" y="161.8" class="st3" width="20" height="20"/>
		<rect x="420" y="161.8" class="st3" width="20" height="20"/>
		<rect x="439.9" y="161.8" class="st3" width="20" height="20"/>
		<rect x="459.9" y="161.8" class="st3" width="20" height="20"/>
		<rect x="480" y="161.8" class="st3" width="20" height="20"/>
		<rect x="500" y="161.8" class="st3" width="20" height="20"/>
		<rect x="519.9" y="161.8" class="st3" width="20" height="20"/>
		<rect x="539.9" y="161.8" class="st3" width="20" height="20"/>
		<rect x="559.9" y="161.8" class="st3" width="20" height="20"/>
		<rect x="579.9" y="161.8" class="st3" width="20" height="20"/>
		<rect x="400" y="181.8" class="st3" width="20" height="20"/>
		<rect x="420" y="181.8" class="st3" width="20" height="20"/>
		<rect x="439.9" y="181.8" class="st3" width="20" height="20"/>
		<rect x="459.9" y="181.8" class="st3" width="20" height="20"/>
		<rect x="480" y="181.8" class="st3" width="20" height="20"/>
		<rect x="500" y="181.8" class="st3" width="20" height="20"/>
		<rect x="519.9" y="181.8" class="st3" width="20" height="20"/>
		<rect x="539.9" y="181.8" class="st3" width="20" height="20"/>
		<rect x="559.9" y="181.8" class="st3" width="20" height="20"/>
		<rect x="579.9" y="181.8" class="st3" width="20" height="20"/>
		<rect x="400" y="201.8" class="st3" width="20" height="20"/>
		<rect x="420" y="201.8" class="st3" width="20" height="20"/>
		<rect x="439.9" y="201.8" class="st3" width="20" height="20"/>
		<rect x="459.9" y="201.8" class="st3" width="20" height="20"/>
		<rect x="480" y="201.8" class="st3" width="20" height="20"/>
		<rect x="500" y="201.8" class="st3" width="20" height="20"/>
		<rect x="519.9" y="201.8" class="st3" width="20" height="20"/>
		<rect x="539.9" y="201.8" class="st3" width="20" height="20"/>
		<rect x="559.9" y="201.8" class="st3" width="20" height="20"/>
		<rect x="579.9" y="201.8" class="st3" width="20" height="20"/>
		<rect x="400" y="221.8" class="st3" width="20" height="20"/>
		<rect x="420" y="221.8" class="st3" width="20" height="20"/>
		<rect x="439.9" y="221.8" class="st3" width="20" height="20"/>
		<rect x="459.9" y="221.8" class="st3" width="20" height="20"/>
		<rect x="480" y="221.8" class="st3" width="20" height="20"/>
		<rect x="500" y="221.8" class="st3" width="20" height="20"/>
		<rect x="519.9" y="221.8" class="st3" width="20" height="20"/>
		<rect x="539.9" y="221.8" class="st3" width="20" height="20"/>
		<rect x="559.9" y="221.8" class="st3" width="20" height="20"/>
		<rect x="579.9" y="221.8" class="st3" width="20" height="20"/>
		<rect x="400" y="241.8" class="st3" width="20" height="20"/>
		<rect x="420" y="241.8" class="st3" width="20" height="20"/>
		<rect x="439.9" y="241.8" class="st3" width="20" height="20"/>
		<rect x="459.9" y="241.8" class="st3" width="20" height="20"/>
		<rect x="480" y="241.8" class="st3" width="20" height="20"/>
		<rect x="500" y="241.8" class="st3" width="20" height="20"/>
		<rect x="519.9" y="241.8" class="st3" width="20" height="20"/>
		<rect x="539.9" y="241.8" class="st3" width="20" height="20"/>
		<rect x="559.9" y="241.8" class="st3" width="20" height="20"/>
		<rect x="579.9" y="241.8" class="st3" width="20" height="20"/>
		<rect x="400" y="261.8" class="st3" width="20" height="20"/>
		<rect x="420" y="261.8" class="st3" width="20" height="20"/>
		<rect x="439.9" y="261.8" class="st3" width="20" height="20"/>
		<rect x="459.9" y="261.8" class="st3" width="20" height="20"/>
		<rect x="480" y="261.8" class="st3" width="20" height="20"/>
		<rect x="500" y="261.8" class="st3" width="20" height="20"/>
		<rect x="519.9" y="261.8" class="st3" width="20" height="20"/>
		<rect x="539.9" y="261.8" class="st3" width="20" height="20"/>
		<rect x="559.9" y="261.8" class="st3" width="20" height="20"/>
		<rect x="579.9" y="261.8" class="st3" width="20" height="20"/>
		<rect x="400" y="281.8" class="st3" width="20" height="20"/>
		<rect x="420" y="281.8" class="st3" width="20" height="20"/>
		<rect x="439.9" y="281.8" class="st3" width="20" height="20"/>
		<rect x="459.9" y="281.8" class="st3" width="20" height="20"/>
		<rect x="480" y="281.8" class="st3" width="20" height="20"/>
		<rect x="500" y="281.8" class="st3" width="20" height="20"/>
		<rect x="519.9" y="281.8" class="st3" width="20" height="20"/>
		<rect x="539.9" y="281.8" class="st3" width="20" height="20"/>
		<rect x="559.9" y="281.8" class="st3" width="20" height="20"/>
		<rect x="579.9" y="281.8" class="st3" width="20" height="20"/>
		<rect x="400" y="301.8" class="st3" width="20" height="20"/>
		<rect x="420" y="301.8" class="st3" width="20" height="20"/>
		<rect x="439.9" y="301.8" class="st3" width="20" height="20"/>
		<rect x="459.9" y="301.8" class="st3" width="20" height="20"/>
		<rect x="480" y="301.8" class="st3" width="20" height="20"/>
		<rect x="500" y="301.8" class="st3" width="20" height="20"/>
		<rect x="519.9" y="301.8" class="st3" width="20" height="20"/>
		<rect x="539.9" y="301.8" class="st3" width="20" height="20"/>
		<rect x="559.9" y="301.8" class="st3" width="20" height="20"/>
		<rect x="579.9" y="301.8" class="st3" width="20" height="20"/>
		<rect x="400" y="321.8" class="st3" width="20" height="20"/>
		<rect x="420" y="321.8" class="st3" width="20" height="20"/>
		<rect x="439.9" y="321.8" class="st3" width="20" height="20"/>
		<rect x="459.9" y="321.8" class="st3" width="20" height="20"/>
		<rect x="480" y="321.8" class="st3" width="20" height="20"/>
		<rect x="500" y="321.8" class="st3" width="20" height="20"/>
		<rect x="519.9" y="321.8" class="st3" width="20" height="20"/>
		<rect x="539.9" y="321.8" class="st3" width="20" height="20"/>
		<rect x="559.9" y="321.8" class="st3" width="20" height="20"/>
		<rect x="579.9" y="321.8" class="st3" width="20" height="20"/>
	</g>
	<g class="st2">
		<rect x="599.9" y="141.8" class="st3" width="20" height="20"/>
		<rect x="619.9" y="141.8" class="st3" width="20" height="20"/>
		<rect x="639.9" y="141.8" class="st3" width="20" height="20"/>
		<rect x="659.9" y="141.8" class="st3" width="20" height="20"/>
		<rect x="679.9" y="141.8" class="st3" width="20" height="20"/>
		<rect x="699.9" y="141.8" class="st3" width="20" height="20"/>
		<rect x="719.9" y="141.8" class="st3" width="20" height="20"/>
		<rect x="739.9" y="141.8" class="st3" width="20" height="20"/>
		<rect x="759.9" y="141.8" class="st3" width="20" height="20"/>
		<rect x="779.9" y="141.8" class="st3" width="20" height="20"/>
		<rect x="599.9" y="161.8" class="st3" width="20" height="20"/>
		<rect x="619.9" y="161.8" class="st3" width="20" height="20"/>
		<rect x="639.9" y="161.8" class="st3" width="20" height="20"/>
		<rect x="659.9" y="161.8" class="st3" width="20" height="20"/>
		<rect x="679.9" y="161.8" class="st3" width="20" height="20"/>
		<rect x="699.9" y="161.8" class="st3" width="20" height="20"/>
		<rect x="719.9" y="161.8" class="st3" width="20" height="20"/>
		<rect x="739.9" y="161.8" class="st3" width="20" height="20"/>
		<rect x="759.9" y="161.8" class="st3" width="20" height="20"/>
		<rect x="779.9" y="161.8" class="st3" width="20" height="20"/>
		<rect x="599.9" y="181.8" class="st3" width="20" height="20"/>
		<rect x="619.9" y="181.8" class="st3" width="20" height="20"/>
		<rect x="639.9" y="181.8" class="st3" width="20" height="20"/>
		<rect x="659.9" y="181.8" class="st3" width="20" height="20"/>
		<rect x="679.9" y="181.8" class="st3" width="20" height="20"/>
		<rect x="699.9" y="181.8" class="st3" width="20" height="20"/>
		<rect x="719.9" y="181.8" class="st3" width="20" height="20"/>
		<rect x="739.9" y="181.8" class="st3" width="20" height="20"/>
		<rect x="759.9" y="181.8" class="st3" width="20" height="20"/>
		<rect x="779.9" y="181.8" class="st3" width="20" height="20"/>
		<rect x="599.9" y="201.8" class="st3" width="20" height="20"/>
		<rect x="619.9" y="201.8" class="st3" width="20" height="20"/>
		<rect x="639.9" y="201.8" class="st3" width="20" height="20"/>
		<rect x="659.9" y="201.8" class="st3" width="20" height="20"/>
		<rect x="679.9" y="201.8" class="st3" width="20" height="20"/>
		<rect x="699.9" y="201.8" class="st3" width="20" height="20"/>
		<rect x="719.9" y="201.8" class="st3" width="20" height="20"/>
		<rect x="739.9" y="201.8" class="st3" width="20" height="20"/>
		<rect x="759.9" y="201.8" class="st3" width="20" height="20"/>
		<rect x="779.9" y="201.8" class="st3" width="20" height="20"/>
		<rect x="599.9" y="221.8" class="st3" width="20" height="20"/>
		<rect x="619.9" y="221.8" class="st3" width="20" height="20"/>
		<rect x="639.9" y="221.8" class="st3" width="20" height="20"/>
		<rect x="659.9" y="221.8" class="st3" width="20" height="20"/>
		<rect x="679.9" y="221.8" class="st3" width="20" height="20"/>
		<rect x="699.9" y="221.8" class="st3" width="20" height="20"/>
		<rect x="719.9" y="221.8" class="st3" width="20" height="20"/>
		<rect x="739.9" y="221.8" class="st3" width="20" height="20"/>
		<rect x="759.9" y="221.8" class="st3" width="20" height="20"/>
		<rect x="779.9" y="221.8" class="st3" width="20" height="20"/>
		<rect x="599.9" y="241.8" class="st3" width="20" height="20"/>
		<rect x="619.9" y="241.8" class="st3" width="20" height="20"/>
		<rect x="639.9" y="241.8" class="st3" width="20" height="20"/>
		<rect x="659.9" y="241.8" class="st3" width="20" height="20"/>
		<rect x="679.9" y="241.8" class="st3" width="20" height="20"/>
		<rect x="699.9" y="241.8" class="st3" width="20" height="20"/>
		<rect x="719.9" y="241.8" class="st3" width="20" height="20"/>
		<rect x="739.9" y="241.8" class="st3" width="20" height="20"/>
		<rect x="759.9" y="241.8" class="st3" width="20" height="20"/>
		<rect x="779.9" y="241.8" class="st3" width="20" height="20"/>
		<rect x="599.9" y="261.8" class="st3" width="20" height="20"/>
		<rect x="619.9" y="261.8" class="st3" width="20" height="20"/>
		<rect x="639.9" y="261.8" class="st3" width="20" height="20"/>
		<rect x="659.9" y="261.8" class="st3" width="20" height="20"/>
		<rect x="679.9" y="261.8" class="st3" width="20" height="20"/>
		<rect x="699.9" y="261.8" class="st3" width="20" height="20"/>
		<rect x="719.9" y="261.8" class="st3" width="20" height="20"/>
		<rect x="739.9" y="261.8" class="st3" width="20" height="20"/>
		<rect x="759.9" y="261.8" class="st3" width="20" height="20"/>
		<rect x="779.9" y="261.8" class="st3" width="20" height="20"/>
		<rect x="599.9" y="281.8" class="st3" width="20" height="20"/>
		<rect x="619.9" y="281.8" class="st3" width="20" height="20"/>
		<rect x="639.9" y="281.8" class="st3" width="20" height="20"/>
		<rect x="659.9" y="281.8" class="st3" width="20" height="20"/>
		<rect x="679.9" y="281.8" class="st3" width="20" height="20"/>
		<rect x="699.9" y="281.8" class="st3" width="20" height="20"/>
		<rect x="719.9" y="281.8" class="st3" width="20" height="20"/>
		<rect x="739.9" y="281.8" class="st3" width="20" height="20"/>
		<rect x="759.9" y="281.8" class="st3" width="20" height="20"/>
		<rect x="779.9" y="281.8" class="st3" width="20" height="20"/>
		<rect x="599.9" y="301.8" class="st3" width="20" height="20"/>
		<rect x="619.9" y="301.8" class="st3" width="20" height="20"/>
		<rect x="639.9" y="301.8" class="st3" width="20" height="20"/>
		<rect x="659.9" y="301.8" class="st3" width="20" height="20"/>
		<rect x="679.9" y="301.8" class="st3" width="20" height="20"/>
		<rect x="699.9" y="301.8" class="st3" width="20" height="20"/>
		<rect x="719.9" y="301.8" class="st3" width="20" height="20"/>
		<rect x="739.9" y="301.8" class="st3" width="20" height="20"/>
		<rect x="759.9" y="301.8" class="st3" width="20" height="20"/>
		<rect x="779.9" y="301.8" class="st3" width="20" height="20"/>
		<rect x="599.9" y="321.8" class="st3" width="20" height="20"/>
		<rect x="619.9" y="321.8" class="st3" width="20" height="20"/>
		<rect x="639.9" y="321.8" class="st3" width="20" height="20"/>
		<rect x="659.9" y="321.8" class="st3" width="20" height="20"/>
		<rect x="679.9" y="321.8" class="st3" width="20" height="20"/>
		<rect x="699.9" y="321.8" class="st3" width="20" height="20"/>
		<rect x="719.9" y="321.8" class="st3" width="20" height="20"/>
		<rect x="739.9" y="321.8" class="st3" width="20" height="20"/>
		<rect x="759.9" y="321.8" class="st3" width="20" height="20"/>
		<rect x="779.9" y="321.8" class="st3" width="20" height="20"/>
	</g>
	<g class="st2">
		<rect x="799.8" y="141.8" class="st3" width="20" height="20"/>
		<rect x="819.8" y="141.8" class="st3" width="20" height="20"/>
		<rect x="839.8" y="141.8" class="st3" width="20" height="20"/>
		<rect x="859.8" y="141.8" class="st3" width="20" height="20"/>
		<rect x="879.8" y="141.8" class="st3" width="20" height="20"/>
		<rect x="899.8" y="141.8" class="st3" width="20" height="20"/>
		<rect x="919.8" y="141.8" class="st3" width="20" height="20"/>
		<rect x="939.8" y="141.8" class="st3" width="20" height="20"/>
		<rect x="959.8" y="141.8" class="st3" width="20" height="20"/>
		<rect x="979.8" y="141.8" class="st3" width="20" height="20"/>
		<rect x="799.8" y="161.8" class="st3" width="20" height="20"/>
		<rect x="819.8" y="161.8" class="st3" width="20" height="20"/>
		<rect x="839.8" y="161.8" class="st3" width="20" height="20"/>
		<rect x="859.8" y="161.8" class="st3" width="20" height="20"/>
		<rect x="879.8" y="161.8" class="st3" width="20" height="20"/>
		<rect x="899.8" y="161.8" class="st3" width="20" height="20"/>
		<rect x="919.8" y="161.8" class="st3" width="20" height="20"/>
		<rect x="939.8" y="161.8" class="st3" width="20" height="20"/>
		<rect x="959.8" y="161.8" class="st3" width="20" height="20"/>
		<rect x="979.8" y="161.8" class="st3" width="20" height="20"/>
		<rect x="799.8" y="181.8" class="st3" width="20" height="20"/>
		<rect x="819.8" y="181.8" class="st3" width="20" height="20"/>
		<rect x="839.8" y="181.8" class="st3" width="20" height="20"/>
		<rect x="859.8" y="181.8" class="st3" width="20" height="20"/>
		<rect x="879.8" y="181.8" class="st3" width="20" height="20"/>
		<rect x="899.8" y="181.8" class="st3" width="20" height="20"/>
		<rect x="919.8" y="181.8" class="st3" width="20" height="20"/>
		<rect x="939.8" y="181.8" class="st3" width="20" height="20"/>
		<rect x="959.8" y="181.8" class="st3" width="20" height="20"/>
		<rect x="979.8" y="181.8" class="st3" width="20" height="20"/>
		<rect x="799.8" y="201.8" class="st3" width="20" height="20"/>
		<rect x="819.8" y="201.8" class="st3" width="20" height="20"/>
		<rect x="839.8" y="201.8" class="st3" width="20" height="20"/>
		<rect x="859.8" y="201.8" class="st3" width="20" height="20"/>
		<rect x="879.8" y="201.8" class="st3" width="20" height="20"/>
		<rect x="899.8" y="201.8" class="st3" width="20" height="20"/>
		<rect x="919.8" y="201.8" class="st3" width="20" height="20"/>
		<rect x="939.8" y="201.8" class="st3" width="20" height="20"/>
		<rect x="959.8" y="201.8" class="st3" width="20" height="20"/>
		<rect x="979.8" y="201.8" class="st3" width="20" height="20"/>
		<rect x="799.8" y="221.8" class="st3" width="20" height="20"/>
		<rect x="819.8" y="221.8" class="st3" width="20" height="20"/>
		<rect x="839.8" y="221.8" class="st3" width="20" height="20"/>
		<rect x="859.8" y="221.8" class="st3" width="20" height="20"/>
		<rect x="879.8" y="221.8" class="st3" width="20" height="20"/>
		<rect x="899.8" y="221.8" class="st3" width="20" height="20"/>
		<rect x="919.8" y="221.8" class="st3" width="20" height="20"/>
		<rect x="939.8" y="221.8" class="st3" width="20" height="20"/>
		<rect x="959.8" y="221.8" class="st3" width="20" height="20"/>
		<rect x="979.8" y="221.8" class="st3" width="20" height="20"/>
		<rect x="799.8" y="241.8" class="st3" width="20" height="20"/>
		<rect x="819.8" y="241.8" class="st3" width="20" height="20"/>
		<rect x="839.8" y="241.8" class="st3" width="20" height="20"/>
		<rect x="859.8" y="241.8" class="st3" width="20" height="20"/>
		<rect x="879.8" y="241.8" class="st3" width="20" height="20"/>
		<rect x="899.8" y="241.8" class="st3" width="20" height="20"/>
		<rect x="919.8" y="241.8" class="st3" width="20" height="20"/>
		<rect x="939.8" y="241.8" class="st3" width="20" height="20"/>
		<rect x="959.8" y="241.8" class="st3" width="20" height="20"/>
		<rect x="979.8" y="241.8" class="st3" width="20" height="20"/>
		<rect x="799.8" y="261.8" class="st3" width="20" height="20"/>
		<rect x="819.8" y="261.8" class="st3" width="20" height="20"/>
		<rect x="839.8" y="261.8" class="st3" width="20" height="20"/>
		<rect x="859.8" y="261.8" class="st3" width="20" height="20"/>
		<rect x="879.8" y="261.8" class="st3" width="20" height="20"/>
		<rect x="899.8" y="261.8" class="st3" width="20" height="20"/>
		<rect x="919.8" y="261.8" class="st3" width="20" height="20"/>
		<rect x="939.8" y="261.8" class="st3" width="20" height="20"/>
		<rect x="959.8" y="261.8" class="st3" width="20" height="20"/>
		<rect x="979.8" y="261.8" class="st3" width="20" height="20"/>
		<rect x="799.8" y="281.8" class="st3" width="20" height="20"/>
		<rect x="819.8" y="281.8" class="st3" width="20" height="20"/>
		<rect x="839.8" y="281.8" class="st3" width="20" height="20"/>
		<rect x="859.8" y="281.8" class="st3" width="20" height="20"/>
		<rect x="879.8" y="281.8" class="st3" width="20" height="20"/>
		<rect x="899.8" y="281.8" class="st3" width="20" height="20"/>
		<rect x="919.8" y="281.8" class="st3" width="20" height="20"/>
		<rect x="939.8" y="281.8" class="st3" width="20" height="20"/>
		<rect x="959.8" y="281.8" class="st3" width="20" height="20"/>
		<rect x="979.8" y="281.8" class="st3" width="20" height="20"/>
		<rect x="799.8" y="301.8" class="st3" width="20" height="20"/>
		<rect x="819.8" y="301.8" class="st3" width="20" height="20"/>
		<rect x="839.8" y="301.8" class="st3" width="20" height="20"/>
		<rect x="859.8" y="301.8" class="st3" width="20" height="20"/>
		<rect x="879.8" y="301.8" class="st3" width="20" height="20"/>
		<rect x="899.8" y="301.8" class="st3" width="20" height="20"/>
		<rect x="919.8" y="301.8" class="st3" width="20" height="20"/>
		<rect x="939.8" y="301.8" class="st3" width="20" height="20"/>
		<rect x="959.8" y="301.8" class="st3" width="20" height="20"/>
		<rect x="979.8" y="301.8" class="st3" width="20" height="20"/>
		<rect x="799.8" y="321.8" class="st3" width="20" height="20"/>
		<rect x="819.8" y="321.8" class="st3" width="20" height="20"/>
		<rect x="839.8" y="321.8" class="st3" width="20" height="20"/>
		<rect x="859.8" y="321.8" class="st3" width="20" height="20"/>
		<rect x="879.8" y="321.8" class="st3" width="20" height="20"/>
		<rect x="899.8" y="321.8" class="st3" width="20" height="20"/>
		<rect x="919.8" y="321.8" class="st3" width="20" height="20"/>
		<rect x="939.8" y="321.8" class="st3" width="20" height="20"/>
		<rect x="959.8" y="321.8" class="st3" width="20" height="20"/>
		<rect x="979.8" y="321.8" class="st3" width="20" height="20"/>
	</g>
	<rect y="341.8" class="st1" width="20" height="20"/>
	<rect x="20" y="341.8" class="st1" width="20" height="20"/>
	<rect x="40" y="341.8" class="st1" width="20" height="20"/>
	<rect x="60" y="341.8" class="st1" width="20" height="20"/>
	<rect x="80" y="341.8" class="st1" width="20" height="20"/>
	<rect x="100" y="341.8" class="st1" width="20" height="20"/>
	<rect x="119.9" y="341.8" class="st1" width="20" height="20"/>
	<rect x="140" y="341.8" class="st1" width="20" height="20"/>
	<rect x="160" y="341.8" class="st1" width="20" height="20"/>
	<rect x="180" y="341.8" class="st1" width="20" height="20"/>
	<rect y="361.8" class="st1" width="20" height="20"/>
	<rect x="20" y="361.8" class="st1" width="20" height="20"/>
	<rect x="40" y="361.8" class="st1" width="20" height="20"/>
	<rect x="60" y="361.8" class="st1" width="20" height="20"/>
	<rect x="80" y="361.8" class="st1" width="20" height="20"/>
	<rect x="100" y="361.8" class="st1" width="20" height="20"/>
	<rect x="119.9" y="361.8" class="st1" width="20" height="20"/>
	<rect x="140" y="361.8" class="st1" width="20" height="20"/>
	<rect x="160" y="361.8" class="st1" width="20" height="20"/>
	<rect x="180" y="361.8" class="st1" width="20" height="20"/>
	<rect x="200" y="341.8" class="st1" width="20" height="20"/>
	<rect x="220" y="341.8" class="st1" width="20" height="20"/>
	<rect x="239.9" y="341.8" class="st1" width="20" height="20"/>
	<rect x="260" y="341.8" class="st1" width="20" height="20"/>
	<rect x="280" y="341.8" class="st1" width="20" height="20"/>
	<rect x="300" y="341.8" class="st1" width="20" height="20"/>
	<rect x="319.9" y="341.8" class="st1" width="20" height="20"/>
	<rect x="339.9" y="341.8" class="st1" width="20" height="20"/>
	<rect x="360" y="341.8" class="st1" width="20" height="20"/>
	<rect x="380" y="341.8" class="st1" width="20" height="20"/>
	<rect x="200" y="361.8" class="st1" width="20" height="20"/>
	<rect x="220" y="361.8" class="st1" width="20" height="20"/>
	<rect x="239.9" y="361.8" class="st1" width="20" height="20"/>
	<rect x="260" y="361.8" class="st1" width="20" height="20"/>
	<rect x="280" y="361.8" class="st1" width="20" height="20"/>
	<rect x="300" y="361.8" class="st1" width="20" height="20"/>
	<rect x="319.9" y="361.8" class="st1" width="20" height="20"/>
	<rect x="339.9" y="361.8" class="st1" width="20" height="20"/>
	<rect x="360" y="361.8" class="st1" width="20" height="20"/>
	<rect x="380" y="361.8" class="st1" width="20" height="20"/>
	<rect y="381.8" class="st1" width="20" height="20"/>
	<rect x="20" y="381.8" class="st1" width="20" height="20"/>
	<rect x="40" y="381.8" class="st1" width="20" height="20"/>
	<rect x="60" y="381.8" class="st1" width="20" height="20"/>
	<rect x="80" y="381.8" class="st1" width="20" height="20"/>
	<rect x="100" y="381.8" class="st1" width="20" height="20"/>
	<rect x="119.9" y="381.8" class="st1" width="20" height="20"/>
	<rect x="140" y="381.8" class="st1" width="20" height="20"/>
	<rect x="160" y="381.8" class="st1" width="20" height="20"/>
	<rect x="180" y="381.8" class="st1" width="20" height="20"/>
	<rect x="200" y="381.8" class="st1" width="20" height="20"/>
	<rect x="220" y="381.8" class="st1" width="20" height="20"/>
	<rect x="239.9" y="381.8" class="st1" width="20" height="20"/>
	<rect x="260" y="381.8" class="st1" width="20" height="20"/>
	<rect x="280" y="381.8" class="st1" width="20" height="20"/>
	<rect x="300" y="381.8" class="st1" width="20" height="20"/>
	<rect x="319.9" y="381.8" class="st1" width="20" height="20"/>
	<rect x="339.9" y="381.8" class="st1" width="20" height="20"/>
	<rect x="360" y="381.8" class="st1" width="20" height="20"/>
	<rect x="380" y="381.8" class="st1" width="20" height="20"/>
	<rect x="400" y="341.8" class="st1" width="20" height="20"/>
	<rect x="420" y="341.8" class="st1" width="20" height="20"/>
	<rect x="439.9" y="341.8" class="st1" width="20" height="20"/>
	<rect x="459.9" y="341.8" class="st1" width="20" height="20"/>
	<rect x="480" y="341.8" class="st1" width="20" height="20"/>
	<rect x="500" y="341.8" class="st1" width="20" height="20"/>
	<rect x="519.9" y="341.8" class="st1" width="20" height="20"/>
	<rect x="539.9" y="341.8" class="st1" width="20" height="20"/>
	<rect x="559.9" y="341.8" class="st1" width="20" height="20"/>
	<rect x="579.9" y="341.8" class="st1" width="20" height="20"/>
	<rect x="400" y="361.8" class="st1" width="20" height="20"/>
	<rect x="420" y="361.8" class="st1" width="20" height="20"/>
	<rect x="439.9" y="361.8" class="st1" width="20" height="20"/>
	<rect x="459.9" y="361.8" class="st1" width="20" height="20"/>
	<rect x="480" y="361.8" class="st1" width="20" height="20"/>
	<rect x="500" y="361.8" class="st1" width="20" height="20"/>
	<rect x="519.9" y="361.8" class="st1" width="20" height="20"/>
	<rect x="539.9" y="361.8" class="st1" width="20" height="20"/>
	<rect x="559.9" y="361.8" class="st1" width="20" height="20"/>
	<rect x="579.9" y="361.8" class="st1" width="20" height="20"/>
	<rect x="599.9" y="341.8" class="st1" width="20" height="20"/>
	<rect x="619.9" y="341.8" class="st1" width="20" height="20"/>
	<rect x="639.9" y="341.8" class="st1" width="20" height="20"/>
	<rect x="659.9" y="341.8" class="st1" width="20" height="20"/>
	<rect x="679.9" y="341.8" class="st1" width="20" height="20"/>
	<rect x="699.9" y="341.8" class="st1" width="20" height="20"/>
	<rect x="719.9" y="341.8" class="st1" width="20" height="20"/>
	<rect x="739.9" y="341.8" class="st1" width="20" height="20"/>
	<rect x="759.9" y="341.8" class="st1" width="20" height="20"/>
	<rect x="779.9" y="341.8" class="st1" width="20" height="20"/>
	<rect x="599.9" y="361.8" class="st1" width="20" height="20"/>
	<rect x="619.9" y="361.8" class="st1" width="20" height="20"/>
	<rect x="639.9" y="361.8" class="st1" width="20" height="20"/>
	<rect x="659.9" y="361.8" class="st1" width="20" height="20"/>
	<rect x="679.9" y="361.8" class="st1" width="20" height="20"/>
	<rect x="699.9" y="361.8" class="st1" width="20" height="20"/>
	<rect x="719.9" y="361.8" class="st1" width="20" height="20"/>
	<rect x="739.9" y="361.8" class="st1" width="20" height="20"/>
	<rect x="759.9" y="361.8" class="st1" width="20" height="20"/>
	<rect x="779.9" y="361.8" class="st1" width="20" height="20"/>
	<rect x="400" y="381.8" class="st1" width="20" height="20"/>
	<rect x="420" y="381.8" class="st1" width="20" height="20"/>
	<rect x="439.9" y="381.8" class="st1" width="20" height="20"/>
	<rect x="459.9" y="381.8" class="st1" width="20" height="20"/>
	<rect x="480" y="381.8" class="st1" width="20" height="20"/>
	<rect x="500" y="381.8" class="st1" width="20" height="20"/>
	<rect x="519.9" y="381.8" class="st1" width="20" height="20"/>
	<rect x="539.9" y="381.8" class="st1" width="20" height="20"/>
	<rect x="559.9" y="381.8" class="st1" width="20" height="20"/>
	<rect x="579.9" y="381.8" class="st1" width="20" height="20"/>
	<rect x="599.9" y="381.8" class="st1" width="20" height="20"/>
	<rect x="619.9" y="381.8" class="st1" width="20" height="20"/>
	<rect x="639.9" y="381.8" class="st1" width="20" height="20"/>
	<rect x="659.9" y="381.8" class="st1" width="20" height="20"/>
	<rect x="679.9" y="381.8" class="st1" width="20" height="20"/>
	<rect x="699.9" y="381.8" class="st1" width="20" height="20"/>
	<rect x="719.9" y="381.8" class="st1" width="20" height="20"/>
	<rect x="739.9" y="381.8" class="st1" width="20" height="20"/>
	<rect x="759.9" y="381.8" class="st1" width="20" height="20"/>
	<rect x="779.9" y="381.8" class="st1" width="20" height="20"/>
	<rect x="799.9" y="341.8" class="st1" width="20" height="20"/>
	<rect x="819.9" y="341.8" class="st1" width="20" height="20"/>
	<rect x="839.9" y="341.8" class="st1" width="20" height="20"/>
	<rect x="859.9" y="341.8" class="st1" width="20" height="20"/>
	<rect x="879.9" y="341.8" class="st1" width="20" height="20"/>
	<rect x="899.9" y="341.8" class="st1" width="20" height="20"/>
	<rect x="919.9" y="341.8" class="st1" width="20" height="20"/>
	<rect x="939.9" y="341.8" class="st1" width="20" height="20"/>
	<rect x="959.9" y="341.8" class="st1" width="20" height="20"/>
	<rect x="979.9" y="341.8" class="st1" width="20" height="20"/>
	<rect x="799.9" y="361.8" class="st1" width="20" height="20"/>
	<rect x="819.9" y="361.8" class="st1" width="20" height="20"/>
	<rect x="839.9" y="361.8" class="st1" width="20" height="20"/>
	<rect x="859.9" y="361.8" class="st1" width="20" height="20"/>
	<rect x="879.9" y="361.8" class="st1" width="20" height="20"/>
	<rect x="899.9" y="361.8" class="st1" width="20" height="20"/>
	<rect x="919.9" y="361.8" class="st1" width="20" height="20"/>
	<rect x="939.9" y="361.8" class="st1" width="20" height="20"/>
	<rect x="959.9" y="361.8" class="st1" width="20" height="20"/>
	<rect x="979.9" y="361.8" class="st1" width="20" height="20"/>
	<rect x="799.9" y="381.8" class="st1" width="20" height="20"/>
	<rect x="819.9" y="381.8" class="st1" width="20" height="20"/>
	<rect x="839.9" y="381.8" class="st1" width="20" height="20"/>
	<rect x="859.9" y="381.8" class="st1" width="20" height="20"/>
	<rect x="879.9" y="381.8" class="st1" width="20" height="20"/>
	<rect x="899.9" y="381.8" class="st1" width="20" height="20"/>
	<rect x="919.9" y="381.8" class="st1" width="20" height="20"/>
	<rect x="939.9" y="381.8" class="st1" width="20" height="20"/>
	<rect x="959.9" y="381.8" class="st1" width="20" height="20"/>
	<rect x="979.9" y="381.8" class="st1" width="20" height="20"/>
</g>
<path class="st4" d="M530.4,249h-60.7c-2.6,0-4.9-2.2-4.9-4.9v-60.7c0-2.6,2.2-4.9,4.9-4.9h60.7c2.6,0,4.9,2.2,4.9,4.9v60.7
	C535.2,246.8,533,249,530.4,249z"/>
<g>
	<g>
		<path class="st5" d="M529,334.2h-60.7c-2.6,0-4.9-2.2-4.9-4.9v-60.7c0-2.6,2.2-4.9,4.9-4.9H529c2.6,0,4.9,2.2,4.9,4.9v60.7
			C533.8,332,531.7,334.2,529,334.2z"/>
	</g>
</g>
<g>
	<path class="st4" d="M320.3,230.3c0,0,2.3,6.4,0.9,7.7c-1.4,1.4-5.7,1.4-7.6,0s-10.7-9.6-10.7-9.6s-24.1-16.3-40.7-13.6
		c-16.4,2.8-40.2,5-42.1,56.7l9.2,44.7l1.4,21.9l-4.1,16.4l-7.6,12l-13,7.1c0,0-31.5,15.1-53.4-10.9l5.5-1.4c0,0,5.5,2.8,16.4,0
		c10.9-2.8,12.4-6.9,12.4-6.9l5-6.9l3.2-9.6l1.4-12.4l-4.1-15.1l-8.1-17.1l-3.1-30.8l0.3-24.8c0,0,2-13.9,5-19.3
		c3.1-5.4,12.7-24.5,31.9-36.9c19.2-12.4,47.5-13,55.2-10.6c7.8,2.3,20,1,40.7,18.8c20.6,17.8,24.7,27.4,24.7,27.4v5.4l-2.8,2.8H332
		h-2.8l-1.1,3.2l-1.6,3.7h-2.8L320.3,230.3z"/>
	<path class="st6" d="M273.4,228.4c-0.2-1-1.7-0.9-1.6,0.2c0.4,10.5,1.4,26.5,4.4,32.7c4.7,9.6,22.2,24.7,22.2,32.9
		c0,8.2-10.5,24.7-19.9,19.2c-9.4-5.5-7.6-7.7-9.3-6.9c-2.8,1.4,3.5,12,13.5,12.2c9.9,0.1,20.5-16.3,19.3-25.8s-22.4-28.8-23.4-35.6
		C277.8,252,275.2,238,273.4,228.4z"/>
	<path class="st6" d="M338.1,213.3c-15.8-25.7-43-44.8-76.4-44.8c-22.3,0-44,9.1-59.5,25c-15.3,15.6-23.4,36-22.9,57.5v0.2
		c0.3,14.5,0.8,36.4,11.1,58.2c7.1,14.9,7.1,35.9-6.9,46.9c-10,7.9-23.5,6.7-36.3-3.4l-4.9-3.9l2.9,5.6c0.1,0.3,12.9,24.5,40.3,24.5
		c5.7,0,12-1.1,19.1-3.7c36.1-13.1,28.1-50.8,21.7-81.2c-2.2-10.6-4.4-20.6-4.4-28.3c0-31.3,14.9-49.3,41.1-49.3
		c27,0,43.1,16.2,44.1,17.3c0.8,1.1,7.6,10.1,14.1,5.7c0.9-0.6,1.5-1.5,1.7-2.6c0.2-1.1,0-2.5-0.4-3.8c0.8,0.4,1.5,0.6,2.2,0.8
		c1.4,0.2,2.6-0.3,3.7-1.3c1.7-1.7,2.1-3.6,1.8-5.4c1.1,0.6,2.4,1.1,3.7,1.1c1.8,0.1,3.3-0.6,4.7-1.9
		C343.1,222.2,340,216.3,338.1,213.3z M320.2,236.7c-0.1,0.5-0.3,0.8-0.5,0.9c-4.5,3-10.4-5-10.5-5.1l-0.1-0.1
		c-0.7-0.8-17.2-18.2-46.2-18.2c-27.9,0-43.8,19-43.8,52.1c0,8,2.1,18.2,4.4,28.8c6.5,30.8,13.9,65.8-19.9,78.1
		c-24.3,8.8-40.2-0.9-48.5-9.5c10.5,8.5,19.9,11.1,27.4,11.1c6.1,0,11.1-1.8,14.6-3.6c15.4-8.1,25.4-29.5,22.1-47.7
		c-1.5-8-4.1-16.6-6.7-25.1c-3.6-11.5-6.9-22.5-6.9-30.8c0.1-32.1,14.3-66.5,54.2-66.5c26.9,0,44.8,8.8,57.9,28.2
		C319.2,231.9,320.6,235,320.2,236.7z M326.4,230.9c-0.4,0.4-0.8,0.6-1.4,0.5c-1.8-0.2-4.3-2.8-6.1-5c-0.8-1.1-1.3-1.8-1.5-2.1
		l-0.1,0.1c-13.4-17.9-31.3-25.9-57.7-25.9c-18.5,0-33.5,7.4-43.5,21.2c-8.8,12.2-13.4,28.7-13.4,47.9c0,8.8,3.5,19.9,7.1,31.6
		c2.6,8.3,5.2,17,6.6,24.8c3.1,17.1-6.2,37.2-20.7,44.8c-9.1,4.7-19.2,4.3-29.5-1.1c3.7,1.2,6.9,1.6,9.9,1.6c5.5,0,9.9-1.6,13.2-3.7
		c12.2-7.5,18.7-26.7,15.3-45.6c-1.1-6.4-3.2-13.1-5.4-20c-4.3-13.9-8.7-28.2-6.9-42.5c8-64.1,49.6-72.3,67.1-72.8
		c24-0.8,44.6,12.6,57.6,27.4l7.7,11.1c0.1,0.1,0.3,0.3,0.6,0.6C326.6,225.1,328.9,228.4,326.4,230.9z M336.6,224.7
		c-0.8,0.8-1.6,1.1-2.6,1.1c-2.3-0.1-5-2.3-6.4-3.8c-0.3-0.3-0.5-0.6-0.7-0.8l-3.2-4.1c-1.5-2.2-3.2-4.4-5-6.6v-0.1l0,0
		c-13.2-15.5-34-29.5-59.1-28.7c-21.1,0.6-38.1,9-50.6,24.8c-12.7,16.2-17.5,36.3-19.2,50.3c-1.8,14.8,2.6,29.5,7.1,43.6
		c2.2,7,4.2,13.6,5.3,19.8c3.2,17.8-2.7,35.8-14.1,42.7c-6.6,4.1-14.5,4.4-23.4,0.9c7.4,1.1,14.5-0.8,20.4-5.5
		c14.9-11.9,15.2-34.3,7.6-50.2c-10.1-21.2-10.5-42.8-10.8-57.1V251c-0.4-20.8,7.4-40.5,22.2-55.5c15.1-15.4,36.1-24.2,57.6-24.2
		c32.4,0,62.2,22.9,74.1,43.6C336.1,215.2,340.5,220.9,336.6,224.7z"/>
	<path class="st6" d="M269.5,253.4c0,0-5.8,5.8-14.1,5.8c-8.2,0-13.9-5.8-13.9-5.8s0.9,2.8,3.5,5.3c-0.7,1.1-1.8,3.1-1.8,4.9
		c0,2.5,1.7,4.5,1.7,4.5s-0.9-4.7,1.6-8.1c1.3,0.9,3,1.8,5,2.2c-0.2,1.3-0.2,2.8,0.2,4.1c0.9,2.8,3.2,4.4,3.2,4.4s-2.1-3.9-1.5-8.1
		c0.6,0.1,1.4,0.1,2.1,0.1c1.4-0.1,2.5-0.2,3.7-0.4c0.1,1.1,0.3,2.5,0.9,3.5c1.3,2.3,3.8,3.3,3.8,3.3s-2.9-3.5-2.8-7.5
		C267.6,259.2,269.5,253.4,269.5,253.4z"/>
	<path class="st6" d="M316.9,254.2c0,0-5.8,5.8-14.1,5.8c-8.3,0-13.9-5.8-13.9-5.8s0.9,2.8,3.5,5.3c-0.7,1.1-1.8,3.1-1.8,4.9
		c0,2.5,1.7,4.5,1.7,4.5s-0.9-4.7,1.6-8.1c1.3,0.9,3,1.8,5,2.2c-0.2,1.3-0.2,2.8,0.2,4.1c0.9,2.8,3.2,4.4,3.2,4.4s-2.1-3.9-1.5-8.1
		c0.6,0.1,1.4,0.1,2.1,0.1c1.4-0.1,2.5-0.2,3.7-0.4c0.1,1.1,0.3,2.5,0.9,3.5c1.3,2.3,3.8,3.3,3.8,3.3s-2.9-3.5-2.8-7.5
		C315,259.9,316.9,254.2,316.9,254.2z"/>
	<g>
		<path class="st6" d="M244.8,345.2v8.6c0,0.8-0.1,1.4-0.1,1.9c-0.1,0.6-0.2,1-0.4,1.6c-0.4,0.9-1,1.6-1.9,2.1
			c-0.8,0.5-1.9,0.8-3.2,0.8c-1.1,0-2.1-0.2-2.8-0.6s-1.4-0.9-1.8-1.7c-0.3-0.4-0.4-0.9-0.6-1.5c-0.1-0.6-0.3-1.1-0.3-1.6
			c0-0.6,0.1-0.9,0.4-1.2c0.3-0.3,0.6-0.4,1.1-0.4c0.4,0,0.8,0.1,1,0.4s0.4,0.6,0.5,1.2c0.1,0.6,0.3,1,0.4,1.4
			c0.1,0.3,0.3,0.6,0.6,0.9c0.3,0.3,0.8,0.4,1.3,0.4c1.5,0,2.2-1.1,2.2-3.3v-9.2c0-0.6,0.1-1.2,0.4-1.5c0.3-0.3,0.7-0.5,1.2-0.5
			c0.5,0,0.9,0.1,1.3,0.5C244.7,344,244.8,344.6,244.8,345.2z"/>
		<path class="st6" d="M256.3,358.6v-0.4c-0.4,0.4-0.8,0.8-1.2,1.2c-0.4,0.3-0.8,0.6-1.3,0.7c-0.4,0.1-1,0.3-1.7,0.3
			c-0.8,0-1.4-0.1-2-0.4c-0.6-0.3-1-0.8-1.4-1.3c-0.4-0.6-0.6-1.6-0.6-2.8v-6.1c0-0.6,0.1-1.1,0.4-1.4c0.3-0.3,0.6-0.4,1.1-0.4
			c0.4,0,0.8,0.1,1.1,0.4c0.3,0.3,0.4,0.8,0.4,1.4v4.9c0,0.7,0.1,1.3,0.2,1.8c0.1,0.5,0.3,0.8,0.6,1.1c0.3,0.3,0.8,0.4,1.3,0.4
			s1-0.1,1.5-0.4c0.4-0.3,0.8-0.7,1-1.2c0.1-0.4,0.3-1.4,0.3-2.8v-3.7c0-0.6,0.1-1.1,0.4-1.4c0.3-0.3,0.6-0.4,1.1-0.4
			c0.4,0,0.8,0.1,1.1,0.4c0.3,0.3,0.4,0.8,0.4,1.4v8.9c0,0.6-0.1,1-0.4,1.3c-0.3,0.3-0.6,0.4-1,0.4c-0.4,0-0.8-0.1-1-0.4
			C256.4,359.5,256.3,359.2,256.3,358.6z"/>
		<path class="st6" d="M262.2,358.4V345c0-0.6,0.1-1.1,0.4-1.4c0.3-0.3,0.6-0.4,1.1-0.4s0.8,0.1,1.1,0.4c0.3,0.3,0.4,0.8,0.4,1.4
			v13.4c0,0.6-0.1,1.1-0.4,1.4c-0.3,0.3-0.6,0.4-1.1,0.4s-0.8-0.1-1.1-0.5C262.4,359.5,262.2,359,262.2,358.4z"/>
		<path class="st6" d="M270.1,346.4c-0.4,0-0.8-0.1-1.1-0.4c-0.3-0.3-0.4-0.6-0.4-1.1c0-0.4,0.1-0.8,0.4-1.1
			c0.3-0.3,0.6-0.4,1.1-0.4c0.4,0,0.8,0.1,1,0.4c0.3,0.3,0.4,0.6,0.4,1.1c0,0.4-0.1,0.8-0.4,1.1
			C270.8,346.2,270.4,346.4,270.1,346.4z M271.6,349.5v8.9c0,0.6-0.1,1.1-0.4,1.4c-0.3,0.3-0.6,0.4-1.1,0.4s-0.8-0.1-1.1-0.5
			c-0.3-0.3-0.4-0.8-0.4-1.4v-8.8c0-0.6,0.1-1.1,0.4-1.4c0.3-0.3,0.6-0.4,1.1-0.4c0.4,0,0.8,0.1,1.1,0.4
			C271.5,348.6,271.6,348.9,271.6,349.5z"/>
		<path class="st6" d="M283.4,354.7h-6.1c0,0.7,0.1,1.3,0.4,1.9c0.3,0.6,0.6,0.9,1.1,1.2c0.4,0.3,1,0.4,1.5,0.4c0.3,0,0.7-0.1,1-0.1
			c0.3-0.1,0.6-0.3,0.9-0.4c0.3-0.2,0.6-0.4,0.8-0.6c0.3-0.2,0.6-0.5,0.9-0.8c0.1-0.1,0.4-0.2,0.6-0.2c0.3,0,0.6,0.1,0.8,0.3
			c0.2,0.2,0.3,0.4,0.3,0.8c0,0.3-0.1,0.6-0.3,1c-0.3,0.4-0.6,0.8-1,1.1c-0.4,0.3-1,0.6-1.7,0.8c-0.6,0.3-1.5,0.3-2.3,0.3
			c-2,0-3.5-0.6-4.6-1.7c-1.1-1.1-1.7-2.6-1.7-4.6c0-0.9,0.1-1.7,0.4-2.5c0.3-0.8,0.6-1.5,1.2-2c0.5-0.6,1.2-1,1.9-1.3
			c0.8-0.3,1.6-0.4,2.5-0.4c1.2,0,2.3,0.3,3.1,0.8c0.8,0.5,1.5,1.2,1.9,2c0.4,0.8,0.6,1.6,0.6,2.5s-0.3,1.3-0.6,1.5
			C284.8,354.7,284.2,354.7,283.4,354.7z M277.3,353h5.5c-0.1-1-0.3-1.9-0.8-2.4c-0.5-0.6-1.1-0.8-1.9-0.8c-0.8,0-1.4,0.3-1.9,0.8
			C277.8,351.2,277.4,352,277.3,353z"/>
		<path class="st6" d="M288.7,348.1h0.3v-1.9c0-0.5,0-0.9,0.1-1.2c0.1-0.3,0.1-0.6,0.3-0.8c0.1-0.2,0.3-0.4,0.5-0.5
			c0.3-0.1,0.4-0.2,0.8-0.2c0.4,0,0.8,0.1,1,0.4c0.2,0.2,0.3,0.4,0.4,0.8c0.1,0.3,0.1,0.7,0.1,1.2v2.1h1.1c0.4,0,0.8,0.1,1,0.3
			c0.3,0.2,0.3,0.4,0.3,0.8c0,0.4-0.1,0.7-0.5,0.8c-0.3,0.1-0.8,0.3-1.4,0.3h-0.6v5.7c0,0.4,0,0.8,0.1,1.1c0.1,0.3,0.1,0.4,0.3,0.6
			c0.1,0.1,0.4,0.3,0.7,0.3c0.2,0,0.4-0.1,0.8-0.1c0.3-0.1,0.6-0.1,0.8-0.1c0.3,0,0.4,0.1,0.6,0.3c0.2,0.2,0.3,0.4,0.3,0.8
			c0,0.5-0.3,0.9-0.8,1.1c-0.6,0.3-1.3,0.4-2.3,0.4c-1,0-1.7-0.1-2.1-0.5c-0.5-0.3-0.8-0.8-1-1.4c-0.1-0.6-0.3-1.3-0.3-2.3v-5.9
			h-0.4c-0.4,0-0.8-0.1-1-0.3c-0.3-0.2-0.3-0.4-0.3-0.8c0-0.3,0.1-0.6,0.3-0.8C287.9,348.2,288.2,348.1,288.7,348.1z"/>
		<path class="st6" d="M315.3,355.1c0,1-0.3,1.9-0.8,2.7s-1.3,1.5-2.3,1.9c-1,0.4-2.1,0.6-3.5,0.6c-1.6,0-3-0.3-4-0.9
			c-0.8-0.4-1.4-1-1.8-1.8c-0.4-0.8-0.7-1.5-0.7-2.1c0-0.4,0.1-0.8,0.4-1c0.3-0.3,0.6-0.4,1.1-0.4c0.3,0,0.6,0.1,0.9,0.3
			s0.4,0.6,0.6,1c0.2,0.6,0.4,1,0.7,1.3c0.3,0.3,0.6,0.6,1,0.9c0.4,0.3,1,0.3,1.7,0.3c1,0,1.8-0.3,2.5-0.7c0.6-0.4,0.9-1,0.9-1.7
			c0-0.6-0.1-1-0.5-1.4c-0.3-0.3-0.8-0.6-1.3-0.8c-0.6-0.2-1.3-0.4-2.1-0.6c-1.2-0.3-2.1-0.6-3-1c-0.8-0.4-1.5-0.9-1.9-1.5
			c-0.4-0.6-0.7-1.5-0.7-2.4c0-0.9,0.3-1.7,0.8-2.5c0.5-0.7,1.2-1.3,2.1-1.6c0.9-0.4,2.1-0.6,3.3-0.6c1,0,1.9,0.1,2.6,0.4
			c0.8,0.3,1.4,0.6,1.9,1c0.5,0.4,0.8,0.8,1.1,1.3c0.3,0.4,0.3,0.9,0.3,1.4c0,0.4-0.1,0.8-0.4,1.1c-0.3,0.3-0.6,0.4-1,0.4
			c-0.4,0-0.6-0.1-0.9-0.3c-0.2-0.2-0.4-0.5-0.6-0.9c-0.3-0.6-0.6-1.1-1.1-1.5c-0.4-0.3-1.1-0.6-2-0.6c-0.8,0-1.5,0.2-2.1,0.6
			c-0.6,0.4-0.8,0.8-0.8,1.4c0,0.3,0.1,0.6,0.3,0.8c0.2,0.3,0.4,0.4,0.8,0.6c0.3,0.1,0.6,0.3,1,0.4c0.3,0.1,0.8,0.3,1.6,0.4
			c0.9,0.3,1.8,0.4,2.5,0.8c0.8,0.3,1.4,0.6,1.9,1c0.6,0.4,0.9,0.8,1.3,1.5C315.1,353.5,315.3,354.2,315.3,355.1z"/>
		<path class="st6" d="M325.7,358.6c-0.8,0.6-1.5,1-2.1,1.3c-0.7,0.3-1.5,0.4-2.3,0.4c-0.8,0-1.5-0.1-2.1-0.4
			c-0.6-0.3-1-0.8-1.4-1.3c-0.3-0.6-0.5-1.1-0.5-1.7c0-0.8,0.3-1.5,0.8-2.1c0.6-0.6,1.3-1,2.2-1.2c0.2-0.1,0.7-0.1,1.5-0.3
			c0.8-0.1,1.5-0.3,2-0.4c0.6-0.1,1.2-0.3,1.8-0.4c-0.1-0.8-0.2-1.4-0.5-1.8c-0.3-0.4-0.9-0.6-1.8-0.6c-0.8,0-1.4,0.1-1.8,0.3
			c-0.4,0.3-0.8,0.6-1,1c-0.3,0.4-0.4,0.8-0.6,0.8c-0.1,0.1-0.3,0.2-0.8,0.2c-0.3,0-0.6-0.1-0.9-0.3c-0.3-0.3-0.4-0.5-0.4-0.8
			c0-0.6,0.2-1.1,0.6-1.6s1-0.9,1.8-1.3c0.8-0.3,1.8-0.5,3-0.5c1.4,0,2.4,0.1,3.2,0.4c0.8,0.3,1.3,0.8,1.6,1.5
			c0.3,0.7,0.4,1.6,0.4,2.8c0,0.8,0,1.3,0,1.8s0,1,0,1.7c0,0.6,0.1,1.2,0.3,1.8c0.2,0.6,0.3,1,0.3,1.2c0,0.3-0.1,0.6-0.4,0.8
			c-0.3,0.3-0.6,0.4-1,0.4c-0.3,0-0.6-0.1-0.9-0.4C326.4,359.5,326,359.2,325.7,358.6z M325.5,354.1c-0.4,0.1-1.1,0.3-2,0.6
			c-0.8,0.2-1.5,0.3-1.8,0.4c-0.3,0.1-0.6,0.3-0.9,0.5c-0.3,0.3-0.4,0.6-0.4,1c0,0.4,0.2,0.8,0.6,1.2c0.3,0.3,0.8,0.5,1.4,0.5
			c0.6,0,1.2-0.1,1.7-0.4c0.5-0.3,0.9-0.6,1.1-1c0.3-0.4,0.4-1.3,0.4-2.3L325.5,354.1L325.5,354.1z"/>
		<path class="st6" d="M331.7,358.4V345c0-0.6,0.1-1.1,0.4-1.4c0.3-0.3,0.6-0.4,1.1-0.4s0.8,0.1,1.1,0.4c0.3,0.3,0.4,0.8,0.4,1.4
			v13.4c0,0.6-0.1,1.1-0.4,1.4c-0.3,0.3-0.6,0.4-1.1,0.4s-0.8-0.1-1.1-0.5C331.8,359.5,331.7,359,331.7,358.4z"/>
		<path class="st6" d="M349.4,354c0,0.9-0.1,1.8-0.4,2.6c-0.3,0.8-0.7,1.5-1.3,2c-0.6,0.6-1.2,1-1.9,1.3c-0.7,0.3-1.6,0.4-2.6,0.4
			c-0.9,0-1.8-0.1-2.5-0.4c-0.8-0.3-1.4-0.8-1.9-1.3c-0.6-0.6-1-1.3-1.3-2c-0.3-0.8-0.4-1.6-0.4-2.5c0-0.9,0.1-1.8,0.4-2.6
			c0.3-0.8,0.7-1.5,1.3-2s1.2-1,1.9-1.3c0.7-0.3,1.6-0.4,2.5-0.4c0.9,0,1.8,0.1,2.6,0.4c0.8,0.3,1.4,0.8,1.9,1.3
			c0.6,0.6,1,1.2,1.3,2C349.4,352.3,349.4,353.2,349.4,354z M346.3,354c0-1.3-0.3-2.3-0.8-3c-0.6-0.7-1.3-1-2.3-1
			c-0.6,0-1.1,0.1-1.6,0.4c-0.4,0.3-0.8,0.8-1,1.4c-0.3,0.6-0.4,1.3-0.4,2.1s0.1,1.5,0.3,2.1c0.3,0.6,0.6,1,1,1.4
			c0.4,0.3,1,0.4,1.6,0.4c0.9,0,1.7-0.3,2.3-1C346.1,356.3,346.3,355.3,346.3,354z"/>
		<path class="st6" d="M354.7,349.5v0.4c0.6-0.7,1.1-1.3,1.8-1.6c0.6-0.3,1.4-0.5,2.2-0.5c0.8,0,1.5,0.2,2.1,0.6
			c0.6,0.3,1.1,0.8,1.5,1.5c0.2,0.4,0.3,0.8,0.4,1.2c0.1,0.4,0.1,1,0.1,1.7v5.7c0,0.6-0.1,1.1-0.4,1.4c-0.3,0.3-0.6,0.4-1.1,0.4
			c-0.4,0-0.8-0.1-1.1-0.5c-0.3-0.3-0.4-0.8-0.4-1.4v-5.2c0-1-0.1-1.8-0.4-2.3c-0.3-0.6-0.8-0.8-1.7-0.8c-0.6,0-1,0.1-1.5,0.5
			c-0.4,0.3-0.8,0.8-1,1.4c-0.1,0.4-0.3,1.3-0.3,2.6v3.9c0,0.6-0.1,1.1-0.4,1.4c-0.3,0.3-0.6,0.4-1.1,0.4c-0.4,0-0.8-0.1-1.1-0.5
			c-0.3-0.3-0.4-0.8-0.4-1.4v-9c0-0.6,0.1-1,0.4-1.3c0.3-0.3,0.6-0.4,1-0.4c0.3,0,0.5,0.1,0.8,0.2c0.3,0.1,0.4,0.3,0.6,0.6
			C354.7,348.8,354.7,349.1,354.7,349.5z"/>
	</g>
</g>
<g>
	<path class="st4" d="M761.5,242.6c0,0,2.1,5.9,0.8,7.1c-1.3,1.3-5.3,1.3-7.1,0c-1.8-1.3-9.8-9-9.8-9s-22.3-15.1-37.5-12.6
		c-15.1,2.5-37.1,4.7-38.8,52.3l8.5,41.3l1.3,20.2l-3.8,15.1l-7,11.1l-12,6.6c0,0-29.1,13.9-49.3-10.1l5-1.3c0,0,5,2.5,15.1,0
		c10.1-2.5,11.4-6.4,11.4-6.4l4.7-6.4l3-8.8l1.3-11.4l-3.8-13.9l-7.6-15.7l-2.8-28.4l0.3-22.9c0,0,1.8-12.9,4.7-17.8
		c2.8-5,11.7-22.6,29.4-34c17.7-11.4,43.9-12,51-9.8c7.1,2.2,18.5,0.9,37.5,17.4c19,16.5,22.8,25.3,22.8,25.3v5l-2.5,2.6h-3.8h-2.5
		l-1,3l-1.5,3.3h-2.5L761.5,242.6z"/>
	<path class="st6" d="M778,227c-14.6-23.7-39.7-41.4-70.5-41.4c-20.6,0-40.7,8.4-55,23.1c-14.1,14.4-21.6,33.2-21.2,53.1v0.2
		c0.3,13.4,0.7,33.7,10.2,53.8c6.6,13.8,6.5,33.2-6.4,43.4c-9.2,7.4-21.8,6.2-33.5-3.2l-4.5-3.7l2.6,5.2c0.1,0.3,12,22.6,37.3,22.6
		c5.3,0,11.2-0.9,17.7-3.3c33.3-12,25.9-47,20-75c-2.1-9.8-4-19-4-26.2c0-28.9,13.8-45.5,38-45.5c25,0,39.8,15,40.8,16
		c0.7,0.9,7.1,9.3,13.1,5.3c0.8-0.6,1.4-1.4,1.6-2.5c0.2-1.1,0-2.3-0.4-3.5c0.7,0.4,1.3,0.6,2,0.7c1.3,0.2,2.4-0.3,3.3-1.2
		c1.6-1.6,2-3.3,1.7-5c1.1,0.6,2.2,0.9,3.4,1c1.6,0.1,3.1-0.5,4.4-1.8C782.6,235.2,779.7,229.7,778,227z M761.5,248.6
		c-0.1,0.5-0.3,0.7-0.5,0.8c-4.2,2.8-9.6-4.7-9.6-4.7l-0.1-0.1c-0.6-0.7-15.9-16.8-42.7-16.8c-25.7,0-40.5,17.5-40.5,48
		c0,7.4,2,16.8,4.1,26.6c6,28.5,12.8,60.8-18.4,72.1c-22.5,8.1-37.1-0.8-44.8-8.8c9.7,7.8,18.3,10.3,25.3,10.3
		c5.7,0,10.2-1.6,13.4-3.3c14.2-7.5,23.5-27.2,20.4-44c-1.3-7.4-3.8-15.4-6.2-23.1c-3.3-10.7-6.4-20.8-6.4-28.5
		c0.1-29.6,13.2-61.3,50.1-61.3c24.9,0,41.4,8.1,53.5,26C760.5,244.2,761.8,247,761.5,248.6z M767.1,243.2c-0.4,0.4-0.8,0.5-1.3,0.5
		c-1.7-0.2-4-2.5-5.5-4.7c-0.7-1-1.2-1.7-1.3-2l-0.1,0.1c-12.3-16.5-28.9-24-53.3-24c-17.1,0-31,6.8-40.2,19.6
		c-8.1,11.3-12.4,26.5-12.4,44.3c0,8.1,3.2,18.3,6.6,29.2c2.4,7.7,4.9,15.6,6.1,22.9c2.8,15.8-5.7,34.4-19.1,41.4
		c-8.4,4.4-17.7,4-27.2-0.9c3.3,1.1,6.4,1.5,9.1,1.5c5.1,0,9.1-1.5,12.2-3.4c11.3-6.9,17.3-24.7,14.1-42.1c-1.1-5.9-3-12-5-18.5
		c-4-12.8-8.1-26-6.4-39.3c7.4-59.1,45.8-66.7,62-67.2c22.1-0.7,41.2,11.7,53.2,25.3l7.1,10.2c0.1,0.1,0.3,0.3,0.5,0.6
		C767.3,237.8,769.5,240.9,767.1,243.2z M776.6,237.5c-0.8,0.8-1.5,1.1-2.5,1c-2.2-0.1-4.6-2.2-5.9-3.5c-0.3-0.3-0.4-0.5-0.6-0.7
		l-2.9-3.8c-1.4-2-3-4.1-4.7-6.1v-0.1l0,0c-12.2-14.3-31.5-27.3-54.6-26.5c-19.5,0.6-35.2,8.3-46.7,22.9
		c-11.7,15-16.1,33.5-17.7,46.5c-1.7,13.7,2.5,27.2,6.5,40.3c2,6.5,3.9,12.5,4.9,18.3c3,16.5-2.5,33-13,39.5
		c-6.1,3.8-13.4,4-21.6,0.8c6.8,0.9,13.4-0.7,18.9-5.1c13.8-11,14-31.6,7.1-46.4c-9.3-19.6-9.7-39.5-10-52.7v-0.2
		c-0.4-19.2,6.9-37.4,20.5-51.3c13.9-14.2,33.3-22.3,53.2-22.3c29.9,0,57.5,21.2,68.5,40.3C776.1,228.6,780.2,233.9,776.6,237.5z"/>
	<path class="st6" d="M714.6,264c0,0-5.4,5.4-13,5.4c-7.6,0-12.9-5.4-12.9-5.4s0.8,2.6,3.2,4.9c-0.6,0.9-1.7,2.8-1.7,4.5
		c0,2.3,1.6,4.2,1.6,4.2s-0.8-4.4,1.5-7.5c1.2,0.9,2.8,1.6,4.6,2.1c-0.2,1.2-0.2,2.6,0.2,3.8c0.8,2.5,3,4,3,4s-1.9-3.7-1.3-7.4
		c0.6,0.1,1.3,0.1,2,0.1c1.3-0.1,2.3-0.2,3.4-0.4c0.1,1.1,0.3,2.3,0.8,3.3c1.2,2.1,3.5,3.1,3.5,3.1s-2.7-3.2-2.5-6.9
		C712.8,269.4,714.6,264,714.6,264z"/>
	<path class="st6" d="M758.4,264.7c0,0-5.4,5.4-13,5.4s-12.9-5.4-12.9-5.4s0.8,2.6,3.2,4.9c-0.6,0.9-1.7,2.8-1.7,4.5
		c0,2.3,1.6,4.2,1.6,4.2s-0.8-4.4,1.5-7.5c1.2,0.9,2.8,1.6,4.6,2.1c-0.2,1.2-0.2,2.6,0.2,3.8c0.8,2.5,3,4,3,4s-1.9-3.7-1.3-7.4
		c0.6,0.1,1.3,0.1,2,0.1c1.3-0.1,2.3-0.2,3.4-0.4c0.1,1.1,0.3,2.3,0.8,3.3c1.2,2.1,3.5,3.1,3.5,3.1s-2.7-3.2-2.5-6.9
		C756.6,270,758.4,264.7,758.4,264.7z"/>
	<g>
		<path class="st6" d="M756.4,330.3v-0.6c-0.6,0.7-1.3,1.3-1.8,1.8c-0.6,0.4-1.3,0.8-2.1,1.1c-0.7,0.3-1.6,0.4-2.6,0.4
			c-1.2,0-2.2-0.3-3.2-0.7c-0.9-0.4-1.6-1.2-2.2-2c-0.6-1-0.9-2.5-0.9-4.4v-9.6c0-1,0.3-1.7,0.7-2.2c0.4-0.4,1-0.7,1.8-0.7
			c0.7,0,1.3,0.3,1.8,0.7c0.4,0.4,0.7,1.3,0.7,2.2v7.7c0,1.1,0.2,2.1,0.3,2.8c0.2,0.8,0.5,1.3,1,1.8c0.4,0.4,1.2,0.7,2,0.7
			c0.8,0,1.5-0.3,2.3-0.7c0.7-0.4,1.3-1.1,1.5-1.8c0.3-0.7,0.4-2.2,0.4-4.5v-5.9c0-1,0.3-1.7,0.7-2.2c0.4-0.4,1-0.7,1.8-0.7
			c0.7,0,1.3,0.3,1.8,0.7c0.4,0.4,0.7,1.3,0.7,2.2v14c0,0.9-0.2,1.6-0.6,2.1c-0.4,0.4-1,0.7-1.6,0.7c-0.7,0-1.3-0.3-1.6-0.7
			C756.7,331.8,756.4,331.2,756.4,330.3z"/>
		<path class="st6" d="M765.9,330v-20.9c0-1,0.3-1.7,0.7-2.2c0.4-0.4,1-0.7,1.8-0.7c0.8,0,1.3,0.3,1.8,0.7c0.4,0.4,0.7,1.3,0.7,2.2
			v21c0,1-0.3,1.7-0.7,2.2c-0.4,0.4-1,0.7-1.8,0.7c-0.8,0-1.3-0.3-1.7-0.8C766,331.7,765.9,331,765.9,330z"/>
		<path class="st6" d="M778,311.1c-0.7,0-1.3-0.2-1.7-0.6c-0.4-0.4-0.7-1-0.7-1.8c0-0.7,0.3-1.3,0.7-1.7c0.4-0.4,1-0.7,1.7-0.7
			c0.6,0,1.2,0.2,1.6,0.6c0.4,0.4,0.7,1,0.7,1.8c0,0.7-0.3,1.3-0.7,1.8C779.2,311,778.7,311.1,778,311.1z M780.4,316v14
			c0,1-0.3,1.7-0.7,2.2c-0.4,0.4-1,0.7-1.8,0.7c-0.8,0-1.3-0.3-1.7-0.8c-0.4-0.4-0.7-1.3-0.7-2.2v-13.8c0-1,0.3-1.7,0.7-2.2
			c0.4-0.4,1-0.7,1.7-0.7s1.3,0.3,1.8,0.7C780.2,314.6,780.4,315.2,780.4,316z"/>
		<path class="st6" d="M799,324.4h-9.5c0,1.1,0.3,2.1,0.7,3s1,1.5,1.7,1.8c0.7,0.4,1.5,0.6,2.4,0.6c0.5,0,1.1-0.1,1.5-0.2
			c0.4-0.1,0.9-0.4,1.4-0.6c0.4-0.3,0.8-0.6,1.3-0.9c0.4-0.3,0.8-0.8,1.5-1.3c0.3-0.2,0.6-0.3,1-0.3c0.4,0,0.9,0.2,1.3,0.4
			c0.3,0.3,0.4,0.7,0.4,1.2c0,0.5-0.2,1-0.4,1.5c-0.4,0.6-0.8,1.2-1.5,1.7s-1.5,1-2.6,1.3c-1,0.4-2.2,0.5-3.5,0.5
			c-3.1,0-5.5-0.9-7.3-2.7s-2.6-4.2-2.6-7.3c0-1.5,0.2-2.7,0.6-4s1-2.2,1.8-3.2c0.8-0.8,1.8-1.5,3-2c1.3-0.4,2.5-0.7,4-0.7
			c1.8,0,3.5,0.4,4.9,1.3c1.4,0.8,2.4,1.8,3,3.1c0.6,1.3,1,2.5,1,3.9c0,1.3-0.4,2-1,2.4C801.2,324.2,800.2,324.4,799,324.4z
			 M789.5,321.6h8.7c-0.2-1.6-0.5-3-1.3-3.7c-0.8-0.8-1.8-1.3-3-1.3s-2.2,0.4-3,1.3C790.1,318.7,789.6,320,789.5,321.6z"/>
		<path class="st6" d="M807.3,313.8h0.5v-2.9c0-0.8,0-1.4,0.1-1.8c0.1-0.5,0.2-0.8,0.4-1.2c0.2-0.3,0.4-0.6,0.8-0.8
			c0.4-0.2,0.7-0.3,1.3-0.3c0.6,0,1.2,0.3,1.6,0.7c0.3,0.3,0.5,0.7,0.6,1.2c0.1,0.4,0.2,1.1,0.2,1.8v3.2h1.8c0.7,0,1.3,0.2,1.5,0.4
			c0.4,0.3,0.5,0.7,0.5,1.3c0,0.7-0.3,1.1-0.8,1.3c-0.4,0.3-1.3,0.4-2.2,0.4h-0.9v8.9c0,0.7,0,1.3,0.1,1.8c0.1,0.4,0.2,0.7,0.4,1
			c0.3,0.3,0.6,0.4,1.1,0.4c0.3,0,0.7-0.1,1.2-0.2c0.4-0.2,0.8-0.2,1.2-0.2c0.4,0,0.7,0.2,1,0.4c0.3,0.3,0.4,0.7,0.4,1.2
			c0,0.8-0.4,1.4-1.3,1.8c-0.8,0.4-2.1,0.6-3.7,0.6c-1.5,0-2.7-0.3-3.4-0.8c-0.8-0.4-1.3-1.3-1.5-2.2c-0.3-0.9-0.4-2.1-0.4-3.5v-9.3
			h-0.6c-0.7,0-1.3-0.2-1.5-0.4c-0.4-0.3-0.5-0.7-0.5-1.3c0-0.4,0.2-0.9,0.5-1.3C806,313.9,806.6,313.8,807.3,313.8z"/>
		<path class="st6" d="M849,324.8c0,1.5-0.4,3-1.3,4.2c-0.8,1.3-2,2.2-3.5,3c-1.5,0.7-3.4,1-5.5,1c-2.5,0-4.7-0.4-6.4-1.5
			c-1.2-0.7-2.2-1.6-2.8-2.8c-0.6-1.1-1.1-2.3-1.1-3.4c0-0.6,0.3-1.2,0.7-1.6c0.4-0.4,1-0.7,1.7-0.7c0.5,0,1,0.2,1.4,0.5
			c0.4,0.4,0.7,0.8,1,1.5c0.3,0.8,0.7,1.5,1.1,2.1c0.4,0.5,0.9,1,1.6,1.4c0.7,0.4,1.5,0.5,2.7,0.5c1.5,0,2.8-0.4,3.9-1.1
			c1-0.7,1.5-1.6,1.5-2.7c0-0.8-0.3-1.5-0.8-2.2c-0.5-0.5-1.3-1-2.1-1.3c-0.8-0.3-2-0.6-3.3-0.9c-1.8-0.4-3.4-1-4.7-1.5
			c-1.3-0.6-2.2-1.4-3-2.4c-0.7-1-1.1-2.2-1.1-3.8c0-1.5,0.4-2.7,1.2-3.9c0.8-1.1,1.8-2,3.4-2.5c1.5-0.6,3.2-0.9,5.2-0.9
			c1.5,0,3,0.2,4.2,0.6c1.1,0.4,2.2,0.9,3,1.5c0.8,0.6,1.3,1.3,1.7,2.1c0.4,0.7,0.5,1.4,0.5,2.2c0,0.6-0.3,1.3-0.7,1.7
			c-0.4,0.4-1,0.7-1.6,0.7c-0.6,0-1-0.2-1.4-0.4c-0.3-0.3-0.7-0.8-1-1.5c-0.4-1-1-1.8-1.7-2.3c-0.7-0.5-1.7-0.8-3.2-0.8
			c-1.3,0-2.4,0.3-3.2,0.9s-1.3,1.3-1.3,2.2c0,0.5,0.2,1,0.4,1.3c0.3,0.4,0.7,0.7,1.2,1c0.4,0.3,1,0.4,1.5,0.6
			c0.4,0.2,1.3,0.4,2.5,0.7c1.5,0.4,2.8,0.7,4,1.2c1.3,0.4,2.2,0.9,3,1.5c0.8,0.6,1.5,1.3,2,2.2C848.8,322.3,849,323.5,849,324.8z"
			/>
		<path class="st6" d="M865.4,330.3c-1.2,0.9-2.3,1.5-3.4,2.1c-1.1,0.4-2.3,0.7-3.7,0.7c-1.3,0-2.3-0.3-3.2-0.7
			c-0.9-0.4-1.6-1.2-2.2-2c-0.4-0.8-0.8-1.8-0.8-2.7c0-1.3,0.4-2.4,1.3-3.4c0.8-0.9,2-1.5,3.5-1.8c0.3-0.1,1.1-0.3,2.3-0.4
			c1.3-0.3,2.2-0.4,3.1-0.7c0.8-0.2,1.8-0.4,2.8-0.7c-0.1-1.3-0.3-2.2-0.8-2.8c-0.4-0.6-1.4-0.9-2.8-0.9c-1.3,0-2.2,0.2-2.8,0.4
			c-0.6,0.4-1.2,0.8-1.5,1.5c-0.4,0.7-0.7,1.2-0.9,1.3c-0.2,0.3-0.5,0.3-1.2,0.3c-0.5,0-1-0.2-1.4-0.5c-0.4-0.4-0.6-0.8-0.6-1.3
			c0-0.8,0.3-1.7,0.9-2.5c0.6-0.8,1.5-1.5,2.8-2c1.3-0.5,2.8-0.8,4.7-0.8c2.2,0,3.8,0.3,5,0.7c1.3,0.4,2.1,1.3,2.5,2.4
			s0.7,2.5,0.7,4.4c0,1.2,0,2.1,0,2.8s0,1.6,0,2.6c0,0.9,0.2,1.8,0.4,2.8c0.3,1,0.4,1.6,0.4,1.8c0,0.4-0.3,1-0.7,1.3
			c-0.4,0.4-1,0.6-1.5,0.6c-0.4,0-1-0.3-1.5-0.7C866.5,331.8,866,331.2,865.4,330.3z M865.1,323.3c-0.7,0.3-1.8,0.5-3.1,0.8
			c-1.3,0.3-2.3,0.4-2.8,0.6c-0.4,0.2-1,0.4-1.5,0.8c-0.4,0.4-0.7,1-0.7,1.6c0,0.7,0.3,1.3,0.8,1.8c0.5,0.4,1.3,0.8,2.2,0.8
			c1,0,1.8-0.2,2.7-0.6c0.8-0.4,1.4-1,1.8-1.6c0.4-0.7,0.7-2,0.7-3.5L865.1,323.3L865.1,323.3z"/>
		<path class="st6" d="M874.7,330v-20.9c0-1,0.3-1.7,0.7-2.2c0.4-0.4,1-0.7,1.8-0.7c0.8,0,1.3,0.3,1.8,0.7c0.4,0.4,0.7,1.3,0.7,2.2
			v21c0,1-0.3,1.7-0.7,2.2s-1,0.7-1.8,0.7c-0.8,0-1.3-0.3-1.7-0.8C874.9,331.7,874.7,331,874.7,330z"/>
		<path class="st6" d="M902.7,323.2c0,1.5-0.3,2.8-0.7,4s-1.1,2.2-2,3.2c-0.8,0.8-1.8,1.5-3,2c-1.2,0.4-2.5,0.7-4,0.7
			c-1.5,0-2.8-0.3-4-0.7c-1.2-0.4-2.2-1.2-3-2c-0.8-0.8-1.5-2-2-3.1c-0.4-1.3-0.7-2.5-0.7-4s0.3-2.8,0.7-4c0.4-1.3,1.1-2.2,2-3.1
			c0.8-0.8,1.8-1.5,3-2c1.2-0.5,2.5-0.7,4-0.7c1.5,0,2.8,0.3,4,0.7c1.3,0.4,2.2,1.2,3,2c0.8,0.8,1.5,1.8,2,3.1
			C902.5,320.4,902.7,321.8,902.7,323.2z M897.8,323.2c0-2-0.4-3.5-1.3-4.7c-0.9-1.1-2-1.6-3.5-1.6c-1,0-1.8,0.3-2.5,0.7
			c-0.7,0.4-1.3,1.3-1.6,2.2c-0.4,1-0.6,2.1-0.6,3.3c0,1.3,0.2,2.4,0.5,3.2c0.4,1,0.9,1.6,1.6,2.2c0.7,0.4,1.5,0.7,2.5,0.7
			c1.5,0,2.6-0.5,3.5-1.6C897.4,326.6,897.8,325.2,897.8,323.2z"/>
		<path class="st6" d="M910.9,316v0.6c0.8-1.1,1.8-2,2.8-2.5c1-0.5,2.2-0.8,3.5-0.8c1.3,0,2.4,0.3,3.4,0.8s1.8,1.3,2.2,2.4
			c0.3,0.6,0.5,1.3,0.6,1.8c0.2,0.7,0.2,1.5,0.2,2.6v9c0,1-0.3,1.7-0.7,2.2c-0.4,0.4-1,0.7-1.7,0.7s-1.3-0.3-1.8-0.8
			c-0.4-0.4-0.7-1.3-0.7-2.2v-8.1c0-1.5-0.3-2.8-0.7-3.7c-0.4-0.9-1.3-1.3-2.7-1.3c-0.8,0-1.6,0.3-2.4,0.8c-0.7,0.4-1.3,1.3-1.5,2.2
			c-0.3,0.7-0.4,2.1-0.4,4v6.1c0,1-0.3,1.7-0.7,2.2c-0.4,0.4-1,0.7-1.8,0.7c-0.7,0-1.3-0.3-1.7-0.8c-0.4-0.4-0.7-1.3-0.7-2.2v-14
			c0-0.9,0.2-1.5,0.6-2.1c0.4-0.4,1-0.7,1.6-0.7c0.4,0,0.8,0.2,1.2,0.3c0.4,0.1,0.6,0.4,0.8,0.9C910.8,315,910.9,315.5,910.9,316z"
			/>
	</g>
	<path class="st6" d="M718.3,275.6c0,0-3.3-6.6,2.3-7.4c5.7-0.8,7.8,3.4,9.4,10c1.6,6.6,11.3,34.5,7.3,45
		c-4,10.5-15.8,12.7-21.4,12.2c-5.7-0.5-19.4-5.2-16.8-21.2c2.6-16,10.2-5.5,9.6-2.5c-0.5,3.1-3.7,15.1,3.8,17.2s20.7-1.6,18.7-16.5
		c-1.8-13-10.9-31.1-10.9-31.1S718.9,277.4,718.3,275.6z"/>
</g>
<g>
	<path class="st7" d="M500,0c0.6,5.8,1.1,11.6,1.6,17.4c0,11,0,40.8,0,52.2c0,11.5,0,41.1,0,52.2c-0.5,5.8-0.9,11.6-1.6,17.4
		c-0.6-5.8-1.1-11.6-1.6-17.4c0-11,0-40.8,0-52.2c0-11.5,0-41.1,0-52.2C498.9,11.6,499.4,5.8,500,0L500,0z"/>
</g>
<g>
	<path class="st7" d="M500,408.5c2.6,34.1,1.3,86.1,1.6,120.7c-0.3,31.4,0.9,82.3-1.1,113.2L500,650l-0.4-7.6
		c-2.1-30.7-0.8-81.9-1.1-113.2C498.8,494.5,497.3,442.9,500,408.5L500,408.5z"/>
</g>
<g class="st8">
	<path class="st9" d="M392,437.4c-0.3,0.2-0.7,0.4-1.2,0.6c-0.5,0.2-1.1,0.2-1.8,0.2c-0.8,0-1.4-0.1-2-0.3c-0.6-0.2-0.9-0.5-1.1-1
		c-0.2-0.4-0.5-1-0.7-1.7s-0.6-1.4-0.9-2.3c-0.3-0.8-0.7-1.7-1-2.6c-0.3-0.9-0.7-1.9-1-2.8c-0.3-1-0.6-1.9-0.9-2.8s-0.5-1.8-0.7-2.6
		c0.3-0.3,0.6-0.5,1.1-0.7c0.5-0.2,1-0.3,1.6-0.3c0.7,0,1.2,0.1,1.7,0.4c0.4,0.3,0.8,0.8,1,1.6c0.5,1.8,1,3.5,1.5,5.2
		c0.5,1.7,1,3.4,1.6,5.2h0.2c0.5-1.7,1-3.6,1.5-5.7c0.5-2.1,1-4.1,1.5-6.1c0.3-0.2,0.7-0.3,1.1-0.4c0.4-0.1,0.8-0.2,1.3-0.2
		c0.7,0,1.3,0.2,1.7,0.5c0.5,0.3,0.7,0.8,0.7,1.5c0,0.4-0.1,1-0.3,1.8c-0.2,0.8-0.4,1.7-0.7,2.6s-0.6,2-1,3c-0.4,1.1-0.8,2-1.1,3
		c-0.4,0.9-0.7,1.8-1.1,2.5S392.2,437.1,392,437.4z"/>
	<path class="st9" d="M405.4,438.4c-1.1,0-2.1-0.2-3-0.5c-0.9-0.3-1.7-0.8-2.4-1.4c-0.7-0.6-1.2-1.4-1.6-2.3c-0.4-0.9-0.6-2-0.6-3.2
		c0-1.2,0.2-2.3,0.6-3.1c0.4-0.9,0.9-1.6,1.6-2.2c0.6-0.6,1.4-1,2.2-1.2c0.8-0.3,1.7-0.4,2.6-0.4c1,0,1.9,0.1,2.7,0.4
		c0.8,0.3,1.5,0.7,2.1,1.2c0.6,0.5,1,1.1,1.4,1.9c0.3,0.7,0.5,1.5,0.5,2.4c0,0.6-0.2,1.1-0.5,1.4c-0.4,0.3-0.8,0.5-1.5,0.6l-6.9,1
		c0.2,0.6,0.6,1.1,1.2,1.4c0.6,0.3,1.3,0.5,2.2,0.5c0.8,0,1.5-0.1,2.1-0.3c0.7-0.2,1.2-0.4,1.7-0.7c0.3,0.2,0.5,0.4,0.7,0.8
		s0.3,0.7,0.3,1.1c0,0.8-0.4,1.5-1.2,1.9c-0.6,0.3-1.3,0.5-2,0.6C406.7,438.3,406,438.4,405.4,438.4z M404.6,427.5
		c-0.4,0-0.8,0.1-1.2,0.2c-0.3,0.1-0.6,0.3-0.8,0.6c-0.2,0.2-0.4,0.5-0.5,0.8c-0.1,0.3-0.2,0.6-0.2,0.9l4.7-0.8
		c-0.1-0.4-0.3-0.7-0.6-1.1C405.8,427.6,405.3,427.5,404.6,427.5z"/>
	<path class="st9" d="M418.2,437.9c-0.2,0.1-0.5,0.1-0.9,0.2c-0.4,0.1-0.8,0.1-1.2,0.1c-0.4,0-0.8,0-1.1-0.1s-0.6-0.2-0.8-0.3
		c-0.2-0.2-0.4-0.4-0.5-0.7c-0.1-0.3-0.2-0.7-0.2-1.1v-8.3c0-0.4,0.1-0.8,0.2-1.1c0.2-0.3,0.4-0.6,0.7-0.8c0.3-0.2,0.7-0.5,1.1-0.7
		c0.4-0.2,0.9-0.4,1.4-0.5c0.5-0.1,1-0.3,1.6-0.3c0.5-0.1,1.1-0.1,1.6-0.1c0.9,0,1.6,0.2,2.1,0.5c0.5,0.3,0.8,0.9,0.8,1.7
		c0,0.3,0,0.5-0.1,0.8c-0.1,0.2-0.2,0.5-0.3,0.7c-0.4,0-0.8,0-1.2,0.1c-0.4,0-0.8,0.1-1.2,0.2c-0.4,0.1-0.8,0.2-1.1,0.2
		c-0.3,0.1-0.6,0.2-0.9,0.3V437.9z"/>
	<path class="st9" d="M429.6,433.3c0,0.5,0.2,0.8,0.5,1c0.3,0.2,0.7,0.3,1.3,0.3c0.3,0,0.6,0,0.9-0.1c0.3,0,0.6-0.1,0.8-0.2
		c0.2,0.2,0.3,0.4,0.4,0.7c0.1,0.2,0.2,0.6,0.2,0.9c0,0.7-0.3,1.3-0.8,1.7c-0.5,0.4-1.5,0.7-2.8,0.7c-1.6,0-2.9-0.4-3.8-1.1
		s-1.3-1.9-1.3-3.6v-11.9c0.2-0.1,0.5-0.1,0.9-0.2s0.8-0.1,1.2-0.1c0.8,0,1.4,0.1,1.9,0.4c0.5,0.3,0.7,0.9,0.7,1.8v1.8h3.6
		c0.1,0.2,0.2,0.5,0.3,0.8c0.1,0.3,0.2,0.6,0.2,1c0,0.6-0.1,1.1-0.4,1.4c-0.3,0.3-0.7,0.4-1.2,0.4h-2.5V433.3z"/>
	<path class="st9" d="M435.9,420.7c0-0.7,0.2-1.3,0.7-1.8c0.5-0.5,1.1-0.7,1.9-0.7c0.8,0,1.4,0.2,1.9,0.7c0.5,0.5,0.7,1.1,0.7,1.8
		s-0.2,1.3-0.7,1.8c-0.5,0.5-1.1,0.7-1.9,0.7c-0.8,0-1.4-0.2-1.9-0.7C436.1,422,435.9,421.4,435.9,420.7z M440.8,437.9
		c-0.2,0-0.5,0.1-0.9,0.2c-0.4,0.1-0.8,0.1-1.2,0.1c-0.4,0-0.8,0-1.1-0.1c-0.3-0.1-0.6-0.2-0.8-0.3c-0.2-0.2-0.4-0.4-0.5-0.7
		c-0.1-0.3-0.2-0.7-0.2-1.1v-11.3c0.2,0,0.5-0.1,0.9-0.2c0.4-0.1,0.8-0.1,1.2-0.1s0.8,0,1.1,0.1c0.3,0.1,0.6,0.2,0.8,0.3
		c0.2,0.2,0.4,0.4,0.5,0.7c0.1,0.3,0.2,0.7,0.2,1.1V437.9z"/>
	<path class="st9" d="M451.4,427.7c-0.5,0-0.9,0.1-1.3,0.2c-0.4,0.1-0.8,0.4-1.1,0.7c-0.3,0.3-0.6,0.6-0.7,1.1
		c-0.2,0.4-0.3,0.9-0.3,1.5c0,1.1,0.3,2,1,2.6c0.7,0.6,1.5,0.9,2.4,0.9c0.6,0,1-0.1,1.4-0.2c0.4-0.1,0.8-0.3,1.1-0.4
		c0.4,0.3,0.6,0.5,0.8,0.8c0.2,0.3,0.3,0.7,0.3,1.1c0,0.8-0.4,1.3-1.1,1.8s-1.7,0.6-3,0.6c-1.2,0-2.2-0.2-3.2-0.5
		c-0.9-0.3-1.8-0.8-2.4-1.4c-0.7-0.6-1.2-1.4-1.6-2.2s-0.6-1.8-0.6-2.9c0-1.2,0.2-2.3,0.6-3.2c0.4-0.9,0.9-1.7,1.6-2.3
		c0.7-0.6,1.5-1,2.4-1.3c0.9-0.3,1.8-0.4,2.8-0.4c1.3,0,2.4,0.2,3.1,0.7c0.7,0.5,1.1,1.1,1.1,1.9c0,0.4-0.1,0.7-0.2,1
		c-0.2,0.3-0.4,0.6-0.6,0.8c-0.3-0.1-0.7-0.3-1.1-0.4S451.9,427.7,451.4,427.7z"/>
	<path class="st9" d="M462.9,424c1,0,1.9,0.1,2.7,0.3c0.8,0.2,1.5,0.5,2.1,0.9s1,0.9,1.3,1.6c0.3,0.6,0.5,1.4,0.5,2.3v6.2
		c0,0.5-0.1,0.9-0.4,1.2c-0.3,0.3-0.6,0.6-1,0.8c-1.2,0.7-2.9,1.1-5.1,1.1c-1,0-1.9-0.1-2.6-0.3c-0.8-0.2-1.5-0.5-2-0.8
		c-0.6-0.4-1-0.8-1.3-1.4s-0.5-1.2-0.5-2c0-1.3,0.4-2.3,1.1-2.9c0.8-0.7,1.9-1.1,3.5-1.3l3.6-0.4V429c0-0.5-0.2-0.9-0.7-1.2
		c-0.5-0.2-1.2-0.3-2-0.3c-0.7,0-1.4,0.1-2.1,0.2c-0.7,0.1-1.3,0.3-1.8,0.6c-0.2-0.2-0.4-0.4-0.6-0.8c-0.2-0.3-0.2-0.7-0.2-1.1
		c0-0.5,0.1-0.9,0.3-1.2c0.2-0.3,0.6-0.5,1.1-0.7c0.5-0.2,1.2-0.4,1.9-0.4C461.6,424.1,462.2,424,462.9,424z M463.1,434.9
		c0.3,0,0.7,0,1-0.1c0.4-0.1,0.7-0.2,0.8-0.3v-2.2l-2,0.2c-0.5,0-0.9,0.1-1.3,0.3c-0.3,0.2-0.5,0.5-0.5,0.8s0.1,0.7,0.4,0.9
		C461.9,434.8,462.4,434.9,463.1,434.9z"/>
	<path class="st9" d="M477.2,437.9c-0.2,0-0.5,0.1-0.9,0.2c-0.4,0.1-0.8,0.1-1.2,0.1c-0.4,0-0.8,0-1.1-0.1c-0.3-0.1-0.6-0.2-0.8-0.3
		c-0.2-0.2-0.4-0.4-0.5-0.7c-0.1-0.3-0.2-0.7-0.2-1.1v-16.1c0.2,0,0.5-0.1,0.9-0.2c0.4-0.1,0.8-0.1,1.2-0.1s0.8,0,1.1,0.1
		s0.6,0.2,0.8,0.3c0.2,0.2,0.4,0.4,0.5,0.7c0.1,0.3,0.2,0.7,0.2,1.1V437.9z"/>
	<path class="st9" d="M850.7,437.8c-0.2,0.1-0.5,0.1-1,0.2s-0.9,0.1-1.3,0.1c-0.4,0-0.8,0-1.1-0.1c-0.3-0.1-0.6-0.2-0.8-0.3
		c-0.2-0.2-0.4-0.4-0.5-0.7c-0.1-0.3-0.2-0.7-0.2-1.2v-4.3h-5.3v6.4c-0.2,0.1-0.5,0.1-1,0.2s-0.9,0.1-1.3,0.1c-0.4,0-0.8,0-1.1-0.1
		c-0.3-0.1-0.6-0.2-0.8-0.3c-0.2-0.2-0.4-0.4-0.5-0.7c-0.1-0.3-0.2-0.7-0.2-1.2v-14.6c0.2,0,0.5-0.1,1-0.2c0.4-0.1,0.9-0.1,1.3-0.1
		c0.4,0,0.8,0,1.1,0.1c0.3,0.1,0.6,0.2,0.8,0.3c0.2,0.2,0.4,0.4,0.5,0.7s0.2,0.7,0.2,1.2v4.4h5.3v-6.5c0.2,0,0.5-0.1,1-0.2
		c0.4-0.1,0.9-0.1,1.3-0.1c0.4,0,0.8,0,1.1,0.1c0.3,0.1,0.6,0.2,0.8,0.3c0.2,0.2,0.4,0.4,0.5,0.7s0.2,0.7,0.2,1.2V437.8z"/>
	<path class="st9" d="M867.9,431.2c0,1.1-0.2,2.2-0.5,3.1c-0.4,0.9-0.8,1.7-1.5,2.3s-1.4,1.1-2.3,1.4c-0.9,0.3-1.9,0.5-3,0.5
		c-1.1,0-2.1-0.2-3-0.5s-1.7-0.8-2.3-1.4c-0.6-0.6-1.1-1.4-1.5-2.3s-0.5-1.9-0.5-3c0-1.1,0.2-2.1,0.5-3s0.8-1.6,1.5-2.3
		s1.4-1.1,2.3-1.4s1.9-0.5,3-0.5c1.1,0,2.1,0.2,3,0.5c0.9,0.3,1.7,0.8,2.3,1.4c0.6,0.6,1.1,1.4,1.5,2.3
		C867.7,429.1,867.9,430.1,867.9,431.2z M858.2,431.2c0,1.1,0.2,2,0.7,2.6c0.4,0.6,1,0.9,1.8,0.9c0.8,0,1.4-0.3,1.8-0.9
		c0.4-0.6,0.6-1.5,0.6-2.6c0-1.1-0.2-2-0.6-2.6c-0.4-0.6-1-0.9-1.8-0.9s-1.4,0.3-1.8,0.9C858.4,429.2,858.2,430.1,858.2,431.2z"/>
	<path class="st9" d="M874.9,437.9c-0.2,0.1-0.5,0.1-0.9,0.2s-0.8,0.1-1.2,0.1c-0.4,0-0.8,0-1.1-0.1s-0.6-0.2-0.8-0.3
		c-0.2-0.2-0.4-0.4-0.5-0.7c-0.1-0.3-0.2-0.7-0.2-1.1v-8.3c0-0.4,0.1-0.8,0.2-1.1c0.2-0.3,0.4-0.6,0.7-0.8c0.3-0.2,0.7-0.5,1.1-0.7
		c0.4-0.2,0.9-0.4,1.4-0.5c0.5-0.1,1-0.3,1.6-0.3c0.5-0.1,1.1-0.1,1.6-0.1c0.9,0,1.6,0.2,2.1,0.5c0.5,0.3,0.8,0.9,0.8,1.7
		c0,0.3,0,0.5-0.1,0.8c-0.1,0.2-0.2,0.5-0.3,0.7c-0.4,0-0.8,0-1.2,0.1c-0.4,0-0.8,0.1-1.2,0.2c-0.4,0.1-0.8,0.2-1.1,0.2
		c-0.3,0.1-0.6,0.2-0.9,0.3V437.9z"/>
	<path class="st9" d="M881.5,420.7c0-0.7,0.2-1.3,0.7-1.8c0.5-0.5,1.1-0.7,1.9-0.7c0.8,0,1.4,0.2,1.9,0.7c0.5,0.5,0.7,1.1,0.7,1.8
		s-0.2,1.3-0.7,1.8c-0.5,0.5-1.1,0.7-1.9,0.7c-0.8,0-1.4-0.2-1.9-0.7C881.7,422,881.5,421.4,881.5,420.7z M886.4,437.9
		c-0.2,0-0.5,0.1-0.9,0.2c-0.4,0.1-0.8,0.1-1.2,0.1c-0.4,0-0.8,0-1.1-0.1c-0.3-0.1-0.6-0.2-0.8-0.3c-0.2-0.2-0.4-0.4-0.5-0.7
		c-0.1-0.3-0.2-0.7-0.2-1.1v-11.3c0.2,0,0.5-0.1,0.9-0.2c0.4-0.1,0.8-0.1,1.2-0.1c0.4,0,0.8,0,1.1,0.1c0.3,0.1,0.6,0.2,0.8,0.3
		c0.2,0.2,0.4,0.4,0.5,0.7c0.1,0.3,0.2,0.7,0.2,1.1V437.9z"/>
	<path class="st9" d="M889.9,437.9c-0.3-0.3-0.5-0.6-0.7-0.9c-0.2-0.4-0.3-0.7-0.3-1.2c0-0.4,0.1-0.7,0.3-1.1c0.2-0.4,0.4-0.7,0.7-1
		l4.8-5.6h-5.1c-0.1-0.2-0.2-0.5-0.3-0.8c-0.1-0.3-0.2-0.7-0.2-1c0-0.6,0.1-1.1,0.4-1.4c0.3-0.3,0.7-0.4,1.2-0.4h8.7
		c0.3,0.3,0.5,0.6,0.7,0.9c0.2,0.4,0.3,0.7,0.3,1.2c0,0.4-0.1,0.7-0.3,1.1s-0.4,0.7-0.7,1l-4.7,5.6h5.4c0.1,0.2,0.2,0.5,0.3,0.8
		s0.2,0.7,0.2,1c0,0.6-0.1,1.1-0.4,1.4s-0.7,0.4-1.2,0.4H889.9z"/>
	<path class="st9" d="M916.4,431.2c0,1.1-0.2,2.2-0.5,3.1c-0.4,0.9-0.8,1.7-1.5,2.3s-1.4,1.1-2.3,1.4c-0.9,0.3-1.9,0.5-3,0.5
		c-1.1,0-2.1-0.2-3-0.5s-1.7-0.8-2.3-1.4c-0.6-0.6-1.1-1.4-1.5-2.3s-0.5-1.9-0.5-3c0-1.1,0.2-2.1,0.5-3s0.8-1.6,1.5-2.3
		s1.4-1.1,2.3-1.4s1.9-0.5,3-0.5c1.1,0,2.1,0.2,3,0.5c0.9,0.3,1.7,0.8,2.3,1.4c0.6,0.6,1.1,1.4,1.5,2.3
		C916.2,429.1,916.4,430.1,916.4,431.2z M906.7,431.2c0,1.1,0.2,2,0.7,2.6c0.4,0.6,1,0.9,1.8,0.9c0.8,0,1.4-0.3,1.8-0.9
		c0.4-0.6,0.6-1.5,0.6-2.6c0-1.1-0.2-2-0.6-2.6c-0.4-0.6-1-0.9-1.8-0.9s-1.4,0.3-1.8,0.9C906.9,429.2,906.7,430.1,906.7,431.2z"/>
	<path class="st9" d="M927.3,429.4c0-0.6-0.2-1-0.5-1.3c-0.3-0.3-0.8-0.4-1.3-0.4c-0.4,0-0.7,0-1.1,0.1c-0.4,0.1-0.7,0.2-0.9,0.4
		v9.6c-0.2,0.1-0.5,0.1-0.9,0.2s-0.8,0.1-1.2,0.1c-0.4,0-0.8,0-1.1-0.1s-0.6-0.2-0.8-0.3c-0.2-0.2-0.4-0.4-0.5-0.7
		c-0.1-0.3-0.2-0.7-0.2-1.1v-8.3c0-0.5,0.1-0.9,0.3-1.2c0.2-0.3,0.5-0.6,0.9-0.9c0.6-0.4,1.4-0.8,2.4-1.1s2-0.4,3.2-0.4
		c2.1,0,3.7,0.5,4.8,1.4c1.1,0.9,1.7,2.2,1.7,3.8v8.7c-0.2,0.1-0.5,0.1-0.9,0.2s-0.8,0.1-1.2,0.1c-0.4,0-0.8,0-1.1-0.1
		s-0.6-0.2-0.8-0.3c-0.2-0.2-0.4-0.4-0.5-0.7c-0.1-0.3-0.2-0.7-0.2-1.1V429.4z"/>
	<path class="st9" d="M939.6,433.3c0,0.5,0.2,0.8,0.5,1c0.3,0.2,0.7,0.3,1.3,0.3c0.3,0,0.6,0,0.9-0.1s0.6-0.1,0.8-0.2
		c0.2,0.2,0.3,0.4,0.4,0.7s0.2,0.6,0.2,0.9c0,0.7-0.3,1.3-0.8,1.7c-0.5,0.4-1.5,0.7-2.8,0.7c-1.6,0-2.9-0.4-3.8-1.1
		s-1.3-1.9-1.3-3.6v-11.9c0.2-0.1,0.5-0.1,0.9-0.2c0.4-0.1,0.8-0.1,1.2-0.1c0.8,0,1.4,0.1,1.9,0.4c0.5,0.3,0.7,0.9,0.7,1.8v1.8h3.6
		c0.1,0.2,0.2,0.5,0.3,0.8c0.1,0.3,0.2,0.6,0.2,1c0,0.6-0.1,1.1-0.4,1.4c-0.3,0.3-0.7,0.4-1.2,0.4h-2.5V433.3z"/>
	<path class="st9" d="M951.5,424c1,0,1.9,0.1,2.7,0.3c0.8,0.2,1.5,0.5,2.1,0.9c0.6,0.4,1,0.9,1.3,1.6c0.3,0.6,0.5,1.4,0.5,2.3v6.2
		c0,0.5-0.1,0.9-0.4,1.2c-0.3,0.3-0.6,0.6-1,0.8c-1.2,0.7-2.9,1.1-5.1,1.1c-1,0-1.9-0.1-2.6-0.3c-0.8-0.2-1.5-0.5-2-0.8
		c-0.6-0.4-1-0.8-1.3-1.4c-0.3-0.6-0.5-1.2-0.5-2c0-1.3,0.4-2.3,1.1-2.9c0.8-0.7,1.9-1.1,3.5-1.3l3.6-0.4V429c0-0.5-0.2-0.9-0.7-1.2
		c-0.5-0.2-1.2-0.3-2-0.3c-0.7,0-1.4,0.1-2.1,0.2c-0.7,0.1-1.3,0.3-1.8,0.6c-0.2-0.2-0.4-0.4-0.6-0.8c-0.2-0.3-0.2-0.7-0.2-1.1
		c0-0.5,0.1-0.9,0.3-1.2c0.2-0.3,0.6-0.5,1.1-0.7c0.5-0.2,1.2-0.4,1.9-0.4S950.9,424,951.5,424z M951.8,434.9c0.3,0,0.7,0,1-0.1
		c0.4-0.1,0.7-0.2,0.8-0.3v-2.2l-2,0.2c-0.5,0-0.9,0.1-1.3,0.3s-0.5,0.5-0.5,0.8s0.1,0.7,0.4,0.9
		C950.6,434.8,951.1,434.9,951.8,434.9z"/>
	<path class="st9" d="M965.9,437.9c-0.2,0-0.5,0.1-0.9,0.2c-0.4,0.1-0.8,0.1-1.2,0.1c-0.4,0-0.8,0-1.1-0.1c-0.3-0.1-0.6-0.2-0.8-0.3
		c-0.2-0.2-0.4-0.4-0.5-0.7c-0.1-0.3-0.2-0.7-0.2-1.1v-16.1c0.2,0,0.5-0.1,0.9-0.2c0.4-0.1,0.8-0.1,1.2-0.1s0.8,0,1.1,0.1
		s0.6,0.2,0.8,0.3c0.2,0.2,0.4,0.4,0.5,0.7c0.1,0.3,0.2,0.7,0.2,1.1V437.9z"/>
</g>
</svg>
