<?xml version="1.0" encoding="utf-8"?>
<!-- Generator: Adobe Illustrator 26.0.2, SVG Export Plug-In . SVG Version: 6.00 Build 0)  -->
<svg version="1.1" id="Layer_1" xmlns="http://www.w3.org/2000/svg" xmlns:xlink="http://www.w3.org/1999/xlink" x="0px" y="0px"
	 viewBox="0 0 590 413" style="enable-background:new 0 0 590 413;" xml:space="preserve">
<style type="text/css">
	.st0{fill:#1500AF;}
	.st1{fill:#EABD00;}
	.st2{fill:#E0E0E0;}
	.st3{fill:#D81376;}
</style>
<g>
	<path class="st0" d="M177,0v412.8h345V0H177z M448.3,291.7l-26.1,5.2l-22.5,8.9L351.6,319l-47.5-8.5l-61.1-21l31.9,5.2l25.7,2.8
		l53,3.4l61.3-9.9l22.3-1l26.2-2.5L448.3,291.7z"/>
	<path class="st1" d="M508.4,388H198V16.9h310.4V388z M200.1,385.9h306.2V19H200.1V385.9z"/>
	<g>
		<polygon class="st1" points="374.6,120.3 391,116 372,110.6 360.2,106 349.2,108 341.8,115.2 334.5,127.4 332.7,136 328.6,143.1 
			320.6,149.2 308.8,164.4 298.3,175.5 291.4,189.6 285.5,224.8 288.5,237.7 296.7,247.7 303.2,235.9 302.6,223.8 307.3,197 
			310.8,191.4 308.6,209.5 311,245.1 320.7,271.6 323.6,283.7 330.3,291.6 335.2,291.7 339.8,297.5 341.3,291.2 349.2,295.7 
			349,290.8 353.6,291.6 349.4,284.5 344.4,281 344.6,279 348.6,279.7 349.6,282.7 350.3,287.3 353.8,287.6 357.2,293.9 
			360.5,288.3 367.1,294.4 367.4,288.6 374.1,292 370.9,282.1 373.2,275.9 370.9,270.2 378.7,241.3 379.9,242.5 385.1,234.2 
			386.7,220.4 384.6,193.9 379.5,185.3 378.6,174.1 374.3,151.4 367.4,144.8 363.6,138 363.6,133.6 		"/>
		<g>
			<path class="st0" d="M382.8,194.9l-9-15.6l0.4,7.9l6.5,7.7l2.5,24.8L382,234l-2,3.4l-3.7-6l0,0.2l3.5,7.4c0,0,2.6-4,2.9-4.1
				c0.3-0.1,2-13.9,2-13.9L382.8,194.9z"/>
			<g>
				<polygon class="st2" points="382,234 383.3,219.7 380.7,194.9 374.2,187.3 376.3,231.4 380,237.4 				"/>
				<path class="st0" d="M380,237.6l-3.8-6.2l0,0l-2.1-44.4l6.7,7.9l0,0l2.5,24.8l-1.3,14.3l0,0L380,237.6z M376.5,231.3l3.5,5.9
					l1.9-3.2l1.3-14.3l-2.5-24.7l-6.3-7.4L376.5,231.3z"/>
			</g>
			<g>
				<polygon class="st2" points="371.7,152.9 364.8,146.4 360.6,138.8 360.6,132.3 372.2,118.7 385.6,115.9 371.1,112.6 360,108 
					350.1,110.1 343.8,117.2 337.3,128.1 335.6,136.7 331,144.7 322.6,150.8 315.1,177.4 311.7,210.4 314.2,245.7 323.2,269.3 
					332.9,275.7 342.6,277.4 349.9,278.6 354.9,274 358.5,274 368.4,270.4 377.6,238.7 378.7,210.2 376.8,175.3 				"/>
				<path class="st0" d="M350,278.8l-7.4-1.3l-9.7-1.7l0,0l-9.8-6.4l0-0.1l-9-23.7l0,0l-2.5-35.3l0,0l3.4-33l0,0l7.6-26.7l8.4-6.1
					l4.6-7.9l1.7-8.6l0,0l6.5-10.9l6.4-7.2l10-2.1l0.1,0l11.1,4.6l15.4,3.6l-14.3,2.9l-11.4,13.5v6.4l4.2,7.5l7,6.5l5.1,22.6
					l1.9,34.8l-1.1,28.6l0,0l-9.3,31.8l-10,3.6h-3.6L350,278.8z M333,275.5l9.6,1.7l7.2,1.2l4.9-4.6h3.7l9.7-3.5l9.2-31.6l1-28.5
					l-1.9-34.8l-5-22.4l-6.9-6.5l0,0l-4.2-7.6v-6.6l0-0.1l11.6-13.7l0.1,0l12.5-2.5l-13.6-3.2l-11.1-4.6l-9.7,2.1l-6.2,7.1
					l-6.5,10.9l-1.7,8.6l-4.7,8l-8.4,6.1l-7.5,26.6l-3.4,32.9l2.5,35.2l8.9,23.6L333,275.5z"/>
			</g>
			<polygon class="st0" points="325.4,153.4 322.6,150.8 311.7,165.7 301.4,176.8 294.3,190.4 288.5,224.4 291.1,236.4 296.2,243.2 
				300.8,235.4 300.1,223.8 305.6,194.9 314.7,181.3 319.8,167.1 			"/>
			<polygon class="st0" points="331,144.7 336.2,142.9 339.3,139.2 342,138.5 341.4,141 338.8,144.7 331,147.8 325.4,156.1 
				322.2,163.1 320.5,178.9 317.1,183.8 318,208.5 314,242.4 311.7,210.4 315.1,177.4 322.6,150.8 			"/>
			<polygon class="st0" points="337.3,128.1 337.3,128.1 343.2,121.5 345.4,123.3 344.1,130.4 345.4,133 358.7,131.7 360.6,132.3 
				372.2,118.7 385.6,115.9 371.1,112.6 360,108 350.1,110.1 343.7,116.6 			"/>
			<polygon class="st0" points="338.5,283.7 333,284.9 331.4,289.4 336.3,289.7 339,294.2 340,288.5 347.6,292.9 346.8,288.5 
				352,290.2 348.6,285.8 342.6,281.1 341.4,282.4 			"/>
			<polygon class="st0" points="357.8,279.4 354.7,279.4 350.9,282.6 351.2,285.5 354.7,286.6 357.2,291 360.6,285.8 366.1,291.8 
				366.3,286.4 371.7,289.7 368.8,282.2 362,281.8 			"/>
			<g>
				<polygon class="st2" points="323.5,269.4 324.3,272.2 326.6,283.2 331.4,288.7 333,284.9 338.5,283.7 341.4,282.4 342.6,281.1 
					342.6,277.4 332.9,275.7 				"/>
				<path class="st0" d="M331.5,289.3l-5.2-5.9l0-0.1l-2.3-11l-1.1-3.7l10.1,6.7l9.8,1.7v4.2l-1.3,1.4l-3,1.4l-5.3,1.1L331.5,289.3z
					 M326.9,283.1l4.4,5l1.5-3.5l5.6-1.2l2.8-1.3l1.1-1.1v-3.4l-9.4-1.6l-8.8-5.9l0.6,2L326.9,283.1z"/>
			</g>
			<g>
				<polygon class="st2" points="354.9,274 349.9,278.6 351.2,282.4 354.7,279.4 357.8,279.4 362,281.8 368.6,282.2 370.5,276.1 
					368.4,270.4 358.5,274 				"/>
				<path class="st0" d="M351,282.9l-1.5-4.4l5.2-4.9h3.8l10.1-3.6l2.2,6.1l-2,6.4l-6.9-0.4l-4.2-2.4h-3L351,282.9z M362.1,281.5
					l6.2,0.4l1.8-5.7l-2-5.3l-9.6,3.5H355l-4.7,4.4l1,3.1l3.2-2.8h3.4L362.1,281.5z"/>
			</g>
			<polygon class="st0" points="337.3,128.1 337.3,136.3 342,138.5 336.2,142.9 331,144.7 335.6,136.7 			"/>
			<polygon points="353.4,116.7 355,115.7 356.5,116.7 355,118.2 			"/>
			<polygon class="st3" points="372.9,114.8 365.7,119.4 372.9,116.7 381.8,115.7 			"/>
		</g>
	</g>
	<g>
		<path class="st2" d="M299.6,67.3v0.4h-10v-0.4h2.2l-2.1-5.1h-6.2l-1.7,5.1h2.8v0.4h-6v-0.4h1.1l8.6-19.6h1.4l8.6,19.6H299.6z
			 M289.5,61.7l-3.3-7.9l-2.5,7.9H289.5z"/>
		<path class="st2" d="M316.9,67.3v0.4H309v-0.4h1.1v-8.2c0-2.1-0.5-2.8-1.6-2.8c-0.5,0-1.1,0.2-1.6,0.4v10.6h1.1v0.4h-7.9v-0.4h1.4
			v-9.9l-1.5-1.3l7-2.4v2.7c1.8-1.5,3.3-2.6,5.2-2.6c2.3,0,3.5,1.4,3.5,4.2v9.3H316.9z"/>
		<path class="st2" d="M328.8,65.3c-1,1.6-2.8,2.8-5.3,2.8c-3.2,0-4.5-1.9-4.5-5.4v-7.7h-2.1v0l7.5-5.9v5.5h3.8v0.4h-3.8v6.3
			c0,3.1,0.7,4.3,2.7,4.3C327.8,65.5,328.2,65.4,328.8,65.3L328.8,65.3z"/>
		<path class="st2" d="M343,67.3v0.4h-6.8v-1.5c-1.3,1.1-2.7,1.8-4.2,1.8c-1.8,0-3-1-3-2.7c0-2.5,2.7-4.1,7.2-4.6
			c0-3-1.2-4.5-3.3-4.5c-1.2,0-2.1,0.3-3,1l-0.1-0.1c1.8-2.1,3.8-3.2,6.6-3.2c3.4,0,5.2,2,5.2,5.9v7.5H343z M336.2,65.8V61
			c-1.6,0.5-2.3,1.5-2.3,2.9c0,1.3,0.5,2,1.6,2C335.8,65.9,336,65.9,336.2,65.8z"/>
		<path class="st2" d="M355.9,54v7.2h0c-2.8-3.1-4.1-3.8-5-3.7v9.8h2v0.4H344v-0.4h1.4v-9.8l-1.5-1.3l7-2.3v3.4
			c1.5-2,3.3-3.3,4.6-3.3C355.5,53.9,355.7,53.9,355.9,54z"/>
		<path class="st2" d="M357.5,61.2c0-4,2.9-7.3,7.5-7.3c1.5,0,2.9,0.2,4.7,0.9l-1.1,7.6h0c-2.5-4.8-4.9-7.4-6.5-7.4
			c-0.7,0-1.1,0.5-1.1,1.5c0,4.4,4.3,9,8.1,9c0.4,0,0.6,0,0.8-0.1l0,0c-1.2,1.8-3.2,2.7-5.6,2.7C360.6,68,357.5,65.4,357.5,61.2z"/>
		<path class="st2" d="M382.7,65.3c-1,1.6-2.8,2.8-5.3,2.8c-3.2,0-4.5-1.9-4.5-5.4v-7.7h-2.1v0l7.5-5.9v5.5h3.8v0.4h-3.8v6.3
			c0,3.1,0.7,4.3,2.7,4.3C381.6,65.5,382.1,65.4,382.7,65.3L382.7,65.3z"/>
		<path class="st2" d="M383,67.3h1.4v-9.9l-1.5-1.3l7-2.4v13.7h1.4v0.4H383V67.3z M384.1,50.2c0-1.8,1.1-3,3-3c1.9,0,3,1.2,3,3
			c0,1.8-1.1,3-3,3C385.2,53.2,384.1,52,384.1,50.2z"/>
		<path class="st2" d="M392.6,61.2c0-4,2.9-7.3,7.5-7.3c1.5,0,2.9,0.2,4.7,0.9l-1.1,7.6h0c-2.5-4.8-4.9-7.4-6.5-7.4
			c-0.7,0-1.1,0.5-1.1,1.5c0,4.4,4.3,9,8.1,9c0.4,0,0.6,0,0.8-0.1l0,0c-1.2,1.8-3.2,2.7-5.6,2.7C395.7,68,392.6,65.4,392.6,61.2z"/>
		<path class="st2" d="M419.9,67.3v0.4h-6.8v-1.5c-1.3,1.1-2.7,1.8-4.2,1.8c-1.8,0-3-1-3-2.7c0-2.5,2.7-4.1,7.2-4.6
			c0-3-1.2-4.5-3.3-4.5c-1.2,0-2.1,0.3-3,1l-0.1-0.1c1.8-2.1,3.8-3.2,6.6-3.2c3.4,0,5.2,2,5.2,5.9v7.5H419.9z M413.2,65.8V61
			c-1.6,0.5-2.3,1.5-2.3,2.9c0,1.3,0.5,2,1.6,2C412.7,65.9,412.9,65.9,413.2,65.8z"/>
	</g>
	<g>
		<path class="st2" d="M340.4,86.5l-1,0.2l-1.3-7.1l0,0c-0.2,0.3-0.5,1.1-1.1,2.4c-0.6,1.2-1.1,2.5-1.7,3.8h-0.9
			c-0.5-1.2-1.1-2.4-1.7-3.8c-0.6-1.4-1-2.1-1.1-2.4l0,0c0,0.1-0.2,0.9-0.5,2.4c-0.3,1.5-0.6,3.1-0.9,4.7l-1-0.2
			c0.4-1.8,0.8-3.6,1.2-5.4c0.4-1.8,0.6-2.8,0.6-2.9l1-0.1c0,0.1,0.3,0.8,0.9,2c0.6,1.3,1.2,2.7,2,4.4h0c0.6-1.3,1.2-2.7,1.8-4.1
			c0.6-1.5,1-2.2,1-2.3l1,0.1c0,0.1,0.2,1,0.5,2.8C339.6,82.7,340,84.5,340.4,86.5z"/>
		<path class="st2" d="M347.4,83.2h-4.6c0,0.4,0.1,0.9,0.3,1.2c0.2,0.4,0.5,0.7,0.9,0.9c0.2,0.2,0.5,0.3,0.8,0.4
			c0.3,0.1,0.7,0.1,1.1,0.1c0.2,0,0.5,0,0.7,0c0.2,0,0.3,0,0.4,0l-0.1,0.8c0,0-0.1,0-0.3,0c-0.2,0-0.4,0-0.7,0
			c-0.7,0-1.3-0.1-1.8-0.3c-0.5-0.2-0.9-0.4-1.2-0.7c-0.3-0.3-0.5-0.6-0.7-1c-0.2-0.4-0.3-0.8-0.3-1.3c0-0.5,0.1-0.9,0.2-1.3
			c0.1-0.4,0.4-0.8,0.6-1.1c0.2-0.3,0.6-0.5,0.9-0.7c0.4-0.2,0.8-0.2,1.2-0.2c0.4,0,0.7,0.1,1,0.2c0.3,0.1,0.6,0.3,0.8,0.5
			c0.2,0.3,0.4,0.6,0.6,1C347.3,82.2,347.4,82.6,347.4,83.2z M346.4,82.5c-0.1-0.5-0.2-0.9-0.5-1.2c-0.3-0.3-0.7-0.4-1.1-0.4
			c-0.5,0-0.9,0.2-1.2,0.5c-0.3,0.3-0.5,0.7-0.7,1.2H346.4z"/>
		<path class="st2" d="M353.1,81c-0.2,0.1-0.6,0.2-1.1,0.3c-0.5,0.2-1,0.4-1.7,0.7c0,0,0,0.3,0,0.6c0,0.4,0,0.7,0,1.1
			c0,0.5,0,1.1,0,1.8c0,0.7,0,1.1,0,1.1h-1c0-0.1,0-0.3,0-0.7c0-0.4,0-1.1,0-2.1c0-0.4,0-0.9,0-1.7c0-0.7,0-1.4,0-2h1v1l0,0
			c0.5-0.3,0.9-0.5,1.4-0.7c0.5-0.2,0.8-0.3,1.1-0.4L353.1,81z"/>
		<path class="st2" d="M355.7,86.6h-1c0-0.1,0-0.7,0-1.9c0-1.2,0-2.2,0-3c0-0.5,0-1.1,0-1.9c0-0.8,0-1.6,0-2.6h1c0,0.7,0,1.4,0,2.3
			c0,0.9,0,1.6,0,2.2c0,1.3,0,2.4,0,3.4C355.7,86.1,355.7,86.6,355.7,86.6z"/>
		<path class="st2" d="M364,83.4c0,0.5-0.1,1-0.3,1.4c-0.2,0.4-0.4,0.8-0.8,1.1c-0.3,0.3-0.6,0.5-0.9,0.6c-0.3,0.1-0.7,0.2-1.2,0.2
			c-0.4,0-0.8-0.1-1.1-0.2c-0.4-0.1-0.7-0.3-1-0.6c-0.3-0.3-0.6-0.7-0.7-1.1c-0.2-0.5-0.3-0.9-0.3-1.4c0-0.5,0.1-0.9,0.2-1.3
			c0.1-0.4,0.4-0.8,0.7-1.1c0.3-0.3,0.6-0.5,1-0.7c0.4-0.2,0.8-0.2,1.2-0.2c0.4,0,0.8,0.1,1.2,0.2c0.4,0.1,0.7,0.4,1,0.7
			c0.3,0.3,0.6,0.7,0.7,1.1C364,82.5,364,82.9,364,83.4z M363,83.5c0-0.4-0.1-0.8-0.2-1.2c-0.1-0.4-0.3-0.7-0.6-1
			c-0.2-0.2-0.4-0.3-0.6-0.4c-0.2-0.1-0.5-0.1-0.7-0.1c-0.3,0-0.5,0-0.8,0.1c-0.2,0.1-0.4,0.2-0.6,0.4c-0.2,0.2-0.4,0.5-0.5,0.9
			c-0.1,0.4-0.2,0.7-0.2,1.1c0,0.4,0.1,0.8,0.2,1.2c0.1,0.4,0.3,0.7,0.6,0.9c0.2,0.1,0.4,0.3,0.6,0.3s0.4,0.1,0.7,0.1
			c0.3,0,0.5,0,0.7-0.1c0.2-0.1,0.4-0.2,0.6-0.4c0.2-0.2,0.4-0.5,0.6-0.9C363,84.2,363,83.9,363,83.5z"/>
		<path class="st2" d="M369.6,85.9l-0.1,0.8c0,0-0.1,0-0.2,0c-0.1,0-0.2,0-0.3,0c-0.9,0-1.5-0.2-2-0.5c-0.4-0.4-0.7-0.9-0.7-1.7
			c0-0.5,0-1,0-1.5c0-0.5,0-1.2,0-2h-1.1v-0.7h1.1v-1.5h0.9v1.5h2.3V81h-2.3c0,0.1,0,0.4,0,0.8c0,0.4,0,0.8,0,1c0,0.2,0,0.4,0,0.7
			c0,0.3,0,0.6,0,0.9c0,0.6,0.1,0.9,0.4,1.2c0.3,0.2,0.8,0.4,1.4,0.4c0.1,0,0.2,0,0.3,0C369.5,85.9,369.5,85.9,369.6,85.9z"/>
	</g>
	<g>
		<g>
			<path class="st2" d="M446.9,378.1h-0.8c0-0.1,0-0.4,0-0.9s0-1.2,0-2.1c0-0.2,0-0.4,0-0.7c0-0.3,0-0.5,0-0.7l0,0
				c-0.1,0.1-0.4,0.2-0.7,0.4c-0.3,0.2-0.6,0.4-0.9,0.6l-0.3-0.4c0.4-0.3,0.8-0.6,1.3-0.9c0.5-0.3,0.7-0.5,0.8-0.5l0.6,0.4
				c0,0.5,0,1,0,1.5c0,0.5,0,0.8,0,0.9c0,0.4,0,0.9,0,1.5S446.9,378,446.9,378.1z"/>
			<path class="st2" d="M452.5,373.8c0,0-0.3,0-0.9,0c-0.6,0-1.2,0-2,0v1.9c0.4,0,0.7,0.1,1,0.1c0.3,0.1,0.5,0.2,0.7,0.3
				c0.3,0.2,0.6,0.4,0.7,0.6c0.2,0.3,0.2,0.6,0.2,0.9c0,0.3-0.1,0.6-0.3,0.9c-0.2,0.3-0.5,0.5-0.8,0.7c-0.3,0.1-0.6,0.2-0.9,0.3
				c-0.4,0.1-0.8,0.1-1.2,0.1c-0.1,0-0.1,0-0.2,0c-0.1,0-0.1,0-0.2,0l-0.1-0.7c0,0,0.1,0,0.1,0c0.1,0,0.1,0,0.1,0c0.4,0,0.7,0,1-0.1
				c0.3-0.1,0.6-0.1,0.8-0.2c0.3-0.1,0.4-0.3,0.5-0.4c0.1-0.2,0.2-0.4,0.2-0.6c0-0.2-0.1-0.4-0.2-0.6c-0.1-0.2-0.4-0.3-0.7-0.4
				c-0.2-0.1-0.4-0.1-0.6-0.1c-0.2,0-0.5-0.1-0.8-0.1c0,0-0.1,0-0.2,0c-0.1,0-0.1,0-0.1,0c0,0,0-0.3,0-0.7s0-0.7,0-1
				c0-0.2,0-0.6,0-1c0-0.4,0-0.6,0-0.6c0,0,0.2,0,0.6,0c0.4,0,0.8,0,1.1,0c0.3,0,0.7,0,1.1,0c0.4,0,0.7,0,0.7,0V373.8z"/>
			<path class="st2" d="M457.2,373.4c0,0.3,0,0.5-0.1,0.8c-0.1,0.3-0.2,0.5-0.4,0.6c-0.2,0.2-0.4,0.3-0.6,0.4
				c-0.2,0.1-0.5,0.1-0.8,0.1c-0.3,0-0.5,0-0.8-0.1c-0.2-0.1-0.4-0.2-0.6-0.4c-0.2-0.2-0.3-0.4-0.4-0.6c-0.1-0.2-0.1-0.5-0.1-0.8
				c0-0.3,0-0.5,0.1-0.8s0.2-0.4,0.4-0.6c0.2-0.2,0.4-0.3,0.6-0.4c0.2-0.1,0.5-0.2,0.8-0.2c0.3,0,0.6,0.1,0.8,0.2
				c0.2,0.1,0.4,0.2,0.6,0.4c0.2,0.2,0.3,0.4,0.4,0.6C457.2,372.8,457.2,373.1,457.2,373.4z M456.5,373.4c0-0.2,0-0.4-0.1-0.6
				c-0.1-0.2-0.2-0.3-0.3-0.5c-0.1-0.1-0.2-0.2-0.4-0.2c-0.1-0.1-0.3-0.1-0.5-0.1c-0.2,0-0.3,0-0.5,0.1c-0.1,0.1-0.3,0.1-0.4,0.2
				c-0.1,0.1-0.2,0.3-0.3,0.5c-0.1,0.2-0.1,0.4-0.1,0.6c0,0.2,0,0.4,0.1,0.6c0.1,0.2,0.2,0.3,0.3,0.5c0.1,0.1,0.2,0.2,0.4,0.2
				c0.1,0.1,0.3,0.1,0.4,0.1c0.1,0,0.3,0,0.4-0.1c0.1-0.1,0.3-0.1,0.4-0.2c0.1-0.1,0.2-0.3,0.3-0.5
				C456.5,373.8,456.5,373.6,456.5,373.4z M460.5,371.6c-0.4,0.5-0.8,1.2-1.2,1.8c-0.4,0.7-0.8,1.3-1.2,1.8c-0.5,0.8-1,1.6-1.5,2.3
				c-0.4,0.7-0.7,1.1-0.7,1.2l-0.5-0.4c0.1-0.1,0.3-0.5,0.8-1.2c0.4-0.7,0.9-1.4,1.5-2.3c0.3-0.5,0.7-1.1,1.2-1.8
				c0.4-0.7,0.8-1.3,1.2-1.9L460.5,371.6z M462.5,376.3c0,0.3,0,0.5-0.1,0.8c-0.1,0.3-0.2,0.5-0.4,0.6c-0.2,0.2-0.4,0.3-0.6,0.4
				c-0.2,0.1-0.5,0.1-0.8,0.1c-0.3,0-0.5,0-0.8-0.1c-0.2-0.1-0.4-0.2-0.6-0.4c-0.2-0.2-0.3-0.4-0.4-0.6c-0.1-0.2-0.1-0.5-0.1-0.8
				c0-0.3,0-0.5,0.1-0.8c0.1-0.2,0.2-0.4,0.4-0.6c0.2-0.2,0.4-0.3,0.6-0.4c0.2-0.1,0.5-0.2,0.8-0.2c0.3,0,0.6,0.1,0.8,0.2
				c0.2,0.1,0.4,0.2,0.6,0.4c0.2,0.2,0.3,0.4,0.4,0.6S462.5,376,462.5,376.3z M461.8,376.4c0-0.2,0-0.4-0.1-0.6
				c-0.1-0.2-0.2-0.3-0.3-0.5c-0.1-0.1-0.2-0.2-0.4-0.2c-0.1-0.1-0.3-0.1-0.5-0.1c-0.2,0-0.3,0-0.5,0.1c-0.1,0.1-0.3,0.1-0.4,0.2
				c-0.1,0.1-0.2,0.3-0.3,0.5c-0.1,0.2-0.1,0.4-0.1,0.6c0,0.2,0,0.4,0.1,0.6c0.1,0.2,0.2,0.3,0.3,0.5c0.1,0.1,0.2,0.2,0.4,0.2
				c0.1,0.1,0.3,0.1,0.4,0.1c0.1,0,0.3,0,0.4-0.1c0.1-0.1,0.3-0.1,0.4-0.2c0.1-0.1,0.2-0.3,0.3-0.5
				C461.8,376.8,461.8,376.6,461.8,376.4z"/>
			<path class="st2" d="M470.3,375.2c0,0.8,0,1.5,0,2.1c0,0.5,0,0.8,0,0.9c0,0-0.2,0-0.5,0c-0.3,0-0.6,0-1.1,0c-0.3,0-0.6,0-0.8-0.1
				c-0.3-0.1-0.5-0.1-0.7-0.2c-0.3-0.1-0.5-0.3-0.7-0.5c-0.2-0.2-0.3-0.5-0.3-0.8c0-0.3,0.1-0.6,0.3-0.8s0.5-0.4,0.8-0.6
				c0.2-0.1,0.5-0.2,0.9-0.2c0.4-0.1,0.8-0.1,1.3-0.2c0-0.3-0.1-0.5-0.2-0.6c-0.1-0.2-0.3-0.3-0.5-0.4c-0.1-0.1-0.3-0.1-0.5-0.1
				s-0.4,0-0.6,0c-0.2,0-0.3,0-0.4,0s-0.3,0-0.4,0l0.1-0.7c0.1,0,0.2,0,0.3,0c0.2,0,0.4,0,0.6,0c0.4,0,0.8,0,1.1,0.1
				c0.3,0.1,0.6,0.2,0.8,0.4c0.2,0.2,0.3,0.4,0.4,0.7C470.2,374.4,470.3,374.8,470.3,375.2z M469.5,376.5c0-0.1,0-0.3,0-0.4
				s0-0.4,0-0.6c-0.1,0-0.4,0-0.8,0.1c-0.4,0.1-0.7,0.1-0.9,0.2c-0.2,0.1-0.4,0.2-0.5,0.3c-0.1,0.1-0.2,0.3-0.2,0.5
				c0,0.2,0.1,0.4,0.2,0.6c0.1,0.1,0.3,0.2,0.5,0.3c0.2,0.1,0.3,0.1,0.6,0.1c0.2,0,0.4,0,0.6,0c0.1,0,0.2,0,0.2,0c0.1,0,0.2,0,0.3,0
				c0,0,0-0.1,0-0.3C469.5,377.1,469.5,376.8,469.5,376.5z"/>
			<path class="st2" d="M472.9,378.1h-0.8c0,0,0-0.5,0-1.5c0-0.9,0-1.7,0-2.4c0-0.4,0-0.9,0-1.5c0-0.6,0-1.3,0-2.1h0.8
				c0,0.5,0,1.1,0,1.8c0,0.7,0,1.3,0,1.7c0,1,0,1.9,0,2.7C472.9,377.7,472.9,378.1,472.9,378.1z"/>
			<path class="st2" d="M478.2,377.5l-0.1,0.7c0,0-0.1,0-0.1,0c-0.1,0-0.1,0-0.1,0c-0.4,0-0.8,0-1.2-0.1c-0.4-0.1-0.7-0.2-1-0.4
				c-0.4-0.2-0.7-0.5-1-0.9c-0.2-0.4-0.3-0.8-0.3-1.2c0-0.4,0.1-0.8,0.3-1.1c0.2-0.3,0.5-0.6,0.8-0.8c0.3-0.2,0.7-0.3,1.1-0.4
				c0.4-0.1,0.9-0.2,1.3-0.2c0,0,0.1,0,0.1,0c0,0,0.1,0,0.1,0l0,0.7c0,0-0.1,0-0.1,0c0,0-0.1,0-0.1,0c-0.4,0-0.7,0-1,0.1
				c-0.3,0-0.5,0.1-0.8,0.2c-0.3,0.1-0.6,0.3-0.8,0.6c-0.2,0.3-0.3,0.6-0.3,0.9c0,0.4,0.1,0.7,0.3,1c0.2,0.3,0.4,0.5,0.7,0.6
				c0.2,0.1,0.5,0.2,0.8,0.2c0.3,0.1,0.6,0.1,0.9,0.1c0.1,0,0.1,0,0.2,0C478.2,377.5,478.2,377.5,478.2,377.5z"/>
			<path class="st2" d="M480.5,378.1h-1v-1.1h1V378.1z"/>
			<path class="st2" d="M485,371.3c-0.2,0.6-0.5,1.3-0.8,2.2c-0.3,0.9-0.6,1.6-0.8,2.1c-0.4,1.2-0.8,2.2-1.1,3.1
				c-0.3,0.9-0.5,1.4-0.5,1.6l-0.6-0.2c0.1-0.2,0.2-0.7,0.6-1.6c0.3-0.9,0.7-1.9,1.1-3.1c0.2-0.6,0.5-1.4,0.8-2.2
				c0.3-0.8,0.6-1.6,0.8-2.2L485,371.3z"/>
			<path class="st2" d="M490.1,373.2c-0.4,1-0.9,2.1-1.4,3.2c-0.5,1.1-0.8,1.7-0.8,1.7h-0.6c0,0-0.3-0.6-0.7-1.7s-1-2.1-1.5-3.2
				l0.7-0.3l1.8,4.2h0l1.7-4.2L490.1,373.2z"/>
			<path class="st2" d="M495.8,375.6c0,0.4-0.1,0.8-0.2,1.1c-0.1,0.4-0.3,0.7-0.6,0.9c-0.2,0.2-0.5,0.4-0.7,0.5
				c-0.3,0.1-0.6,0.2-0.9,0.2c-0.3,0-0.6-0.1-0.9-0.2c-0.3-0.1-0.5-0.3-0.8-0.5c-0.3-0.2-0.5-0.6-0.6-0.9c-0.1-0.4-0.2-0.7-0.2-1.1
				c0-0.4,0.1-0.7,0.2-1.1c0.1-0.3,0.3-0.6,0.6-0.9c0.2-0.2,0.5-0.4,0.8-0.5c0.3-0.1,0.6-0.2,1-0.2c0.4,0,0.7,0.1,1,0.2
				c0.3,0.1,0.5,0.3,0.8,0.5c0.3,0.3,0.4,0.6,0.6,0.9C495.7,374.8,495.8,375.2,495.8,375.6z M495,375.6c0-0.3-0.1-0.6-0.2-0.9
				c-0.1-0.3-0.3-0.6-0.5-0.8c-0.1-0.1-0.3-0.2-0.5-0.3c-0.2-0.1-0.4-0.1-0.6-0.1c-0.2,0-0.4,0-0.6,0.1c-0.2,0.1-0.3,0.2-0.5,0.4
				c-0.2,0.2-0.3,0.4-0.4,0.7c-0.1,0.3-0.2,0.6-0.2,0.9c0,0.3,0.1,0.7,0.2,1c0.1,0.3,0.3,0.5,0.5,0.7c0.1,0.1,0.3,0.2,0.5,0.3
				s0.4,0.1,0.5,0.1c0.2,0,0.4,0,0.6-0.1c0.2-0.1,0.3-0.2,0.5-0.3c0.2-0.2,0.3-0.4,0.4-0.7C494.9,376.2,495,375.9,495,375.6z"/>
			<path class="st2" d="M498.1,378.1h-0.8c0,0,0-0.5,0-1.5c0-0.9,0-1.7,0-2.4c0-0.4,0-0.9,0-1.5c0-0.6,0-1.3,0-2.1h0.8
				c0,0.5,0,1.1,0,1.8c0,0.7,0,1.3,0,1.7c0,1,0,1.9,0,2.7C498.1,377.7,498.1,378.1,498.1,378.1z"/>
			<path class="st2" d="M500.9,378.1h-1v-1.1h1V378.1z"/>
		</g>
	</g>
	<g>
		<g>
			<path class="st2" d="M212.4,373.6c-0.8,1.6-1.6,2.9-2.2,4.1c-0.6,1.2-1,1.8-1.1,2l-0.7-0.3c0.7-1.3,1.4-2.6,2-3.7
				c0.6-1.1,0.9-1.8,1-1.9l0,0c-0.1,0-0.3,0-0.5,0c-0.2,0-0.3,0-0.5,0c-0.6,0-1.2,0-1.8,0c-0.6,0-0.9,0-0.9,0v-0.7c0,0,0.3,0,0.7,0
				c0.4,0,0.9,0,1.4,0c0.4,0,0.8,0,1.3,0c0.5,0,0.8,0,0.9,0L212.4,373.6z"/>
			<path class="st2" d="M217.1,373.8c0,0-0.3,0-0.9,0c-0.6,0-1.2,0-2,0v1.9c0.4,0,0.7,0.1,1,0.1c0.3,0.1,0.5,0.2,0.7,0.3
				c0.3,0.2,0.6,0.4,0.7,0.6c0.2,0.3,0.2,0.6,0.2,0.9c0,0.3-0.1,0.6-0.3,0.9c-0.2,0.3-0.5,0.5-0.8,0.7c-0.3,0.1-0.6,0.2-0.9,0.3
				c-0.4,0.1-0.8,0.1-1.2,0.1c-0.1,0-0.1,0-0.2,0c-0.1,0-0.1,0-0.2,0l-0.1-0.7c0,0,0.1,0,0.1,0c0.1,0,0.1,0,0.1,0c0.4,0,0.7,0,1-0.1
				c0.3-0.1,0.6-0.1,0.8-0.2c0.3-0.1,0.4-0.3,0.5-0.4c0.1-0.2,0.2-0.4,0.2-0.6c0-0.2-0.1-0.4-0.2-0.6c-0.1-0.2-0.4-0.3-0.7-0.4
				c-0.2-0.1-0.4-0.1-0.6-0.1c-0.2,0-0.5-0.1-0.8-0.1c0,0-0.1,0-0.2,0c-0.1,0-0.1,0-0.1,0c0,0,0-0.3,0-0.7s0-0.7,0-1
				c0-0.2,0-0.6,0-1c0-0.4,0-0.6,0-0.6c0,0,0.2,0,0.6,0c0.4,0,0.8,0,1.1,0c0.3,0,0.7,0,1.1,0c0.4,0,0.7,0,0.7,0V373.8z"/>
			<path class="st2" d="M223.4,375.6c0,0.4-0.1,0.8-0.2,1.1c-0.1,0.3-0.3,0.6-0.6,0.9c-0.2,0.2-0.5,0.4-0.8,0.5
				c-0.3,0.1-0.7,0.2-1,0.2c-0.4,0-0.7-0.1-1-0.2c-0.3-0.1-0.6-0.3-0.8-0.5c-0.3-0.3-0.4-0.5-0.6-0.9c-0.1-0.3-0.2-0.7-0.2-1.1
				c0-0.4,0.1-0.7,0.2-1.1c0.1-0.3,0.3-0.6,0.5-0.9c0.2-0.2,0.5-0.4,0.8-0.6c0.3-0.1,0.7-0.2,1.1-0.2c0.4,0,0.8,0.1,1.1,0.2
				c0.3,0.1,0.6,0.3,0.8,0.6c0.2,0.3,0.4,0.5,0.6,0.9S223.4,375.2,223.4,375.6z M222.6,375.6c0-0.3-0.1-0.6-0.1-0.9
				c-0.1-0.3-0.2-0.5-0.4-0.7c-0.2-0.2-0.3-0.3-0.5-0.4c-0.2-0.1-0.4-0.1-0.7-0.1c-0.3,0-0.5,0-0.7,0.1c-0.2,0.1-0.4,0.2-0.5,0.4
				c-0.2,0.2-0.3,0.4-0.4,0.7c-0.1,0.3-0.2,0.6-0.2,0.9c0,0.3,0,0.6,0.1,0.9c0.1,0.3,0.3,0.5,0.5,0.7c0.1,0.1,0.3,0.3,0.5,0.3
				c0.2,0.1,0.4,0.1,0.7,0.1c0.3,0,0.5,0,0.7-0.1c0.2-0.1,0.4-0.2,0.5-0.3c0.2-0.2,0.4-0.4,0.5-0.7
				C222.5,376.2,222.6,375.9,222.6,375.6z"/>
			<path class="st2" d="M232.2,378.1h-0.8c0,0,0-0.3,0-0.7c0-0.4,0-0.8,0-1.2c0-0.2,0-0.4,0-0.7c0-0.3,0-0.6,0-0.8
				c0-0.4-0.1-0.7-0.2-0.8c-0.2-0.2-0.4-0.2-0.7-0.2c-0.2,0-0.4,0-0.7,0.1c-0.3,0.1-0.5,0.2-0.9,0.4c0,0,0,0.1,0,0.1
				c0,0.1,0,0.1,0,0.2c0,0.3,0,0.6,0,0.8c0,0.3,0,0.6,0,0.8c0,0.6,0,1,0,1.4c0,0.4,0,0.6,0,0.6h-0.8c0,0,0-0.2,0-0.6
				c0-0.4,0-0.8,0-1.3c0-0.2,0-0.4,0-0.8c0-0.3,0-0.6,0-0.8c0-0.1,0-0.3,0-0.4c0-0.1-0.1-0.3-0.1-0.3c-0.1-0.1-0.2-0.2-0.3-0.2
				c-0.1-0.1-0.3-0.1-0.5-0.1c-0.2,0-0.4,0.1-0.7,0.2c-0.3,0.1-0.5,0.3-0.9,0.5c0,0.1,0,0.3,0,0.6c0,0.4,0,0.7,0,0.9
				c0,0.4,0,0.9,0,1.4c0,0.6,0,0.9,0,0.9h-0.8c0,0,0-0.2,0-0.6c0-0.4,0-1,0-1.8c0-0.3,0-0.7,0-1.1c0-0.5,0-1,0-1.6h0.8l0,0.6l0,0
				c0.2-0.2,0.5-0.3,0.9-0.5c0.3-0.2,0.6-0.2,0.9-0.2c0.3,0,0.6,0.1,0.8,0.2c0.2,0.1,0.4,0.3,0.5,0.5h0c0.4-0.2,0.7-0.4,1.1-0.5
				c0.3-0.1,0.6-0.2,0.8-0.2c0.5,0,0.8,0.1,1.1,0.4c0.3,0.3,0.4,0.6,0.4,1.1c0,0.4,0,0.7,0,0.9s0,0.5,0,0.8c0,0.6,0,1,0,1.4
				C232.2,377.9,232.2,378.1,232.2,378.1z"/>
			<path class="st2" d="M234.9,378.1h-0.8c0,0,0-0.5,0-1.5c0-0.9,0-1.7,0-2.4c0-0.4,0-0.9,0-1.5c0-0.6,0-1.3,0-2.1h0.8
				c0,0.5,0,1.1,0,1.8c0,0.7,0,1.3,0,1.7c0,1,0,1.9,0,2.7C234.9,377.7,234.9,378.1,234.9,378.1z"/>
		</g>
	</g>
	<g>
		<g>
			<path class="st2" d="M343.8,330.9c0,0-0.4,0-1,0s-1,0-1.3,0c-0.4,0-0.9,0-1.4,0c-0.6,0-0.9,0-0.9,0l-0.2-0.6
				c0.3-0.1,0.6-0.3,1-0.5c0.4-0.2,0.7-0.4,0.9-0.6c0.3-0.3,0.6-0.5,0.8-0.7c0.2-0.2,0.3-0.5,0.3-0.8c0-0.2-0.1-0.5-0.2-0.6
				c-0.1-0.2-0.3-0.3-0.5-0.4c-0.2-0.1-0.4-0.2-0.6-0.2c-0.2,0-0.5-0.1-0.7-0.1c-0.1,0-0.2,0-0.3,0c-0.1,0-0.2,0-0.3,0l0.1-0.7
				c0.1,0,0.1,0,0.3,0c0.1,0,0.2,0,0.4,0c0.4,0,0.7,0,1,0.1c0.3,0.1,0.6,0.1,0.8,0.3c0.3,0.1,0.6,0.4,0.7,0.6
				c0.2,0.3,0.3,0.6,0.3,0.9c0,0.3-0.1,0.6-0.2,0.8c-0.1,0.3-0.3,0.5-0.5,0.7c-0.2,0.2-0.5,0.4-0.8,0.6c-0.3,0.2-0.6,0.4-0.9,0.5
				l0,0c0.1,0,0.3,0,0.5,0c0.2,0,0.4,0,0.6,0c0.4,0,0.9,0,1.4,0c0.5,0,0.8,0,0.8,0V330.9z"/>
			<path class="st2" d="M349.8,328.4c0,0.4-0.1,0.8-0.2,1.1c-0.1,0.3-0.3,0.6-0.6,0.9c-0.2,0.2-0.5,0.4-0.8,0.5s-0.7,0.2-1,0.2
				c-0.4,0-0.7-0.1-1-0.2s-0.6-0.3-0.8-0.5c-0.3-0.3-0.4-0.5-0.6-0.9c-0.1-0.3-0.2-0.7-0.2-1.1c0-0.4,0.1-0.7,0.2-1.1
				c0.1-0.3,0.3-0.6,0.5-0.9c0.2-0.2,0.5-0.4,0.8-0.6c0.3-0.1,0.7-0.2,1.1-0.2c0.4,0,0.8,0.1,1.1,0.2c0.3,0.1,0.6,0.3,0.8,0.6
				c0.2,0.3,0.4,0.5,0.6,0.9C349.7,327.6,349.8,328,349.8,328.4z M349,328.4c0-0.3-0.1-0.6-0.1-0.9c-0.1-0.3-0.2-0.5-0.4-0.7
				c-0.2-0.2-0.3-0.3-0.5-0.4c-0.2-0.1-0.4-0.1-0.7-0.1c-0.3,0-0.5,0-0.7,0.1s-0.4,0.2-0.5,0.4c-0.2,0.2-0.3,0.4-0.4,0.7
				c-0.1,0.3-0.2,0.6-0.2,0.9c0,0.3,0,0.6,0.1,0.9c0.1,0.3,0.3,0.5,0.5,0.7c0.1,0.1,0.3,0.3,0.5,0.3c0.2,0.1,0.4,0.1,0.7,0.1
				c0.3,0,0.5,0,0.7-0.1c0.2-0.1,0.4-0.2,0.5-0.3c0.2-0.2,0.4-0.4,0.5-0.7S349,328.8,349,328.4z"/>
			<path class="st2" d="M353.2,331h-0.8c0-0.1,0-0.4,0-0.9c0-0.5,0-1.2,0-2.1c0-0.2,0-0.4,0-0.7c0-0.3,0-0.5,0-0.7l0,0
				c-0.1,0.1-0.4,0.2-0.7,0.4c-0.3,0.2-0.6,0.4-0.9,0.6l-0.3-0.4c0.4-0.3,0.8-0.6,1.3-0.9c0.5-0.3,0.7-0.5,0.8-0.5l0.6,0.4
				c0,0.5,0,1,0,1.5c0,0.5,0,0.8,0,0.9c0,0.4,0,0.9,0,1.5C353.2,330.5,353.2,330.8,353.2,331z"/>
			<path class="st2" d="M360.4,330.1c-0.4,0-0.8,0-1,0c-0.3,0-0.6,0-0.8,0c0,0.7,0,1.2,0,1.6c0,0.4,0,0.7,0,0.8h-0.8
				c0-0.1,0-0.4,0-0.8c0-0.5,0-1,0-1.6l-2.9,0l-0.3-0.6c0.9-0.9,1.6-1.8,2.3-2.6c0.7-0.8,1-1.2,1.1-1.3l0.6,0.4c0,0.6,0,1.3,0,2.1
				c0,0.8,0,1.3,0,1.3c0.2,0,0.4,0,0.6,0c0.3,0,0.7,0,1.2,0V330.1z M357.8,326.7L357.8,326.7l-2.4,2.7l0,0c0,0,0.1,0,0.3,0
				c0.2,0,0.4,0,0.8,0c0.1,0,0.3,0,0.5,0s0.5,0,0.7,0c0-0.5,0-0.9,0-1.3C357.8,327.8,357.8,327.3,357.8,326.7z"/>
			<path class="st2" d="M308.5,337.3c0,0.5-0.2,0.9-0.5,1.3c-0.3,0.4-0.7,0.7-1.3,0.8c-0.2,0.1-0.5,0.1-0.8,0.1c-0.3,0-0.6,0-0.9,0
				l0,2.1h-0.8c0-0.2,0-0.6,0-1.1c0-0.6,0-1.4,0-2.6c0-0.4,0-0.8,0-1.3c0-0.5,0-1.1,0-1.8c0.1,0,0.3,0,0.4,0c0.1,0,0.3,0,0.3,0
				c0.6,0,1.1,0,1.5,0.1c0.4,0.1,0.8,0.2,1,0.4c0.3,0.2,0.5,0.4,0.7,0.8C308.5,336.5,308.5,336.8,308.5,337.3z M307.7,337.3
				c0-0.3-0.1-0.6-0.2-0.9c-0.2-0.2-0.4-0.4-0.7-0.6c-0.2-0.1-0.4-0.1-0.7-0.2c-0.2,0-0.5,0-0.7,0c0,0-0.1,0-0.1,0c0,0-0.1,0-0.1,0
				c0,0,0,0.3,0,0.8c0,0.5,0,0.8,0,1.1c0,0.3,0,0.5,0,0.9c0,0.3,0,0.5,0,0.6c0,0,0.1,0,0.1,0s0.1,0,0.1,0c0.2,0,0.5,0,0.7,0
				c0.3,0,0.5-0.1,0.7-0.2c0.3-0.1,0.6-0.3,0.7-0.6C307.6,337.9,307.7,337.6,307.7,337.3z"/>
			<path class="st2" d="M312.9,337.2c-0.2,0-0.5,0.1-0.9,0.3c-0.4,0.1-0.8,0.3-1.3,0.6c0,0,0,0.2,0,0.5c0,0.3,0,0.6,0,0.8
				c0,0.4,0,0.9,0,1.4c0,0.5,0,0.9,0,0.9h-0.8c0-0.1,0-0.2,0-0.6c0-0.3,0-0.9,0-1.7c0-0.3,0-0.8,0-1.3c0-0.6,0-1.1,0-1.6h0.8v0.8
				l0,0c0.4-0.2,0.8-0.4,1.1-0.6c0.4-0.2,0.7-0.3,0.9-0.3L312.9,337.2z"/>
			<path class="st2" d="M318.4,339.2c0,0.4-0.1,0.8-0.2,1.1c-0.1,0.4-0.3,0.7-0.6,0.9c-0.2,0.2-0.5,0.4-0.7,0.5
				c-0.3,0.1-0.6,0.2-0.9,0.2c-0.3,0-0.6-0.1-0.9-0.2c-0.3-0.1-0.5-0.3-0.8-0.5c-0.3-0.2-0.5-0.6-0.6-0.9c-0.1-0.4-0.2-0.7-0.2-1.1
				c0-0.4,0.1-0.7,0.2-1.1c0.1-0.3,0.3-0.6,0.6-0.9c0.2-0.2,0.5-0.4,0.8-0.5c0.3-0.1,0.6-0.2,1-0.2c0.4,0,0.7,0.1,1,0.2
				c0.3,0.1,0.5,0.3,0.8,0.5c0.3,0.3,0.4,0.6,0.6,0.9C318.4,338.4,318.4,338.8,318.4,339.2z M317.6,339.2c0-0.3-0.1-0.6-0.2-0.9
				c-0.1-0.3-0.3-0.6-0.5-0.8c-0.1-0.1-0.3-0.2-0.5-0.3c-0.2-0.1-0.4-0.1-0.6-0.1c-0.2,0-0.4,0-0.6,0.1c-0.2,0.1-0.3,0.2-0.5,0.4
				c-0.2,0.2-0.3,0.4-0.4,0.7c-0.1,0.3-0.2,0.6-0.2,0.9c0,0.3,0.1,0.7,0.2,1c0.1,0.3,0.3,0.5,0.5,0.7c0.1,0.1,0.3,0.2,0.5,0.3
				s0.4,0.1,0.5,0.1c0.2,0,0.4,0,0.6-0.1c0.2-0.1,0.3-0.2,0.5-0.3c0.2-0.2,0.3-0.4,0.4-0.7C317.6,339.8,317.6,339.5,317.6,339.2z"/>
			<path class="st2" d="M323.7,341.8c0,0-0.1,0-0.2,0c-0.1,0-0.2,0-0.3,0c-0.6,0-1.1,0-1.5-0.1c-0.4-0.1-0.7-0.2-1.1-0.3
				c-0.5-0.2-0.8-0.5-1-0.9c-0.2-0.4-0.4-0.8-0.4-1.2c0-0.5,0.1-1,0.4-1.4c0.3-0.4,0.6-0.7,1.1-0.9c0.3-0.1,0.6-0.2,1-0.3
				c0.4-0.1,0.7-0.1,1.1-0.1l0-2.3h0.8c0,0.1,0,0.5,0,1.4c0,0.9,0,1.8,0,2.7c0,0.7,0,1.4,0,1.9C323.7,340.9,323.7,341.4,323.7,341.8
				z M323,338.2c0-0.1,0-0.3,0-0.4c0-0.2,0-0.3,0-0.5c-0.3,0-0.7,0-1,0.1c-0.3,0.1-0.6,0.1-0.8,0.2c-0.3,0.2-0.6,0.4-0.8,0.7
				c-0.2,0.3-0.3,0.6-0.3,1c0,0.3,0.1,0.6,0.3,0.9c0.2,0.2,0.4,0.4,0.7,0.6c0.2,0.1,0.5,0.2,0.8,0.3c0.3,0.1,0.6,0.1,0.9,0.1
				c0,0,0,0,0.1,0c0,0,0,0,0.1,0c0,0,0-0.3,0-0.8C322.9,339.9,323,339.2,323,338.2z"/>
			<path class="st2" d="M329.8,341.7H329v-0.6l0,0c-0.2,0.2-0.5,0.3-0.9,0.5c-0.4,0.2-0.7,0.2-1,0.2c-0.5,0-0.8-0.1-1.1-0.4
				c-0.3-0.3-0.4-0.7-0.4-1.2c0-0.3,0-0.6,0-1c0-0.4,0-0.6,0-0.8c0-0.3,0-0.7,0-1.1c0-0.5,0-0.7,0-0.8h0.8c0,0,0,0.3,0,0.7
				c0,0.4,0,0.8,0,1.1c0,0.2,0,0.5,0,0.9c0,0.3,0,0.6,0,0.7c0,0.4,0.1,0.7,0.2,0.9c0.1,0.2,0.3,0.3,0.6,0.3c0.3,0,0.6-0.1,1-0.2
				s0.6-0.3,0.8-0.4c0,0,0-0.2,0-0.6c0-0.3,0-0.7,0-1.2c0-0.4,0-0.8,0-1.3c0-0.5,0-0.8,0-0.8h0.8c0,0.1,0,0.2,0,0.6
				c0,0.3,0,0.9,0,1.7c0,0.4,0,0.8,0,1.2C329.8,340.3,329.8,340.9,329.8,341.7z"/>
			<path class="st2" d="M335,341.1l-0.1,0.7c0,0-0.1,0-0.1,0c-0.1,0-0.1,0-0.1,0c-0.4,0-0.8,0-1.2-0.1c-0.4-0.1-0.7-0.2-1-0.4
				c-0.4-0.2-0.7-0.5-1-0.9c-0.2-0.4-0.3-0.8-0.3-1.2c0-0.4,0.1-0.8,0.3-1.1c0.2-0.3,0.5-0.6,0.8-0.8c0.3-0.2,0.7-0.3,1.1-0.4
				c0.4-0.1,0.9-0.2,1.3-0.2c0,0,0.1,0,0.1,0c0,0,0.1,0,0.1,0l0,0.7c0,0-0.1,0-0.1,0c0,0-0.1,0-0.1,0c-0.4,0-0.7,0-1,0.1
				c-0.3,0-0.5,0.1-0.8,0.2c-0.3,0.1-0.6,0.3-0.8,0.6c-0.2,0.3-0.3,0.6-0.3,0.9c0,0.4,0.1,0.7,0.3,1c0.2,0.3,0.4,0.5,0.7,0.6
				c0.2,0.1,0.5,0.2,0.8,0.2c0.3,0.1,0.6,0.1,0.9,0.1c0.1,0,0.1,0,0.2,0C335,341.1,335,341.1,335,341.1z"/>
			<path class="st2" d="M339.2,341.1l-0.1,0.6c0,0-0.1,0-0.2,0c-0.1,0-0.2,0-0.2,0c-0.7,0-1.2-0.1-1.6-0.4s-0.5-0.7-0.5-1.3
				c0-0.4,0-0.8,0-1.2c0-0.4,0-1,0-1.6h-0.9v-0.6h0.9v-1.2h0.7v1.2h1.8v0.6h-1.8c0,0.1,0,0.3,0,0.6c0,0.4,0,0.6,0,0.8
				c0,0.1,0,0.3,0,0.5s0,0.5,0,0.7c0,0.4,0.1,0.8,0.4,1c0.2,0.2,0.6,0.3,1.1,0.3c0.1,0,0.1,0,0.2,0
				C339.1,341.1,339.1,341.1,339.2,341.1z"/>
			<path class="st2" d="M347.6,339.2c0,0.4-0.1,0.8-0.2,1.1c-0.1,0.4-0.3,0.7-0.6,0.9c-0.2,0.2-0.5,0.4-0.7,0.5
				c-0.3,0.1-0.6,0.2-0.9,0.2c-0.3,0-0.6-0.1-0.9-0.2c-0.3-0.1-0.5-0.3-0.8-0.5c-0.3-0.2-0.5-0.6-0.6-0.9c-0.1-0.4-0.2-0.7-0.2-1.1
				c0-0.4,0.1-0.7,0.2-1.1c0.1-0.3,0.3-0.6,0.6-0.9c0.2-0.2,0.5-0.4,0.8-0.5c0.3-0.1,0.6-0.2,1-0.2c0.4,0,0.7,0.1,1,0.2
				c0.3,0.1,0.5,0.3,0.8,0.5c0.3,0.3,0.4,0.6,0.6,0.9C347.5,338.4,347.6,338.8,347.6,339.2z M346.7,339.2c0-0.3-0.1-0.6-0.2-0.9
				c-0.1-0.3-0.3-0.6-0.5-0.8c-0.1-0.1-0.3-0.2-0.5-0.3c-0.2-0.1-0.4-0.1-0.6-0.1c-0.2,0-0.4,0-0.6,0.1c-0.2,0.1-0.3,0.2-0.5,0.4
				c-0.2,0.2-0.3,0.4-0.4,0.7c-0.1,0.3-0.2,0.6-0.2,0.9c0,0.3,0.1,0.7,0.2,1c0.1,0.3,0.3,0.5,0.5,0.7c0.1,0.1,0.3,0.2,0.5,0.3
				s0.4,0.1,0.5,0.1c0.2,0,0.4,0,0.6-0.1c0.2-0.1,0.3-0.2,0.5-0.3c0.2-0.2,0.3-0.4,0.4-0.7C346.7,339.8,346.7,339.5,346.7,339.2z"/>
			<path class="st2" d="M351.9,334.9c0,0-0.1,0-0.1,0c-0.1,0-0.1,0-0.1,0c-0.3,0-0.6,0-0.8,0.1c-0.2,0.1-0.3,0.2-0.5,0.3
				c-0.1,0.1-0.2,0.2-0.3,0.4c-0.1,0.2-0.1,0.4-0.1,0.6v0.2h1.7v0.6h-1.7c0,1.1,0,2.1,0,3.1c0,0.9,0,1.4,0,1.5h-0.8
				c0-0.1,0-0.5,0-1.4c0-0.9,0-1.9,0-3.1h-1v-0.6h1v-0.2c0-0.3,0-0.6,0.1-0.8c0.1-0.2,0.2-0.5,0.4-0.7c0.2-0.2,0.4-0.3,0.7-0.4
				c0.3-0.1,0.6-0.2,1-0.2c0,0,0.1,0,0.2,0c0.1,0,0.1,0,0.1,0L351.9,334.9z"/>
			<path class="st2" d="M361.3,341.5l-0.8,0.4c0,0-0.1-0.3-0.3-0.8c-0.2-0.5-0.5-1.1-0.8-1.8h-3c-0.4,0.8-0.6,1.4-0.8,1.8
				s-0.3,0.7-0.3,0.7l-0.7-0.4c0.1-0.2,0.5-1,1.1-2.3c0.6-1.4,1.3-2.8,2-4.3h0.7c0.7,1.5,1.3,3,2,4.4
				C360.9,340.7,361.2,341.4,361.3,341.5z M359.1,338.7c-0.2-0.4-0.4-0.8-0.6-1.3c-0.2-0.5-0.4-0.9-0.6-1.4l0,0
				c-0.2,0.4-0.4,0.8-0.6,1.4c-0.2,0.5-0.4,1-0.6,1.3l0,0L359.1,338.7L359.1,338.7z"/>
			<path class="st2" d="M366.5,341.7h-0.8v-0.6l0,0c-0.2,0.2-0.5,0.3-0.9,0.5c-0.4,0.2-0.7,0.2-1,0.2c-0.5,0-0.8-0.1-1.1-0.4
				c-0.3-0.3-0.4-0.7-0.4-1.2c0-0.3,0-0.6,0-1c0-0.4,0-0.6,0-0.8c0-0.3,0-0.7,0-1.1c0-0.5,0-0.7,0-0.8h0.8c0,0,0,0.3,0,0.7
				c0,0.4,0,0.8,0,1.1c0,0.2,0,0.5,0,0.9c0,0.3,0,0.6,0,0.7c0,0.4,0.1,0.7,0.2,0.9c0.1,0.2,0.3,0.3,0.6,0.3c0.3,0,0.6-0.1,1-0.2
				s0.6-0.3,0.8-0.4c0,0,0-0.2,0-0.6c0-0.3,0-0.7,0-1.2c0-0.4,0-0.8,0-1.3c0-0.5,0-0.8,0-0.8h0.8c0,0.1,0,0.2,0,0.6
				c0,0.3,0,0.9,0,1.7c0,0.4,0,0.8,0,1.2C366.4,340.3,366.4,340.9,366.5,341.7z"/>
			<path class="st2" d="M371.1,340.2c0,0.3-0.1,0.5-0.2,0.7c-0.1,0.2-0.3,0.4-0.5,0.5c-0.2,0.1-0.5,0.2-0.7,0.3
				c-0.3,0.1-0.6,0.1-0.9,0.1c-0.2,0-0.3,0-0.5,0c-0.2,0-0.3,0-0.3,0l0-0.7c0,0,0.1,0,0.4,0c0.2,0,0.4,0,0.6,0c0.1,0,0.3,0,0.5,0
				c0.2,0,0.3-0.1,0.5-0.1c0.2-0.1,0.3-0.2,0.4-0.3c0.1-0.1,0.1-0.2,0.1-0.4c0-0.1,0-0.3-0.1-0.3c-0.1-0.1-0.2-0.2-0.3-0.3
				c-0.1-0.1-0.3-0.2-0.6-0.3c-0.2-0.1-0.4-0.2-0.6-0.3c-0.2-0.1-0.4-0.3-0.5-0.5c-0.1-0.2-0.2-0.4-0.2-0.7s0.1-0.5,0.2-0.7
				c0.1-0.2,0.3-0.4,0.6-0.5c0.2-0.1,0.4-0.2,0.7-0.2c0.2,0,0.5-0.1,0.7-0.1c0.2,0,0.4,0,0.5,0c0.1,0,0.2,0,0.2,0l0.1,0.7
				c0,0-0.1,0-0.3,0c-0.2,0-0.4,0-0.6,0c-0.2,0-0.3,0-0.4,0s-0.3,0.1-0.4,0.1c-0.1,0.1-0.3,0.2-0.3,0.3c-0.1,0.1-0.1,0.2-0.1,0.3
				c0,0.1,0,0.3,0.1,0.4c0.1,0.1,0.2,0.2,0.3,0.2c0.1,0.1,0.3,0.2,0.6,0.3c0.2,0.1,0.4,0.2,0.5,0.3c0.2,0.1,0.4,0.3,0.5,0.5
				C371,339.8,371.1,340,371.1,340.2z"/>
			<path class="st2" d="M375.3,341.1l-0.1,0.6c0,0-0.1,0-0.2,0c-0.1,0-0.2,0-0.2,0c-0.7,0-1.2-0.1-1.6-0.4c-0.4-0.3-0.5-0.7-0.5-1.3
				c0-0.4,0-0.8,0-1.2s0-1,0-1.6h-0.9v-0.6h0.9v-1.2h0.7v1.2h1.8v0.6h-1.8c0,0.1,0,0.3,0,0.6c0,0.4,0,0.6,0,0.8c0,0.1,0,0.3,0,0.5
				s0,0.5,0,0.7c0,0.4,0.1,0.8,0.4,1c0.2,0.2,0.6,0.3,1.1,0.3c0.1,0,0.1,0,0.2,0C375.3,341.1,375.3,341.1,375.3,341.1z"/>
			<path class="st2" d="M379.6,337.2c-0.2,0-0.5,0.1-0.9,0.3c-0.4,0.1-0.8,0.3-1.3,0.6c0,0,0,0.2,0,0.5c0,0.3,0,0.6,0,0.8
				c0,0.4,0,0.9,0,1.4c0,0.5,0,0.9,0,0.9h-0.8c0-0.1,0-0.2,0-0.6c0-0.3,0-0.9,0-1.7c0-0.3,0-0.8,0-1.3c0-0.6,0-1.1,0-1.6h0.8v0.8
				l0,0c0.4-0.2,0.8-0.4,1.1-0.6c0.4-0.2,0.7-0.3,0.9-0.3L379.6,337.2z"/>
			<path class="st2" d="M384.1,338.8c0,0.8,0,1.5,0,2.1c0,0.5,0,0.8,0,0.9c0,0-0.2,0-0.5,0c-0.3,0-0.6,0-1.1,0c-0.3,0-0.6,0-0.8-0.1
				c-0.3-0.1-0.5-0.1-0.7-0.2c-0.3-0.1-0.5-0.3-0.7-0.5c-0.2-0.2-0.3-0.5-0.3-0.8c0-0.3,0.1-0.6,0.3-0.8c0.2-0.2,0.5-0.4,0.8-0.6
				c0.2-0.1,0.5-0.2,0.9-0.2c0.4-0.1,0.8-0.1,1.3-0.2c0-0.3-0.1-0.5-0.2-0.6s-0.3-0.3-0.5-0.4c-0.1-0.1-0.3-0.1-0.5-0.1
				c-0.2,0-0.4,0-0.6,0c-0.2,0-0.3,0-0.4,0c-0.1,0-0.3,0-0.4,0l0.1-0.7c0.1,0,0.2,0,0.3,0c0.2,0,0.4,0,0.6,0c0.4,0,0.8,0,1.1,0.1
				c0.3,0.1,0.6,0.2,0.8,0.4c0.2,0.2,0.3,0.4,0.4,0.7C384.1,338,384.1,338.3,384.1,338.8z M383.4,340.1c0-0.1,0-0.3,0-0.4
				s0-0.4,0-0.6c-0.1,0-0.4,0-0.8,0.1c-0.4,0.1-0.7,0.1-0.9,0.2c-0.2,0.1-0.4,0.2-0.5,0.3s-0.2,0.3-0.2,0.5c0,0.2,0.1,0.4,0.2,0.6
				c0.1,0.1,0.3,0.2,0.5,0.3c0.2,0.1,0.3,0.1,0.6,0.1c0.2,0,0.4,0,0.6,0c0.1,0,0.2,0,0.2,0c0.1,0,0.2,0,0.3,0c0,0,0-0.1,0-0.3
				C383.4,340.7,383.4,340.4,383.4,340.1z"/>
			<path class="st2" d="M386.8,341.7H386c0,0,0-0.5,0-1.5c0-0.9,0-1.7,0-2.4c0-0.4,0-0.9,0-1.5c0-0.6,0-1.3,0-2.1h0.8
				c0,0.5,0,1.1,0,1.8c0,0.7,0,1.3,0,1.7c0,1,0,1.9,0,2.7C386.8,341.3,386.8,341.7,386.8,341.7z"/>
			<path class="st2" d="M389.6,335.6h-0.9v-0.9h0.9V335.6z M389.6,341.7h-0.8c0-0.1,0-0.4,0-1c0-0.6,0-1.1,0-1.5c0-0.3,0-0.7,0-1.2
				c0-0.4,0-0.9,0-1.5h0.8c0,0.5,0,0.9,0,1.4c0,0.4,0,0.8,0,1.1c0,0.8,0,1.4,0,1.9C389.6,341.5,389.6,341.7,389.6,341.7z"/>
			<path class="st2" d="M395,338.8c0,0.8,0,1.5,0,2.1c0,0.5,0,0.8,0,0.9c0,0-0.2,0-0.5,0c-0.3,0-0.6,0-1.1,0c-0.3,0-0.6,0-0.8-0.1
				c-0.3-0.1-0.5-0.1-0.7-0.2c-0.3-0.1-0.5-0.3-0.7-0.5s-0.3-0.5-0.3-0.8c0-0.3,0.1-0.6,0.3-0.8c0.2-0.2,0.5-0.4,0.8-0.6
				c0.2-0.1,0.5-0.2,0.9-0.2c0.4-0.1,0.8-0.1,1.3-0.2c0-0.3-0.1-0.5-0.2-0.6c-0.1-0.2-0.3-0.3-0.5-0.4c-0.1-0.1-0.3-0.1-0.5-0.1
				c-0.2,0-0.4,0-0.6,0c-0.2,0-0.3,0-0.4,0c-0.1,0-0.3,0-0.4,0l0.1-0.7c0.1,0,0.2,0,0.3,0c0.2,0,0.4,0,0.6,0c0.4,0,0.8,0,1.1,0.1
				c0.3,0.1,0.6,0.2,0.8,0.4c0.2,0.2,0.3,0.4,0.4,0.7C395,338,395,338.3,395,338.8z M394.3,340.1c0-0.1,0-0.3,0-0.4s0-0.4,0-0.6
				c-0.1,0-0.4,0-0.8,0.1c-0.4,0.1-0.7,0.1-0.9,0.2c-0.2,0.1-0.4,0.2-0.5,0.3s-0.2,0.3-0.2,0.5c0,0.2,0.1,0.4,0.2,0.6
				c0.1,0.1,0.3,0.2,0.5,0.3c0.2,0.1,0.3,0.1,0.6,0.1c0.2,0,0.4,0,0.6,0c0.1,0,0.2,0,0.2,0c0.1,0,0.2,0,0.3,0c0,0,0-0.1,0-0.3
				C394.2,340.7,394.3,340.4,394.3,340.1z"/>
		</g>
	</g>
</g>
</svg>
