<?xml version="1.0" encoding="utf-8"?>
<!-- Generator: Adobe Illustrator 26.0.2, SVG Export Plug-In . SVG Version: 6.00 Build 0)  -->
<svg version="1.1" id="Layer_1" xmlns="http://www.w3.org/2000/svg" xmlns:xlink="http://www.w3.org/1999/xlink" x="0px" y="0px"
	 viewBox="0 0 590 413" style="enable-background:new 0 0 590 413;" xml:space="preserve">
<style type="text/css">
	.st0{fill:#1500AF;}
	.st1{fill:#EABD00;}
	.st2{fill:#E0E0E0;}
	.st3{fill:#D81376;}
	.st4{fill:none;}
</style>
<g>
	<path class="st0" d="M176.5,0v413h345.1V0H176.5z M447.8,291.8l-26.1,5.2l-22.6,8.9l-48.1,13.2l-47.5-8.5l-61.1-21l31.9,5.2
		l25.7,2.8l53.1,3.4l61.3-9.9l22.3-1l26.2-2.5L447.8,291.8z"/>
	<path class="st1" d="M508,388.2H197.4V16.9H508V388.2z M199.5,386.1h306.4V19H199.5V386.1z"/>
	<g>
		<polygon class="st1" points="428.7,170.3 412.3,160.4 396.7,155.5 383.1,153.9 374,156.6 373.1,151.4 366.1,144.8 362.4,138 
			362.4,133.6 373.3,120.4 390.6,116.1 371.5,110.7 359.7,106 348.7,108 341.3,115.2 334,127.5 332.2,136.1 328.1,143.1 
			322.3,147.7 308.8,143.6 295.7,148 276.9,148 255.4,157.5 243.9,171.9 239.6,186.6 258,183.1 267.9,173.1 282.2,166.7 
			299.1,166.7 309,163.2 315.2,164.6 311.2,177.4 310.3,191.5 308.1,209.6 310.5,245.2 320.2,271.7 323.1,283.8 329.8,291.7 
			334.7,291.8 339.3,297.6 340.8,291.3 348.7,295.8 348.5,290.9 353.1,291.7 350.6,287.5 349.8,287.4 349.5,285.7 348.9,284.6 
			343.9,281.1 344.1,279.1 348.1,279.8 349.1,282.8 349.5,285.7 350.6,287.5 353.3,287.8 356.7,294.1 360,288.4 366.6,294.6 
			366.9,288.7 373.6,292.2 370.4,282.2 372.7,276 370.8,270.3 379.4,238.6 380.6,210.6 379.4,185.4 378.5,174.1 377.5,169.6 
			384.7,166.2 397.4,168.3 409.3,172.5 424.7,180 434.2,178.1 		"/>
		<g>
			<polygon class="st2" points="371.2,152.9 364.3,146.4 360.1,138.9 360.1,132.4 371.7,118.7 385.1,116 370.6,112.6 359.5,108 
				349.6,110.1 343.3,117.2 336.8,128.2 335.1,136.8 330.5,144.7 322.1,150.8 314.5,177.5 311.2,210.5 313.7,245.8 322.7,269.4 
				332.4,275.8 342.1,277.5 349.4,278.7 354.4,274.1 358.1,274.1 367.9,270.5 377.1,238.8 378.2,210.3 376.3,175.4 			"/>
			<path class="st0" d="M349.5,279l-7.5-1.3l-9.7-1.7l0,0l-9.8-6.4l0-0.1l-9-23.7l0,0l-2.5-35.3l3.4-33l7.6-26.7l8.4-6.1l4.6-7.9
				l1.7-8.6l0,0l6.5-10.9l6.4-7.2l10-2.1l0.1,0l11.1,4.6l15.4,3.6l-14.3,2.9l-11.5,13.5v6.4l4.2,7.5l7,6.5l5.1,22.6l1.9,34.9
				l-1.1,28.6l0,0l-9.3,31.8l-10,3.6h-3.6L349.5,279z M332.5,275.6l9.6,1.7l7.2,1.2l4.9-4.6h3.7l9.7-3.5l9.2-31.6l1-28.5l-1.9-34.8
				l-5-22.4l-6.9-6.5l0,0l-4.2-7.6v-6.6l0-0.1l11.6-13.7l0.1,0l12.5-2.5l-13.6-3.2l-11.1-4.6l-9.7,2.1l-6.2,7.1l-6.5,10.9l-1.7,8.6
				l-4.7,8l-8.4,6.1l-7.5,26.6l-3.4,32.9l2.5,35.2l9,23.6L332.5,275.6z"/>
		</g>
		<polygon class="st0" points="330.5,144.7 335.7,142.9 338.8,139.3 341.5,138.5 340.9,141.1 338.3,144.7 330.5,147.8 324.9,156.1 
			321.7,163.2 320,178.9 316.6,183.9 317.5,208.6 313.5,242.5 311.2,210.5 314.5,177.5 322.1,150.8 		"/>
		<polygon class="st0" points="336.8,128.2 336.8,128.2 342.7,121.5 344.9,123.4 343.6,130.4 344.9,133 358.2,131.8 360.1,132.4 
			371.7,118.7 385.1,116 370.6,112.6 359.5,108 349.6,110.1 343.2,116.6 		"/>
		<polygon class="st0" points="338,283.8 332.5,285 330.9,289.5 335.8,289.9 338.5,294.3 339.5,288.6 347.1,293 346.3,288.6 
			351.5,290.3 348.1,285.9 342.1,281.2 340.9,282.5 		"/>
		<polygon class="st0" points="357.3,279.5 354.2,279.5 350.4,282.8 350.7,285.7 354.2,286.7 356.8,291.1 360.1,285.9 365.6,292 
			365.8,286.5 371.2,289.9 368.3,282.3 361.5,281.9 		"/>
		<g>
			<polygon class="st2" points="323,269.5 323.8,272.3 326.1,283.3 330.9,288.8 332.5,285 338,283.8 340.9,282.5 342.1,281.2 
				342.1,277.5 332.4,275.8 			"/>
			<path class="st0" d="M331,289.4l-5.2-5.9l0-0.1l-2.3-11l-1.1-3.7l10.1,6.7l9.8,1.7v4.2l-1.3,1.4l-3,1.4l-5.3,1.1L331,289.4z
				 M326.4,283.2l4.4,5l1.5-3.5l5.6-1.2l2.8-1.3l1.1-1.1v-3.4l-9.4-1.6l-8.8-5.9l0.6,2L326.4,283.2z"/>
		</g>
		<g>
			<polygon class="st2" points="354.4,274.1 349.4,278.7 350.7,282.5 354.2,279.5 357.3,279.5 361.5,281.9 368.1,282.3 370,276.2 
				367.9,270.5 358.1,274.1 			"/>
			<path class="st0" d="M350.5,283l-1.5-4.4l5.2-4.9h3.8l10.1-3.6l2.2,6.1l-2,6.4l-6.9-0.4l-4.2-2.4h-3L350.5,283z M361.6,281.6
				l6.2,0.4l1.8-5.8l-2-5.3l-9.6,3.5h-3.6l-4.7,4.4l1,3.1l3.2-2.8h3.4L361.6,281.6z"/>
		</g>
		<polygon class="st0" points="336.8,128.2 336.8,136.4 341.5,138.5 335.7,142.9 330.5,144.7 335.1,136.8 		"/>
		<polygon points="352.9,116.8 354.5,115.8 356,116.8 354.5,118.2 		"/>
		<polygon class="st3" points="372.4,114.8 365.3,119.4 372.4,116.8 381.3,115.8 		"/>
		<polyline class="st0" points="322.1,150.8 309.1,147 296.4,150.7 277.3,151.1 257.3,160.4 246.7,173.3 243.9,183.1 256,181.1 
			266.4,170.5 281.8,163.8 299.1,163.7 308.9,160.4 320.8,163.8 		"/>
		<polygon class="st4" points="348.1,279.8 344.1,279.1 343.9,281.1 348.9,284.6 349.5,285.7 349.1,282.8 		"/>
		<polygon class="st1" points="349.8,287.4 350.6,287.5 349.5,285.7 		"/>
		<polygon class="st4" points="349.8,287.4 350.6,287.5 349.5,285.7 		"/>
		<polygon class="st4" points="348.1,279.8 344.1,279.1 343.9,281.1 348.9,284.6 349.5,285.7 349.1,282.8 		"/>
		<polygon class="st0" points="372.5,158.5 383.3,155 396.7,156.7 411.9,161.8 426.9,170.9 432,177.4 424.6,178.5 409.2,171.1 
			396.2,166.7 384.1,165.1 374.9,169.1 		"/>
	</g>
	<g>
		<path class="st2" d="M299.1,67.3v0.4h-10v-0.4h2.2l-2.1-5.1h-6.2l-1.7,5.1h2.8v0.4h-6v-0.4h1.1l8.6-19.6h1.4l8.6,19.6H299.1z
			 M289,61.8l-3.3-7.9l-2.5,7.9H289z"/>
		<path class="st2" d="M316.4,67.3v0.4h-7.9v-0.4h1.1v-8.2c0-2.1-0.5-2.8-1.6-2.8c-0.5,0-1.1,0.2-1.6,0.4v10.6h1.1v0.4h-7.9v-0.4
			h1.4v-9.9l-1.5-1.3l7-2.4v2.7c1.8-1.5,3.3-2.6,5.2-2.6c2.3,0,3.5,1.4,3.5,4.2v9.3H316.4z"/>
		<path class="st2" d="M328.3,65.3c-1,1.6-2.8,2.8-5.3,2.8c-3.2,0-4.5-1.9-4.5-5.4v-7.7h-2.1v0l7.5-5.9v5.5h3.8v0.4h-3.8v6.3
			c0,3.1,0.7,4.3,2.7,4.3C327.3,65.6,327.7,65.5,328.3,65.3L328.3,65.3z"/>
		<path class="st2" d="M342.5,67.3v0.4h-6.8v-1.5c-1.3,1.1-2.7,1.8-4.2,1.8c-1.8,0-3-1-3-2.7c0-2.5,2.7-4.1,7.2-4.6
			c0-3-1.2-4.5-3.3-4.5c-1.2,0-2.1,0.3-3,1l-0.1-0.1c1.8-2.1,3.9-3.2,6.6-3.2c3.4,0,5.2,2,5.2,5.9v7.5H342.5z M335.7,65.9v-4.8
			c-1.6,0.5-2.3,1.5-2.3,2.9c0,1.3,0.5,2,1.6,2C335.3,65.9,335.5,65.9,335.7,65.9z"/>
		<path class="st2" d="M355.4,54v7.2h0c-2.8-3.1-4.1-3.8-5-3.7v9.8h2v0.4h-8.8v-0.4h1.4v-9.8l-1.5-1.3l7-2.3v3.4
			c1.5-2,3.3-3.3,4.6-3.3C355,53.9,355.2,53.9,355.4,54z"/>
		<path class="st2" d="M357,61.3c0-4,2.9-7.3,7.5-7.3c1.5,0,2.9,0.2,4.7,0.9l-1.1,7.6h0c-2.5-4.8-4.9-7.4-6.5-7.4
			c-0.7,0-1.1,0.5-1.1,1.5c0,4.4,4.3,9,8.1,9c0.4,0,0.6,0,0.8-0.1l0,0c-1.2,1.8-3.2,2.7-5.6,2.7C360.1,68,357,65.4,357,61.3z"/>
		<path class="st2" d="M382.2,65.3c-1,1.6-2.8,2.8-5.3,2.8c-3.2,0-4.5-1.9-4.5-5.4v-7.7h-2.1v0l7.5-5.9v5.5h3.8v0.4h-3.8v6.3
			c0,3.1,0.7,4.3,2.7,4.3C381.1,65.6,381.6,65.5,382.2,65.3L382.2,65.3z"/>
		<path class="st2" d="M382.6,67.3h1.4v-9.9l-1.5-1.3l7-2.4v13.7h1.4v0.4h-8.1V67.3z M383.6,50.2c0-1.8,1.1-3,3-3c1.9,0,3,1.2,3,3
			c0,1.8-1.1,3-3,3C384.7,53.2,383.6,52,383.6,50.2z"/>
		<path class="st2" d="M392.1,61.3c0-4,2.9-7.3,7.5-7.3c1.5,0,2.9,0.2,4.7,0.9l-1.1,7.6h0c-2.5-4.8-4.9-7.4-6.5-7.4
			c-0.7,0-1.1,0.5-1.1,1.5c0,4.4,4.3,9,8.1,9c0.4,0,0.6,0,0.8-0.1l0,0c-1.2,1.8-3.2,2.7-5.6,2.7C395.2,68,392.1,65.4,392.1,61.3z"/>
		<path class="st2" d="M419.5,67.3v0.4h-6.8v-1.5c-1.3,1.1-2.7,1.8-4.2,1.8c-1.8,0-3-1-3-2.7c0-2.5,2.7-4.1,7.2-4.6
			c0-3-1.2-4.5-3.3-4.5c-1.2,0-2.1,0.3-3,1l-0.1-0.1c1.8-2.1,3.9-3.2,6.6-3.2c3.4,0,5.2,2,5.2,5.9v7.5H419.5z M412.7,65.9v-4.8
			c-1.6,0.5-2.3,1.5-2.3,2.9c0,1.3,0.5,2,1.6,2C412.2,65.9,412.4,65.9,412.7,65.9z"/>
	</g>
	<g>
		<path class="st2" d="M337.7,84.3c0,0.4-0.1,0.8-0.3,1.1s-0.5,0.6-0.8,0.8c-0.3,0.2-0.7,0.3-1.1,0.4c-0.4,0.1-0.9,0.1-1.4,0.1
			c-0.3,0-0.6,0-0.8,0c-0.3,0-0.5,0-0.5,0l-0.1-0.9c0.1,0,0.2,0,0.5,0c0.3,0,0.6,0,1,0c0.2,0,0.5,0,0.9-0.1c0.4-0.1,0.6-0.1,0.8-0.2
			c0.2-0.1,0.4-0.3,0.6-0.4c0.1-0.2,0.2-0.4,0.2-0.7c0-0.3-0.1-0.5-0.2-0.7c-0.1-0.2-0.4-0.4-0.7-0.6c-0.2-0.1-0.5-0.3-0.8-0.4
			c-0.3-0.1-0.6-0.3-0.9-0.5c-0.4-0.3-0.7-0.5-0.9-0.9c-0.2-0.3-0.3-0.7-0.3-1c0-0.4,0.1-0.7,0.2-1c0.2-0.3,0.4-0.5,0.7-0.7
			c0.3-0.2,0.6-0.4,1-0.5c0.4-0.1,0.8-0.2,1.3-0.2c0.3,0,0.5,0,0.8,0c0.3,0,0.4,0,0.5,0l0.1,0.9c0,0-0.2,0-0.5,0c-0.3,0-0.6,0-1,0
			c-0.2,0-0.5,0-0.7,0.1c-0.3,0.1-0.5,0.1-0.7,0.2c-0.2,0.1-0.3,0.2-0.4,0.4c-0.1,0.2-0.2,0.4-0.2,0.6c0,0.2,0.1,0.4,0.2,0.6
			c0.1,0.2,0.4,0.4,0.7,0.6c0.2,0.1,0.4,0.2,0.7,0.4c0.3,0.1,0.6,0.3,0.8,0.4c0.4,0.2,0.7,0.5,1,0.9
			C337.5,83.5,337.7,83.9,337.7,84.3z"/>
		<path class="st2" d="M345.4,80.5c-0.8,1.8-1.7,3.8-2.6,5.8c-0.9,2-1.4,3.1-1.5,3.3l-0.9-0.3l1.3-2.7c0-0.1-0.3-0.7-0.8-1.9
			s-1.1-2.5-1.8-4.1l0.9-0.4c0.5,1.2,0.9,2.3,1.4,3.5c0.5,1.1,0.7,1.8,0.8,1.8h0c0,0,0.3-0.6,0.7-1.7c0.5-1.1,1-2.3,1.5-3.6
			L345.4,80.5z"/>
		<path class="st2" d="M350.9,81c-0.2,0.1-0.6,0.2-1.1,0.3s-1,0.4-1.7,0.7c0,0,0,0.3,0,0.6c0,0.4,0,0.7,0,1.1c0,0.5,0,1.1,0,1.8
			c0,0.7,0,1.1,0,1.1h-1c0-0.1,0-0.3,0-0.7c0-0.4,0-1.1,0-2.1c0-0.4,0-0.9,0-1.7c0-0.7,0-1.4,0-2h1v1l0,0c0.5-0.3,1-0.5,1.4-0.7
			c0.5-0.2,0.8-0.3,1.1-0.4L350.9,81z"/>
		<path class="st2" d="M356.9,83.1c0,1,0,1.9,0,2.6c0,0.7,0,1,0,1.1c0,0-0.2,0-0.6,0c-0.4,0-0.8,0-1.4,0c-0.3,0-0.7,0-1-0.1
			s-0.7-0.2-0.9-0.3c-0.3-0.2-0.6-0.4-0.8-0.6c-0.2-0.3-0.3-0.6-0.3-1c0-0.4,0.1-0.8,0.4-1c0.2-0.3,0.6-0.5,1-0.7
			c0.3-0.1,0.6-0.2,1.1-0.3c0.5-0.1,1-0.2,1.6-0.2c0-0.3-0.1-0.6-0.2-0.8c-0.1-0.2-0.3-0.4-0.6-0.5c-0.2-0.1-0.4-0.1-0.6-0.2
			s-0.5,0-0.8,0c-0.2,0-0.4,0-0.5,0c-0.1,0-0.3,0-0.5,0l0.1-0.8c0.1,0,0.2,0,0.4,0s0.4,0,0.8,0c0.5,0,0.9,0.1,1.3,0.2
			c0.4,0.1,0.7,0.3,1,0.5c0.2,0.2,0.4,0.5,0.5,0.8C356.8,82,356.9,82.4,356.9,83.1z M355.9,84.6c0-0.1,0-0.3,0-0.5
			c0-0.2,0-0.5,0-0.8c-0.2,0-0.5,0-1,0.1c-0.5,0.1-0.9,0.2-1.2,0.3c-0.2,0.1-0.4,0.2-0.6,0.4c-0.2,0.2-0.3,0.4-0.3,0.7
			c0,0.3,0.1,0.5,0.2,0.7s0.4,0.3,0.6,0.4c0.2,0.1,0.4,0.1,0.7,0.2s0.5,0,0.8,0c0.1,0,0.2,0,0.3,0c0.1,0,0.3,0,0.4,0
			c0,0,0-0.2,0-0.4C355.9,85.3,355.9,85,355.9,84.6z"/>
		<path class="st2" d="M364.7,86.7h-1c0-0.1,0-0.5,0-1.1c0-0.6,0-1.1,0-1.3c0-0.2,0-0.5,0-1s0-0.7,0-0.9c0-0.5-0.1-0.8-0.3-1
			c-0.2-0.2-0.5-0.3-0.9-0.3c-0.2,0-0.5,0.1-0.9,0.2c-0.4,0.1-0.8,0.3-1.2,0.6l0,4.9h-1c0-0.2,0-0.8,0-2c0-1.2,0-2.1,0-2.9
			c0-0.5,0-1.1,0-1.9s0-1.6,0-2.6h1l0,3.6l0,0c0.6-0.3,1.1-0.6,1.5-0.7c0.4-0.1,0.7-0.2,1-0.2c0.5,0,1,0.2,1.3,0.5s0.5,0.8,0.5,1.4
			c0,0.5,0,1,0,1.4c0,0.4,0,0.7,0,0.9c0,0.4,0,0.8,0,1.3C364.7,86.1,364.7,86.5,364.7,86.7z"/>
	</g>
	<g>
		<g>
			<path class="st2" d="M446.4,378.3h-0.8c0-0.1,0-0.4,0-0.9s0-1.2,0-2.1c0-0.2,0-0.4,0-0.7c0-0.3,0-0.5,0-0.7l0,0
				c-0.1,0.1-0.4,0.2-0.7,0.4c-0.3,0.2-0.6,0.4-0.9,0.6l-0.3-0.4c0.4-0.3,0.8-0.6,1.3-0.9s0.7-0.5,0.8-0.5l0.6,0.4c0,0.5,0,1,0,1.5
				s0,0.8,0,0.9c0,0.4,0,0.9,0,1.5C446.4,377.8,446.4,378.2,446.4,378.3z"/>
			<path class="st2" d="M453.6,377.5c-0.4,0-0.8,0-1,0c-0.3,0-0.6,0-0.8,0c0,0.7,0,1.2,0,1.6c0,0.4,0,0.7,0,0.8h-0.8
				c0-0.1,0-0.4,0-0.8c0-0.5,0-1,0-1.6l-2.9,0l-0.3-0.6c0.9-0.9,1.6-1.8,2.3-2.6c0.7-0.8,1-1.2,1.1-1.3l0.6,0.4c0,0.6,0,1.3,0,2.1
				s0,1.3,0,1.3c0.2,0,0.4,0,0.6,0c0.3,0,0.7,0,1.2,0V377.5z M451,374.1L451,374.1l-2.4,2.7l0,0c0,0,0.1,0,0.3,0c0.2,0,0.4,0,0.8,0
				c0.1,0,0.3,0,0.5,0c0.2,0,0.5,0,0.7,0c0-0.5,0-0.9,0-1.3S451,374.6,451,374.1z"/>
			<path class="st2" d="M457.9,373.5c0,0.3,0,0.5-0.1,0.8c-0.1,0.3-0.2,0.5-0.4,0.6c-0.2,0.2-0.4,0.3-0.6,0.4
				c-0.2,0.1-0.5,0.1-0.8,0.1c-0.3,0-0.5,0-0.8-0.1c-0.2-0.1-0.4-0.2-0.6-0.4c-0.2-0.2-0.3-0.4-0.4-0.6c-0.1-0.2-0.1-0.5-0.1-0.8
				c0-0.3,0-0.5,0.1-0.8c0.1-0.2,0.2-0.4,0.4-0.6c0.2-0.2,0.4-0.3,0.6-0.4s0.5-0.2,0.8-0.2c0.3,0,0.6,0.1,0.8,0.2s0.4,0.2,0.6,0.4
				c0.2,0.2,0.3,0.4,0.4,0.6S457.9,373.2,457.9,373.5z M457.2,373.5c0-0.2,0-0.4-0.1-0.6c-0.1-0.2-0.2-0.3-0.3-0.5
				c-0.1-0.1-0.2-0.2-0.4-0.2s-0.3-0.1-0.5-0.1c-0.2,0-0.3,0-0.5,0.1s-0.3,0.1-0.4,0.2c-0.1,0.1-0.2,0.3-0.3,0.5
				c-0.1,0.2-0.1,0.4-0.1,0.6c0,0.2,0,0.4,0.1,0.6c0.1,0.2,0.2,0.3,0.3,0.5c0.1,0.1,0.2,0.2,0.4,0.2s0.3,0.1,0.4,0.1s0.3,0,0.4-0.1
				c0.1-0.1,0.3-0.1,0.4-0.2c0.1-0.1,0.2-0.3,0.3-0.5C457.2,374,457.2,373.8,457.2,373.5z M461.1,371.8c-0.4,0.5-0.8,1.2-1.2,1.8
				c-0.4,0.7-0.8,1.3-1.2,1.8c-0.5,0.8-1,1.6-1.5,2.3s-0.7,1.1-0.7,1.2l-0.5-0.4c0.1-0.1,0.3-0.5,0.8-1.2c0.4-0.7,0.9-1.4,1.5-2.3
				c0.3-0.5,0.7-1.1,1.2-1.8s0.8-1.3,1.2-1.9L461.1,371.8z M463.2,376.5c0,0.3,0,0.5-0.1,0.8c-0.1,0.3-0.2,0.5-0.4,0.6
				c-0.2,0.2-0.4,0.3-0.6,0.4c-0.2,0.1-0.5,0.1-0.8,0.1c-0.3,0-0.5,0-0.8-0.1c-0.2-0.1-0.4-0.2-0.6-0.4c-0.2-0.2-0.3-0.4-0.4-0.6
				c-0.1-0.2-0.1-0.5-0.1-0.8c0-0.3,0-0.5,0.1-0.8s0.2-0.4,0.4-0.6c0.2-0.2,0.4-0.3,0.6-0.4c0.2-0.1,0.5-0.2,0.8-0.2
				c0.3,0,0.6,0.1,0.8,0.2s0.4,0.2,0.6,0.4c0.2,0.2,0.3,0.4,0.4,0.6C463.2,375.9,463.2,376.2,463.2,376.5z M462.5,376.5
				c0-0.2,0-0.4-0.1-0.6c-0.1-0.2-0.2-0.3-0.3-0.5c-0.1-0.1-0.2-0.2-0.4-0.2s-0.3-0.1-0.5-0.1c-0.2,0-0.3,0-0.5,0.1
				s-0.3,0.1-0.4,0.2c-0.1,0.1-0.2,0.3-0.3,0.5c-0.1,0.2-0.1,0.4-0.1,0.6c0,0.2,0,0.4,0.1,0.6c0.1,0.2,0.2,0.3,0.3,0.5
				c0.1,0.1,0.2,0.2,0.4,0.2s0.3,0.1,0.4,0.1c0.1,0,0.3,0,0.4-0.1c0.1-0.1,0.3-0.1,0.4-0.2c0.1-0.1,0.2-0.3,0.3-0.5
				C462.5,376.9,462.5,376.7,462.5,376.5z"/>
			<path class="st2" d="M471,375.4c0,0.8,0,1.5,0,2.1c0,0.5,0,0.8,0,0.9c0,0-0.2,0-0.5,0c-0.3,0-0.6,0-1.1,0c-0.3,0-0.6,0-0.8-0.1
				s-0.5-0.1-0.7-0.2c-0.3-0.1-0.5-0.3-0.7-0.5s-0.3-0.5-0.3-0.8c0-0.3,0.1-0.6,0.3-0.8c0.2-0.2,0.5-0.4,0.8-0.6
				c0.2-0.1,0.5-0.2,0.9-0.2c0.4-0.1,0.8-0.1,1.3-0.2c0-0.3-0.1-0.5-0.2-0.7c-0.1-0.2-0.3-0.3-0.5-0.4c-0.1-0.1-0.3-0.1-0.5-0.1
				c-0.2,0-0.4,0-0.6,0c-0.2,0-0.3,0-0.4,0c-0.1,0-0.3,0-0.4,0l0.1-0.7c0.1,0,0.2,0,0.3,0c0.2,0,0.4,0,0.6,0c0.4,0,0.8,0,1.1,0.1
				c0.3,0.1,0.6,0.2,0.8,0.4c0.2,0.2,0.3,0.4,0.4,0.7S471,374.9,471,375.4z M470.2,376.6c0-0.1,0-0.3,0-0.4c0-0.2,0-0.4,0-0.6
				c-0.1,0-0.4,0-0.8,0.1c-0.4,0.1-0.7,0.1-0.9,0.2c-0.2,0.1-0.4,0.2-0.5,0.3c-0.1,0.1-0.2,0.3-0.2,0.5c0,0.2,0.1,0.4,0.2,0.6
				s0.3,0.2,0.5,0.3c0.2,0.1,0.3,0.1,0.6,0.1s0.4,0,0.6,0c0.1,0,0.2,0,0.2,0c0.1,0,0.2,0,0.3,0c0,0,0-0.1,0-0.3
				C470.2,377.2,470.2,377,470.2,376.6z"/>
			<path class="st2" d="M473.6,378.3h-0.8c0,0,0-0.5,0-1.5c0-1,0-1.7,0-2.4c0-0.4,0-0.9,0-1.5c0-0.6,0-1.3,0-2.1h0.8
				c0,0.5,0,1.1,0,1.8c0,0.7,0,1.3,0,1.7c0,1,0,1.9,0,2.7S473.6,378.2,473.6,378.3z"/>
			<path class="st2" d="M478.9,377.6l-0.1,0.7c0,0-0.1,0-0.1,0c-0.1,0-0.1,0-0.1,0c-0.4,0-0.8,0-1.2-0.1s-0.7-0.2-1-0.4
				c-0.4-0.2-0.7-0.5-1-0.9c-0.2-0.4-0.3-0.8-0.3-1.2c0-0.4,0.1-0.8,0.3-1.1c0.2-0.3,0.5-0.6,0.8-0.8c0.3-0.2,0.7-0.3,1.1-0.5
				c0.4-0.1,0.9-0.2,1.3-0.2c0,0,0.1,0,0.1,0s0.1,0,0.1,0l0,0.7c0,0,0,0-0.1,0c0,0-0.1,0-0.1,0c-0.4,0-0.7,0-1,0.1
				c-0.3,0-0.5,0.1-0.8,0.2c-0.3,0.1-0.6,0.3-0.8,0.6c-0.2,0.3-0.3,0.6-0.3,0.9c0,0.4,0.1,0.7,0.3,1c0.2,0.3,0.4,0.5,0.7,0.6
				c0.2,0.1,0.5,0.2,0.8,0.2c0.3,0.1,0.6,0.1,0.9,0.1c0.1,0,0.1,0,0.2,0C478.9,377.6,478.9,377.6,478.9,377.6z"/>
			<path class="st2" d="M481.2,378.3h-1v-1.1h1V378.3z"/>
			<path class="st2" d="M485.7,371.5c-0.2,0.6-0.5,1.3-0.8,2.2s-0.6,1.6-0.8,2.1c-0.4,1.2-0.8,2.2-1.1,3.1s-0.5,1.4-0.5,1.6
				l-0.6-0.2c0.1-0.2,0.2-0.7,0.6-1.6c0.3-0.9,0.7-1.9,1.1-3.1c0.2-0.6,0.5-1.4,0.8-2.2c0.3-0.8,0.6-1.6,0.8-2.2L485.7,371.5z"/>
			<path class="st2" d="M490.8,373.3c-0.4,1-0.9,2.1-1.4,3.2c-0.5,1.1-0.8,1.7-0.8,1.7H488c0,0-0.3-0.6-0.7-1.7
				c-0.5-1.1-1-2.1-1.5-3.2l0.7-0.3l1.8,4.2h0l1.7-4.2L490.8,373.3z"/>
			<path class="st2" d="M496.5,375.7c0,0.4-0.1,0.8-0.2,1.1c-0.1,0.4-0.3,0.7-0.6,0.9c-0.2,0.2-0.5,0.4-0.7,0.5
				c-0.3,0.1-0.6,0.2-0.9,0.2c-0.3,0-0.6-0.1-0.9-0.2c-0.3-0.1-0.5-0.3-0.8-0.5c-0.3-0.2-0.5-0.6-0.6-0.9s-0.2-0.7-0.2-1.1
				c0-0.4,0.1-0.7,0.2-1.1c0.1-0.3,0.3-0.6,0.6-0.9c0.2-0.2,0.5-0.4,0.8-0.5s0.6-0.2,1-0.2c0.4,0,0.7,0.1,1,0.2
				c0.3,0.1,0.5,0.3,0.8,0.5c0.3,0.3,0.4,0.6,0.6,0.9S496.5,375.3,496.5,375.7z M495.7,375.7c0-0.3-0.1-0.6-0.2-0.9
				c-0.1-0.3-0.3-0.6-0.5-0.8c-0.1-0.1-0.3-0.2-0.5-0.3s-0.4-0.1-0.6-0.1c-0.2,0-0.4,0-0.6,0.1s-0.3,0.2-0.5,0.4
				c-0.2,0.2-0.3,0.4-0.4,0.7c-0.1,0.3-0.2,0.6-0.2,0.9c0,0.3,0.1,0.7,0.2,1c0.1,0.3,0.3,0.5,0.5,0.7c0.1,0.1,0.3,0.2,0.5,0.3
				c0.2,0.1,0.4,0.1,0.5,0.1c0.2,0,0.4,0,0.6-0.1c0.2-0.1,0.3-0.2,0.5-0.3c0.2-0.2,0.3-0.4,0.4-0.7
				C495.6,376.3,495.7,376.1,495.7,375.7z"/>
			<path class="st2" d="M498.8,378.3H498c0,0,0-0.5,0-1.5c0-1,0-1.7,0-2.4c0-0.4,0-0.9,0-1.5c0-0.6,0-1.3,0-2.1h0.8
				c0,0.5,0,1.1,0,1.8c0,0.7,0,1.3,0,1.7c0,1,0,1.9,0,2.7C498.8,377.8,498.8,378.2,498.8,378.3z"/>
			<path class="st2" d="M501.6,378.3h-1v-1.1h1V378.3z"/>
		</g>
	</g>
	<g>
		<g>
			<path class="st2" d="M210.7,373.8c-0.8,1.6-1.6,2.9-2.2,4.1c-0.6,1.2-1,1.8-1.1,2l-0.7-0.3c0.7-1.3,1.4-2.6,2-3.7
				c0.6-1.1,0.9-1.8,1-1.9l0,0c-0.1,0-0.3,0-0.5,0s-0.3,0-0.5,0c-0.6,0-1.2,0-1.8,0c-0.6,0-0.9,0-0.9,0v-0.7c0,0,0.3,0,0.7,0
				c0.4,0,0.9,0,1.4,0c0.4,0,0.8,0,1.3,0s0.8,0,0.9,0L210.7,373.8z"/>
			<path class="st2" d="M215.4,373.9c0,0-0.3,0-0.9,0s-1.2,0-2,0v1.9c0.4,0,0.7,0.1,1,0.1s0.5,0.2,0.7,0.3c0.3,0.2,0.6,0.4,0.7,0.6
				s0.2,0.6,0.2,0.9s-0.1,0.6-0.3,0.9c-0.2,0.3-0.5,0.5-0.8,0.7c-0.3,0.1-0.6,0.2-0.9,0.3c-0.4,0.1-0.8,0.1-1.2,0.1
				c-0.1,0-0.1,0-0.2,0c-0.1,0-0.1,0-0.2,0l-0.1-0.7c0,0,0.1,0,0.1,0s0.1,0,0.1,0c0.4,0,0.7,0,1-0.1c0.3-0.1,0.6-0.1,0.8-0.2
				c0.3-0.1,0.4-0.3,0.5-0.4s0.2-0.4,0.2-0.6s-0.1-0.4-0.2-0.6c-0.1-0.2-0.4-0.3-0.7-0.4c-0.2-0.1-0.4-0.1-0.6-0.1
				c-0.2,0-0.5-0.1-0.8-0.1c0,0-0.1,0-0.2,0s-0.1,0-0.1,0c0,0,0-0.3,0-0.7s0-0.7,0-1c0-0.2,0-0.6,0-1c0-0.4,0-0.6,0-0.6
				c0,0,0.2,0,0.6,0c0.4,0,0.8,0,1.1,0c0.3,0,0.7,0,1.1,0c0.4,0,0.7,0,0.7,0V373.9z"/>
			<path class="st2" d="M221.8,375.7c0,0.4-0.1,0.8-0.2,1.1c-0.1,0.3-0.3,0.6-0.6,0.9c-0.2,0.2-0.5,0.4-0.8,0.5
				c-0.3,0.1-0.7,0.2-1,0.2c-0.4,0-0.7-0.1-1-0.2c-0.3-0.1-0.6-0.3-0.8-0.5c-0.3-0.3-0.4-0.5-0.6-0.9s-0.2-0.7-0.2-1.1
				c0-0.4,0.1-0.7,0.2-1.1c0.1-0.3,0.3-0.6,0.5-0.9c0.2-0.2,0.5-0.4,0.8-0.6c0.3-0.1,0.7-0.2,1.1-0.2c0.4,0,0.8,0.1,1.1,0.2
				c0.3,0.1,0.6,0.3,0.8,0.6c0.2,0.3,0.4,0.5,0.6,0.9C221.7,375,221.8,375.3,221.8,375.7z M220.9,375.8c0-0.3-0.1-0.6-0.1-0.9
				c-0.1-0.3-0.2-0.5-0.4-0.7c-0.2-0.2-0.3-0.3-0.5-0.4s-0.4-0.1-0.7-0.1c-0.3,0-0.5,0-0.7,0.1s-0.4,0.2-0.5,0.4
				c-0.2,0.2-0.3,0.4-0.4,0.7s-0.2,0.6-0.2,0.9c0,0.3,0,0.6,0.1,0.9c0.1,0.3,0.3,0.5,0.5,0.7c0.1,0.1,0.3,0.3,0.5,0.3
				c0.2,0.1,0.4,0.1,0.7,0.1c0.3,0,0.5,0,0.7-0.1c0.2-0.1,0.4-0.2,0.5-0.3c0.2-0.2,0.4-0.4,0.5-0.7
				C220.9,376.4,220.9,376.1,220.9,375.8z"/>
			<path class="st2" d="M230.5,378.3h-0.8c0,0,0-0.3,0-0.7c0-0.4,0-0.8,0-1.2c0-0.2,0-0.4,0-0.7c0-0.3,0-0.6,0-0.8
				c0-0.4-0.1-0.7-0.2-0.8c-0.2-0.2-0.4-0.2-0.7-0.2c-0.2,0-0.4,0-0.7,0.1c-0.3,0.1-0.5,0.2-0.9,0.4c0,0,0,0.1,0,0.1
				c0,0.1,0,0.1,0,0.2c0,0.3,0,0.6,0,0.8s0,0.6,0,0.8c0,0.6,0,1,0,1.4c0,0.4,0,0.6,0,0.6h-0.8c0,0,0-0.2,0-0.6c0-0.4,0-0.8,0-1.3
				c0-0.2,0-0.4,0-0.8c0-0.3,0-0.6,0-0.8c0-0.1,0-0.3,0-0.4c0-0.1-0.1-0.3-0.1-0.3c-0.1-0.1-0.2-0.2-0.3-0.2s-0.3-0.1-0.5-0.1
				c-0.2,0-0.4,0.1-0.7,0.2c-0.3,0.1-0.5,0.3-0.9,0.5c0,0.1,0,0.3,0,0.6c0,0.4,0,0.7,0,0.9c0,0.4,0,0.9,0,1.4c0,0.6,0,0.9,0,0.9
				h-0.8c0,0,0-0.2,0-0.6c0-0.4,0-1,0-1.8c0-0.3,0-0.7,0-1.1c0-0.5,0-1,0-1.6h0.8l0,0.6l0,0c0.2-0.2,0.5-0.3,0.9-0.5
				s0.6-0.2,0.9-0.2c0.3,0,0.6,0.1,0.8,0.2c0.2,0.1,0.4,0.3,0.5,0.5h0c0.4-0.2,0.7-0.4,1.1-0.5c0.3-0.1,0.6-0.2,0.8-0.2
				c0.5,0,0.8,0.1,1.1,0.4c0.3,0.3,0.4,0.6,0.4,1.1c0,0.4,0,0.7,0,0.9c0,0.2,0,0.5,0,0.8c0,0.6,0,1,0,1.4
				C230.5,378,230.5,378.3,230.5,378.3z"/>
			<path class="st2" d="M233.2,378.3h-0.8c0,0,0-0.5,0-1.5c0-1,0-1.7,0-2.4c0-0.4,0-0.9,0-1.5c0-0.6,0-1.3,0-2.1h0.8
				c0,0.5,0,1.1,0,1.8c0,0.7,0,1.3,0,1.7c0,1,0,1.9,0,2.7S233.2,378.2,233.2,378.3z"/>
		</g>
	</g>
	<g>
		<g>
			<path class="st2" d="M343.3,331.1c0,0-0.4,0-1,0s-1,0-1.3,0c-0.4,0-0.9,0-1.4,0s-0.9,0-0.9,0l-0.2-0.6c0.3-0.1,0.6-0.3,1-0.5
				s0.7-0.4,0.9-0.6c0.3-0.3,0.6-0.5,0.8-0.7c0.2-0.2,0.3-0.5,0.3-0.8c0-0.2-0.1-0.5-0.2-0.6c-0.1-0.2-0.3-0.3-0.5-0.4
				c-0.2-0.1-0.4-0.2-0.6-0.2c-0.2,0-0.5-0.1-0.7-0.1c-0.1,0-0.2,0-0.3,0c-0.1,0-0.2,0-0.3,0l0.1-0.7c0.1,0,0.1,0,0.3,0
				c0.1,0,0.2,0,0.4,0c0.4,0,0.7,0,1,0.1c0.3,0.1,0.6,0.1,0.8,0.3c0.3,0.1,0.6,0.4,0.7,0.6c0.2,0.3,0.3,0.6,0.3,0.9
				c0,0.3-0.1,0.6-0.2,0.8s-0.3,0.5-0.5,0.7c-0.2,0.2-0.5,0.4-0.8,0.6c-0.3,0.2-0.6,0.4-0.9,0.5l0,0c0.1,0,0.3,0,0.5,0s0.4,0,0.6,0
				c0.4,0,0.9,0,1.4,0c0.5,0,0.8,0,0.8,0V331.1z"/>
			<path class="st2" d="M349.3,328.5c0,0.4-0.1,0.8-0.2,1.1c-0.1,0.3-0.3,0.6-0.6,0.9c-0.2,0.2-0.5,0.4-0.8,0.5s-0.7,0.2-1,0.2
				c-0.4,0-0.7-0.1-1-0.2s-0.6-0.3-0.8-0.5c-0.3-0.3-0.4-0.5-0.6-0.9s-0.2-0.7-0.2-1.1c0-0.4,0.1-0.7,0.2-1.1
				c0.1-0.3,0.3-0.6,0.5-0.9c0.2-0.2,0.5-0.4,0.8-0.6c0.3-0.1,0.7-0.2,1.1-0.2c0.4,0,0.8,0.1,1.1,0.2s0.6,0.3,0.8,0.6
				c0.2,0.3,0.4,0.5,0.6,0.9C349.2,327.8,349.3,328.1,349.3,328.5z M348.5,328.6c0-0.3,0-0.6-0.1-0.9c-0.1-0.3-0.2-0.5-0.4-0.7
				c-0.2-0.2-0.3-0.3-0.5-0.4s-0.4-0.1-0.7-0.1c-0.3,0-0.5,0-0.7,0.1s-0.4,0.2-0.5,0.4c-0.2,0.2-0.3,0.4-0.4,0.7
				c-0.1,0.3-0.2,0.6-0.2,0.9c0,0.3,0,0.6,0.1,0.9c0.1,0.3,0.3,0.5,0.5,0.7c0.1,0.1,0.3,0.3,0.5,0.3c0.2,0.1,0.4,0.1,0.7,0.1
				c0.2,0,0.5,0,0.7-0.1c0.2-0.1,0.4-0.2,0.5-0.3c0.2-0.2,0.4-0.4,0.5-0.7C348.4,329.2,348.5,328.9,348.5,328.6z"/>
			<path class="st2" d="M352.7,331.1h-0.8c0-0.1,0-0.4,0-0.9c0-0.5,0-1.2,0-2.1c0-0.2,0-0.4,0-0.7s0-0.5,0-0.7l0,0
				c-0.1,0.1-0.4,0.2-0.7,0.4c-0.3,0.2-0.6,0.4-0.9,0.6l-0.3-0.4c0.4-0.3,0.8-0.6,1.3-0.9s0.7-0.5,0.8-0.5l0.6,0.4c0,0.5,0,1,0,1.5
				c0,0.5,0,0.8,0,0.9c0,0.4,0,0.9,0,1.5C352.7,330.6,352.7,331,352.7,331.1z"/>
			<path class="st2" d="M359.9,330.3c-0.4,0-0.8,0-1,0c-0.3,0-0.6,0-0.8,0c0,0.7,0,1.2,0,1.6c0,0.4,0,0.7,0,0.8h-0.8
				c0-0.1,0-0.4,0-0.8c0-0.5,0-1,0-1.6l-2.9,0l-0.3-0.6c0.9-0.9,1.6-1.8,2.3-2.6c0.7-0.8,1-1.2,1.1-1.3l0.6,0.4c0,0.6,0,1.3,0,2.1
				c0,0.8,0,1.3,0,1.3c0.2,0,0.4,0,0.6,0c0.3,0,0.7,0,1.2,0V330.3z M357.3,326.9L357.3,326.9l-2.4,2.7l0,0c0,0,0.1,0,0.3,0
				c0.2,0,0.4,0,0.8,0c0.1,0,0.3,0,0.5,0c0.2,0,0.5,0,0.7,0c0-0.5,0-0.9,0-1.3S357.3,327.4,357.3,326.9z"/>
			<path class="st2" d="M308,337.4c0,0.5-0.2,0.9-0.5,1.3c-0.3,0.4-0.7,0.7-1.3,0.8c-0.2,0.1-0.5,0.1-0.8,0.1c-0.3,0-0.6,0-0.9,0
				l0,2.1h-0.8c0-0.2,0-0.6,0-1.1c0-0.6,0-1.4,0-2.6c0-0.4,0-0.8,0-1.3c0-0.5,0-1.1,0-1.8c0.1,0,0.3,0,0.4,0s0.3,0,0.3,0
				c0.6,0,1.1,0,1.5,0.1c0.4,0.1,0.8,0.2,1,0.4c0.3,0.2,0.5,0.4,0.7,0.8S308,337,308,337.4z M307.2,337.4c0-0.3-0.1-0.6-0.2-0.9
				c-0.2-0.2-0.4-0.4-0.7-0.6c-0.2-0.1-0.4-0.1-0.7-0.2c-0.2,0-0.5,0-0.7,0c0,0-0.1,0-0.1,0c0,0-0.1,0-0.1,0c0,0,0,0.3,0,0.8
				c0,0.5,0,0.8,0,1.1c0,0.2,0,0.5,0,0.9c0,0.3,0,0.5,0,0.6c0,0,0.1,0,0.1,0c0,0,0.1,0,0.1,0c0.2,0,0.5,0,0.7,0
				c0.3,0,0.5-0.1,0.7-0.2c0.3-0.1,0.6-0.3,0.7-0.6C307.1,338,307.2,337.7,307.2,337.4z"/>
			<path class="st2" d="M312.4,337.3c-0.2,0-0.5,0.1-0.9,0.3s-0.8,0.3-1.3,0.6c0,0,0,0.2,0,0.5c0,0.3,0,0.6,0,0.8c0,0.4,0,0.9,0,1.4
				c0,0.5,0,0.9,0,0.9h-0.8c0-0.1,0-0.2,0-0.6c0-0.3,0-0.9,0-1.7c0-0.3,0-0.8,0-1.3s0-1.1,0-1.6h0.8v0.8l0,0
				c0.4-0.2,0.8-0.4,1.1-0.6c0.4-0.2,0.7-0.3,0.9-0.3L312.4,337.3z"/>
			<path class="st2" d="M317.9,339.3c0,0.4-0.1,0.8-0.2,1.1c-0.1,0.4-0.3,0.7-0.6,0.9c-0.2,0.2-0.5,0.4-0.7,0.5
				c-0.3,0.1-0.6,0.2-0.9,0.2c-0.3,0-0.6-0.1-0.9-0.2c-0.3-0.1-0.5-0.3-0.8-0.5c-0.3-0.2-0.5-0.6-0.6-0.9s-0.2-0.7-0.2-1.1
				c0-0.4,0.1-0.7,0.2-1.1c0.1-0.3,0.3-0.6,0.6-0.9c0.2-0.2,0.5-0.4,0.8-0.5c0.3-0.1,0.6-0.2,1-0.2c0.4,0,0.7,0.1,1,0.2
				c0.3,0.1,0.5,0.3,0.8,0.5c0.3,0.3,0.4,0.6,0.6,0.9C317.9,338.5,317.9,338.9,317.9,339.3z M317.1,339.3c0-0.3-0.1-0.6-0.2-0.9
				c-0.1-0.3-0.3-0.6-0.5-0.8c-0.1-0.1-0.3-0.2-0.5-0.3c-0.2-0.1-0.4-0.1-0.6-0.1c-0.2,0-0.4,0-0.6,0.1c-0.2,0.1-0.3,0.2-0.5,0.4
				c-0.2,0.2-0.3,0.4-0.4,0.7c-0.1,0.3-0.2,0.6-0.2,0.9c0,0.3,0.1,0.7,0.2,1c0.1,0.3,0.3,0.5,0.5,0.7c0.1,0.1,0.3,0.2,0.5,0.3
				c0.2,0.1,0.4,0.1,0.5,0.1c0.2,0,0.4,0,0.6-0.1c0.2-0.1,0.3-0.2,0.5-0.3c0.2-0.2,0.3-0.4,0.4-0.7
				C317.1,339.9,317.1,339.6,317.1,339.3z"/>
			<path class="st2" d="M323.2,341.9c0,0-0.1,0-0.2,0c-0.1,0-0.2,0-0.3,0c-0.6,0-1.1,0-1.5-0.1c-0.4-0.1-0.7-0.2-1.1-0.3
				c-0.5-0.2-0.8-0.5-1-0.9c-0.2-0.4-0.4-0.8-0.4-1.2c0-0.5,0.1-1,0.4-1.4s0.6-0.7,1.1-0.9c0.3-0.1,0.6-0.2,1-0.3s0.7-0.1,1.1-0.1
				l0-2.3h0.8c0,0.1,0,0.5,0,1.4c0,0.9,0,1.8,0,2.7c0,0.7,0,1.4,0,1.9C323.2,341,323.2,341.5,323.2,341.9z M322.4,338.4
				c0-0.1,0-0.3,0-0.4c0-0.2,0-0.3,0-0.5c-0.3,0-0.7,0-1,0.1s-0.6,0.1-0.8,0.2c-0.3,0.2-0.6,0.4-0.8,0.7s-0.3,0.6-0.3,1
				c0,0.3,0.1,0.6,0.3,0.9c0.2,0.2,0.4,0.4,0.7,0.6c0.2,0.1,0.5,0.2,0.8,0.3s0.6,0.1,0.9,0.1c0,0,0,0,0.1,0c0,0,0,0,0.1,0
				c0,0,0-0.3,0-0.8C322.4,340.1,322.4,339.3,322.4,338.4z"/>
			<path class="st2" d="M329.3,341.9h-0.8v-0.6l0,0c-0.2,0.2-0.5,0.3-0.9,0.5c-0.4,0.2-0.7,0.2-1,0.2c-0.5,0-0.8-0.1-1.1-0.4
				c-0.3-0.3-0.4-0.7-0.4-1.2c0-0.3,0-0.6,0-1c0-0.4,0-0.6,0-0.8c0-0.3,0-0.7,0-1.1s0-0.7,0-0.8h0.8c0,0,0,0.3,0,0.7
				c0,0.4,0,0.8,0,1.1c0,0.2,0,0.5,0,0.9c0,0.3,0,0.6,0,0.7c0,0.4,0.1,0.7,0.2,0.9s0.3,0.3,0.6,0.3c0.3,0,0.6-0.1,1-0.2
				c0.4-0.2,0.6-0.3,0.8-0.4c0,0,0-0.2,0-0.6c0-0.3,0-0.7,0-1.2c0-0.4,0-0.8,0-1.3c0-0.5,0-0.8,0-0.8h0.8c0,0.1,0,0.2,0,0.6
				c0,0.3,0,0.9,0,1.7c0,0.4,0,0.8,0,1.2C329.3,340.4,329.3,341,329.3,341.9z"/>
			<path class="st2" d="M334.5,341.2l-0.1,0.7c0,0-0.1,0-0.1,0s-0.1,0-0.1,0c-0.4,0-0.8,0-1.2-0.1s-0.7-0.2-1-0.4
				c-0.4-0.2-0.7-0.5-1-0.9s-0.3-0.8-0.3-1.2c0-0.4,0.1-0.8,0.3-1.1c0.2-0.3,0.5-0.6,0.8-0.8c0.3-0.2,0.7-0.3,1.1-0.5
				c0.4-0.1,0.9-0.2,1.3-0.2c0,0,0.1,0,0.1,0c0,0,0.1,0,0.1,0l0,0.7c0,0,0,0-0.1,0s-0.1,0-0.1,0c-0.4,0-0.7,0-1,0.1
				s-0.5,0.1-0.8,0.2c-0.3,0.1-0.6,0.3-0.8,0.6c-0.2,0.3-0.3,0.6-0.3,0.9c0,0.4,0.1,0.7,0.3,1c0.2,0.3,0.4,0.5,0.7,0.6
				c0.2,0.1,0.5,0.2,0.8,0.2s0.6,0.1,0.9,0.1c0.1,0,0.1,0,0.2,0C334.5,341.2,334.5,341.2,334.5,341.2z"/>
			<path class="st2" d="M338.7,341.2l-0.1,0.6c0,0-0.1,0-0.2,0s-0.2,0-0.2,0c-0.7,0-1.2-0.1-1.6-0.4c-0.4-0.3-0.5-0.7-0.5-1.3
				c0-0.4,0-0.8,0-1.2c0-0.4,0-1,0-1.6h-0.9v-0.6h0.9v-1.2h0.7v1.2h1.8v0.6h-1.8c0,0.1,0,0.3,0,0.6s0,0.6,0,0.8c0,0.1,0,0.3,0,0.5
				c0,0.2,0,0.5,0,0.7c0,0.4,0.1,0.8,0.4,1c0.2,0.2,0.6,0.3,1.1,0.3c0.1,0,0.1,0,0.2,0C338.6,341.2,338.6,341.2,338.7,341.2z"/>
			<path class="st2" d="M347.1,339.3c0,0.4-0.1,0.8-0.2,1.1c-0.1,0.4-0.3,0.7-0.6,0.9c-0.2,0.2-0.5,0.4-0.7,0.5
				c-0.3,0.1-0.6,0.2-0.9,0.2c-0.3,0-0.6-0.1-0.9-0.2c-0.3-0.1-0.5-0.3-0.8-0.5c-0.3-0.2-0.5-0.6-0.6-0.9s-0.2-0.7-0.2-1.1
				c0-0.4,0.1-0.7,0.2-1.1c0.1-0.3,0.3-0.6,0.6-0.9c0.2-0.2,0.5-0.4,0.8-0.5s0.6-0.2,1-0.2c0.4,0,0.7,0.1,1,0.2
				c0.3,0.1,0.5,0.3,0.8,0.5c0.3,0.3,0.4,0.6,0.6,0.9S347.1,338.9,347.1,339.3z M346.2,339.3c0-0.3-0.1-0.6-0.2-0.9
				c-0.1-0.3-0.3-0.6-0.5-0.8c-0.1-0.1-0.3-0.2-0.5-0.3s-0.4-0.1-0.6-0.1c-0.2,0-0.4,0-0.6,0.1s-0.3,0.2-0.5,0.4
				c-0.2,0.2-0.3,0.4-0.4,0.7c-0.1,0.3-0.2,0.6-0.2,0.9c0,0.3,0.1,0.7,0.2,1c0.1,0.3,0.3,0.5,0.5,0.7c0.1,0.1,0.3,0.2,0.5,0.3
				c0.2,0.1,0.4,0.1,0.5,0.1c0.2,0,0.4,0,0.6-0.1c0.2-0.1,0.3-0.2,0.5-0.3c0.2-0.2,0.3-0.4,0.4-0.7
				C346.2,339.9,346.2,339.6,346.2,339.3z"/>
			<path class="st2" d="M351.4,335.1c0,0-0.1,0-0.1,0s-0.1,0-0.1,0c-0.3,0-0.6,0-0.8,0.1c-0.2,0.1-0.3,0.2-0.5,0.3
				c-0.1,0.1-0.2,0.2-0.3,0.4c-0.1,0.2-0.1,0.4-0.1,0.6v0.2h1.7v0.6h-1.7c0,1.1,0,2.1,0,3.1c0,0.9,0,1.4,0,1.5h-0.8
				c0-0.1,0-0.5,0-1.4c0-0.9,0-1.9,0-3.1h-1v-0.6h1v-0.2c0-0.3,0-0.6,0.1-0.8c0.1-0.2,0.2-0.5,0.4-0.7c0.2-0.2,0.4-0.3,0.7-0.4
				c0.3-0.1,0.6-0.2,1-0.2c0,0,0.1,0,0.2,0c0.1,0,0.1,0,0.1,0L351.4,335.1z"/>
			<path class="st2" d="M360.8,341.6L360,342c0,0-0.1-0.3-0.3-0.8c-0.2-0.5-0.5-1.1-0.8-1.8h-3c-0.4,0.8-0.6,1.4-0.8,1.8
				c-0.2,0.4-0.3,0.7-0.3,0.7l-0.7-0.4c0.1-0.2,0.5-1,1.1-2.3c0.6-1.4,1.3-2.8,2-4.3h0.7c0.7,1.5,1.3,3,2,4.4
				C360.4,340.8,360.8,341.5,360.8,341.6z M358.6,338.8c-0.2-0.4-0.4-0.8-0.6-1.3c-0.2-0.5-0.4-0.9-0.6-1.4l0,0
				c-0.2,0.4-0.4,0.8-0.6,1.4c-0.2,0.5-0.4,1-0.6,1.3l0,0L358.6,338.8L358.6,338.8z"/>
			<path class="st2" d="M366,341.9h-0.8v-0.6l0,0c-0.2,0.2-0.5,0.3-0.9,0.5c-0.4,0.2-0.7,0.2-1,0.2c-0.5,0-0.8-0.1-1.1-0.4
				c-0.3-0.3-0.4-0.7-0.4-1.2c0-0.3,0-0.6,0-1c0-0.4,0-0.6,0-0.8c0-0.3,0-0.7,0-1.1c0-0.5,0-0.7,0-0.8h0.8c0,0,0,0.3,0,0.7
				s0,0.8,0,1.1c0,0.2,0,0.5,0,0.9s0,0.6,0,0.7c0,0.4,0.1,0.7,0.2,0.9c0.1,0.2,0.3,0.3,0.6,0.3c0.3,0,0.6-0.1,1-0.2
				c0.4-0.2,0.6-0.3,0.8-0.4c0,0,0-0.2,0-0.6c0-0.3,0-0.7,0-1.2c0-0.4,0-0.8,0-1.3s0-0.8,0-0.8h0.8c0,0.1,0,0.2,0,0.6
				c0,0.3,0,0.9,0,1.7c0,0.4,0,0.8,0,1.2C365.9,340.4,366,341,366,341.9z"/>
			<path class="st2" d="M370.6,340.4c0,0.3-0.1,0.5-0.2,0.7s-0.3,0.4-0.5,0.5c-0.2,0.1-0.5,0.2-0.7,0.3c-0.3,0.1-0.6,0.1-0.9,0.1
				c-0.2,0-0.3,0-0.5,0c-0.2,0-0.3,0-0.3,0l0-0.7c0,0,0.1,0,0.4,0c0.2,0,0.4,0,0.6,0c0.1,0,0.3,0,0.5,0c0.2,0,0.3-0.1,0.5-0.1
				c0.2-0.1,0.3-0.2,0.4-0.3c0.1-0.1,0.1-0.2,0.1-0.4c0-0.1,0-0.3-0.1-0.3c-0.1-0.1-0.2-0.2-0.3-0.3c-0.1-0.1-0.3-0.2-0.6-0.3
				s-0.4-0.2-0.6-0.3c-0.2-0.1-0.4-0.3-0.5-0.5c-0.1-0.2-0.2-0.4-0.2-0.7c0-0.2,0.1-0.5,0.2-0.7c0.1-0.2,0.3-0.4,0.6-0.5
				c0.2-0.1,0.4-0.2,0.7-0.2c0.2,0,0.5-0.1,0.7-0.1c0.2,0,0.4,0,0.5,0c0.1,0,0.2,0,0.2,0l0.1,0.7c0,0-0.1,0-0.3,0
				c-0.2,0-0.4,0-0.6,0c-0.2,0-0.3,0-0.4,0s-0.3,0.1-0.4,0.1c-0.1,0.1-0.2,0.2-0.3,0.3c-0.1,0.1-0.1,0.2-0.1,0.3
				c0,0.1,0,0.3,0.1,0.3c0.1,0.1,0.2,0.2,0.3,0.2c0.1,0.1,0.3,0.2,0.6,0.3c0.2,0.1,0.4,0.2,0.5,0.3c0.2,0.1,0.4,0.3,0.5,0.5
				S370.6,340.1,370.6,340.4z"/>
			<path class="st2" d="M374.8,341.2l-0.1,0.6c0,0-0.1,0-0.2,0s-0.2,0-0.2,0c-0.7,0-1.2-0.1-1.6-0.4c-0.4-0.3-0.5-0.7-0.5-1.3
				c0-0.4,0-0.8,0-1.2c0-0.4,0-1,0-1.6h-0.9v-0.6h0.9v-1.2h0.7v1.2h1.8v0.6H373c0,0.1,0,0.3,0,0.6s0,0.6,0,0.8c0,0.1,0,0.3,0,0.5
				c0,0.2,0,0.5,0,0.7c0,0.4,0.1,0.8,0.4,1c0.2,0.2,0.6,0.3,1.1,0.3c0.1,0,0.1,0,0.2,0C374.8,341.2,374.8,341.2,374.8,341.2z"/>
			<path class="st2" d="M379.1,337.3c-0.2,0-0.5,0.1-0.9,0.3c-0.4,0.1-0.8,0.3-1.3,0.6c0,0,0,0.2,0,0.5c0,0.3,0,0.6,0,0.8
				c0,0.4,0,0.9,0,1.4c0,0.5,0,0.9,0,0.9h-0.8c0-0.1,0-0.2,0-0.6c0-0.3,0-0.9,0-1.7c0-0.3,0-0.8,0-1.3c0-0.6,0-1.1,0-1.6h0.8v0.8
				l0,0c0.4-0.2,0.8-0.4,1.1-0.6s0.7-0.3,0.9-0.3L379.1,337.3z"/>
			<path class="st2" d="M383.7,339c0,0.8,0,1.5,0,2.1c0,0.5,0,0.8,0,0.9c0,0-0.2,0-0.5,0c-0.3,0-0.6,0-1.1,0c-0.3,0-0.6,0-0.8-0.1
				c-0.3-0.1-0.5-0.1-0.7-0.2c-0.3-0.1-0.5-0.3-0.7-0.5s-0.3-0.5-0.3-0.8c0-0.3,0.1-0.6,0.3-0.8s0.5-0.4,0.8-0.6
				c0.2-0.1,0.5-0.2,0.9-0.2c0.4-0.1,0.8-0.1,1.3-0.2c0-0.3-0.1-0.5-0.2-0.7c-0.1-0.2-0.3-0.3-0.5-0.4c-0.1-0.1-0.3-0.1-0.5-0.1
				c-0.2,0-0.4,0-0.6,0c-0.2,0-0.3,0-0.4,0c-0.1,0-0.3,0-0.4,0l0.1-0.7c0.1,0,0.2,0,0.3,0c0.2,0,0.4,0,0.6,0c0.4,0,0.8,0,1.1,0.1
				c0.3,0.1,0.6,0.2,0.8,0.4c0.2,0.2,0.3,0.4,0.4,0.7S383.7,338.5,383.7,339z M382.9,340.2c0-0.1,0-0.3,0-0.4c0-0.2,0-0.4,0-0.6
				c-0.1,0-0.4,0-0.8,0.1c-0.4,0.1-0.7,0.1-0.9,0.2c-0.2,0.1-0.4,0.2-0.5,0.3c-0.1,0.1-0.2,0.3-0.2,0.5c0,0.2,0.1,0.4,0.2,0.6
				c0.1,0.1,0.3,0.2,0.5,0.3c0.2,0.1,0.3,0.1,0.6,0.1c0.2,0,0.4,0,0.6,0c0.1,0,0.2,0,0.2,0c0.1,0,0.2,0,0.3,0c0,0,0-0.1,0-0.3
				C382.9,340.8,382.9,340.5,382.9,340.2z"/>
			<path class="st2" d="M386.3,341.9h-0.8c0,0,0-0.5,0-1.5c0-1,0-1.7,0-2.4c0-0.4,0-0.9,0-1.5c0-0.6,0-1.3,0-2.1h0.8
				c0,0.5,0,1.1,0,1.8c0,0.7,0,1.3,0,1.7c0,1,0,1.9,0,2.7C386.3,341.4,386.3,341.8,386.3,341.9z"/>
			<path class="st2" d="M389.2,335.7h-0.9v-0.9h0.9V335.7z M389.1,341.9h-0.8c0-0.1,0-0.4,0-1c0-0.6,0-1.1,0-1.5c0-0.3,0-0.7,0-1.2
				c0-0.4,0-0.9,0-1.5h0.8c0,0.5,0,0.9,0,1.4c0,0.4,0,0.8,0,1.1c0,0.8,0,1.4,0,1.9C389.1,341.6,389.1,341.8,389.1,341.9z"/>
			<path class="st2" d="M394.5,339c0,0.8,0,1.5,0,2.1s0,0.8,0,0.9c0,0-0.2,0-0.5,0c-0.3,0-0.6,0-1.1,0c-0.3,0-0.6,0-0.8-0.1
				s-0.5-0.1-0.7-0.2c-0.3-0.1-0.5-0.3-0.7-0.5c-0.2-0.2-0.3-0.5-0.3-0.8c0-0.3,0.1-0.6,0.3-0.8c0.2-0.2,0.5-0.4,0.8-0.6
				c0.2-0.1,0.5-0.2,0.9-0.2c0.4-0.1,0.8-0.1,1.3-0.2c0-0.3-0.1-0.5-0.2-0.7c-0.1-0.2-0.3-0.3-0.5-0.4c-0.1-0.1-0.3-0.1-0.5-0.1
				s-0.4,0-0.6,0c-0.2,0-0.3,0-0.4,0c-0.1,0-0.3,0-0.4,0l0.1-0.7c0.1,0,0.2,0,0.3,0c0.2,0,0.4,0,0.6,0c0.4,0,0.8,0,1.1,0.1
				s0.6,0.2,0.8,0.4c0.2,0.2,0.3,0.4,0.4,0.7C394.5,338.1,394.5,338.5,394.5,339z M393.8,340.2c0-0.1,0-0.3,0-0.4c0-0.2,0-0.4,0-0.6
				c-0.1,0-0.4,0-0.8,0.1c-0.4,0.1-0.7,0.1-0.9,0.2c-0.2,0.1-0.4,0.2-0.5,0.3c-0.1,0.1-0.2,0.3-0.2,0.5c0,0.2,0.1,0.4,0.2,0.6
				s0.3,0.2,0.5,0.3c0.2,0.1,0.3,0.1,0.6,0.1c0.2,0,0.4,0,0.6,0c0.1,0,0.2,0,0.2,0c0.1,0,0.2,0,0.3,0c0,0,0-0.1,0-0.3
				C393.8,340.8,393.8,340.5,393.8,340.2z"/>
		</g>
	</g>
</g>
</svg>
